<svg width="479" height="553" viewBox="0 0 479 553" fill="none" xmlns="http://www.w3.org/2000/svg">
<path d="M479 412.513L239.5 553V276.799L479 138.996V412.513Z" fill="#21425E"/>
<path d="M407.717 371.948L239.5 471.572V276.799L407.12 179.562L407.717 371.948Z" fill="#B1B1B1"/>
<path d="M329.872 327.206L239.5 379.703V276.798L329.574 224.898L329.872 327.206Z" fill="#68919C"/>
<path d="M0 412.513L239.5 553V276.798L0 139.89V412.513Z" fill="#2D587A"/>
<path d="M71.2834 372.246L239.5 470.974V276.798L70.9851 180.157L71.2834 372.246Z" fill="#E3E3E4"/>
<path d="M149.427 327.206L239.5 379.703V276.798L149.427 225.197V327.206Z" fill="#87BBCB"/>
<path d="M479 138.996L239.5 276.798L0 139.891L240.096 0L479 138.996Z" fill="#284E6E"/>
<path d="M407.12 180.158L239.5 276.798L70.9851 180.158L240.097 82.0254L407.12 180.158Z" fill="#CDCCCD"/>
<path d="M329.573 224.899L239.5 276.799L149.427 225.197L241.29 173.596L329.573 224.899Z" fill="#7AA8B6"/>
</svg>
