<svg width="118" height="136" viewBox="0 0 118 136" fill="none" xmlns="http://www.w3.org/2000/svg">
<path d="M58.8207 68.0003L78.4754 79.3814L58.8207 90.6908L39.3094 79.3814L39.3812 56.6908L59.0359 45.3813L78.6906 56.6908L58.8207 68.0003Z" stroke="#238BC8" stroke-miterlimit="10"/>
<path d="M59.0359 0L0 34V102L58.9641 136L118 102V34L59.0359 0ZM98.3453 68V90.6905L58.9641 113.381L19.6547 90.7621L19.583 45.4526L58.9641 22.7621L88.0875 39.3684L98.3453 45.3095L78.6906 56.6905L98.3453 68Z" fill="#124F7B"/>
<path d="M58.8207 68.0003L78.4754 79.3814L58.8207 90.6908L39.3094 79.3814L39.3812 56.6908L59.0359 45.3813L78.6906 56.6908L58.8207 68.0003Z" fill="#74C9DE" stroke="#74C9DE" stroke-miterlimit="10"/>
<path d="M78.6907 56.6902L98.3454 67.9997V90.6902L58.9642 113.309L19.7265 90.6902L19.6548 45.3808L58.9642 22.6187L88.0876 39.3681L98.3454 45.3092L78.6907 56.6902L59.0359 45.3808L39.3812 56.6902L39.3095 79.3808L58.8207 90.6902L78.4755 79.3808L58.8207 67.9997L78.6907 56.6902Z" fill="white"/>
</svg>
