<svg width="99" height="100" viewBox="0 0 99 100" fill="none" xmlns="http://www.w3.org/2000/svg">
<circle cx="49.5" cy="50" r="49.5" fill="#124F7B"/>
<ellipse cx="49.8722" cy="48.8838" rx="30.5188" ry="29.7744" fill="white"/>
<path d="M13.6946 78.91L23.8541 59.0182L33.91 69.4107L13.6946 78.91Z" fill="white"/>
<path d="M40.2395 53.3894C39.4128 53.3894 38.7195 53.1094 38.1595 52.5494C37.5995 51.9894 37.3195 51.296 37.3195 50.4694C37.3195 49.6427 37.5995 48.9494 38.1595 48.3894C38.7195 47.8294 39.4128 47.5494 40.2395 47.5494C41.0395 47.5494 41.7195 47.8294 42.2795 48.3894C42.8395 48.9494 43.1195 49.6427 43.1195 50.4694C43.1195 51.296 42.8395 51.9894 42.2795 52.5494C41.7195 53.1094 41.0395 53.3894 40.2395 53.3894ZM49.8879 53.3894C49.0612 53.3894 48.3679 53.1094 47.8079 52.5494C47.2479 51.9894 46.9679 51.296 46.9679 50.4694C46.9679 49.6427 47.2479 48.9494 47.8079 48.3894C48.3679 47.8294 49.0612 47.5494 49.8879 47.5494C50.6879 47.5494 51.3679 47.8294 51.9279 48.3894C52.4879 48.9494 52.7679 49.6427 52.7679 50.4694C52.7679 51.296 52.4879 51.9894 51.9279 52.5494C51.3679 53.1094 50.6879 53.3894 49.8879 53.3894ZM59.5363 53.3894C58.7097 53.3894 58.0163 53.1094 57.4563 52.5494C56.8963 51.9894 56.6163 51.296 56.6163 50.4694C56.6163 49.6427 56.8963 48.9494 57.4563 48.3894C58.0163 47.8294 58.7097 47.5494 59.5363 47.5494C60.3363 47.5494 61.0163 47.8294 61.5763 48.3894C62.1363 48.9494 62.4163 49.6427 62.4163 50.4694C62.4163 51.296 62.1363 51.9894 61.5763 52.5494C61.0163 53.1094 60.3363 53.3894 59.5363 53.3894Z" fill="#124F7B"/>
</svg>
