<svg width="1920" height="2160" viewBox="0 0 1920 2160" fill="none" xmlns="http://www.w3.org/2000/svg">
<g clip-path="url(#clip0)">
<path d="M93.2 1414C93.2 1414 81.34 1393.3 69.97 1405.67C69.73 1417.21 82.19 1416.91 93.2 1414Z" fill="#CE2525"/>
<path d="M81.0801 1515.34C81.0801 1515.34 -34.7199 1537.5 -43.4099 1596.17C-7.60991 1610.57 44.0001 1561.64 81.0801 1515.34Z" fill="#CE2525"/>
<path d="M1906.43 981.84C1906.43 981.84 1885.93 962.68 1873.95 973.29C1876.4 983.7 1892.69 984 1906.43 981.84Z" fill="#CE2525"/>
<path d="M247.74 796.26C247.74 796.26 215.07 762.67 194.27 779.47C197.53 797.05 224.66 798.8 247.74 796.26Z" fill="#CE2525"/>
<path d="M1888.24 1371.14C1888.24 1371.14 1859.76 1363.45 1862.08 1384.77C1872.54 1395.31 1882.19 1383.74 1888.24 1371.14Z" fill="#CE2525"/>
<path d="M1621.36 2152C1621.36 2152 1611.84 2126.39 1596.78 2130.46C1594.38 2140.59 1608.45 2147.91 1621.36 2152Z" fill="#CE2525"/>
<path d="M722.57 334.61C722.57 334.61 700.93 317.87 690.28 329.29C693.6 339.19 709.44 338 722.57 334.61Z" fill="#CE2525"/>
<path d="M485.76 512.08C485.76 512.08 460.08 500.54 456.3 519.14C463.55 530 476.27 521.78 485.76 512.08Z" fill="#CE2525"/>
<path d="M1729 384.2C1729 384.2 1715.88 371.83 1708.93 380.89C1710.72 388.44 1720.65 387.11 1729 384.2Z" fill="#CE2525"/>
<path d="M949.07 724.28C949.07 724.28 938.92 704.79 927.27 712.09C926.35 721.38 938.34 724.07 949.07 724.28Z" fill="#CE2525"/>
</g>
<defs>
<clipPath id="clip0">
<rect width="1920" height="2160" fill="white"/>
</clipPath>
</defs>
</svg>
