<svg width="1920" height="903" viewBox="0 0 1920 903" fill="none" xmlns="http://www.w3.org/2000/svg">
<g clip-path="url(#clip0)">
<path d="M383.93 343.43C383.93 343.43 363.37 345.09 363.24 356.87C370.12 360.69 378.32 352 383.93 343.43Z" fill="#CE2525"/>
<path d="M0 271.58L29 267.89C31.8849 267.519 34.81 267.6 37.67 268.13L89.43 277.62C89.552 277.637 89.6622 277.702 89.7362 277.801C89.8103 277.899 89.8422 278.023 89.825 278.145C89.8078 278.267 89.7428 278.377 89.6443 278.451C89.5459 278.525 89.422 278.557 89.3 278.54L39.75 274.45C35.5188 274.098 31.259 274.522 27.18 275.7L0 283.55V271.58Z" fill="#A38360"/>
<path d="M76.4102 427.55C69.9404 432.944 62.6212 437.229 54.7502 440.23C54.2916 440.41 53.8832 440.698 53.5598 441.07C53.2365 441.441 53.0076 441.886 52.8927 442.365C52.7779 442.844 52.7804 443.344 52.9001 443.822C53.0198 444.3 53.2531 444.742 53.5802 445.11L73.0702 467.25C81.8617 477.248 92.9154 485 105.31 489.86L170.8 515.55C176.361 517.729 182.403 518.382 188.3 517.44L191.16 516.98C196.269 516.17 201.072 514.02 205.08 510.75L240.83 481.64C244.064 479.012 247.96 477.327 252.09 476.77L306.09 469.52C306.131 469.516 306.173 469.528 306.206 469.553C306.239 469.578 306.262 469.614 306.271 469.654C306.279 469.695 306.273 469.737 306.252 469.773C306.232 469.809 306.199 469.836 306.16 469.85L253.72 482.85C250.32 483.699 247.185 485.384 244.6 487.75L219.8 510.51C219.62 510.651 219.494 510.849 219.442 511.071C219.39 511.294 219.416 511.527 219.516 511.733C219.615 511.938 219.782 512.104 219.988 512.201C220.195 512.299 220.428 512.323 220.65 512.27L314.65 497.27C314.735 497.264 314.819 497.288 314.887 497.34C314.955 497.391 315.002 497.465 315.019 497.548C315.036 497.632 315.023 497.718 314.98 497.792C314.938 497.866 314.871 497.922 314.79 497.95L189 529.92C180.784 532.005 172.164 531.902 164 529.62L81.9202 506.62C71.9351 503.806 62.9317 498.266 55.9202 490.62L23.2602 455.22C22.0732 453.926 20.5473 452.991 18.8557 452.521C17.1641 452.051 15.3745 452.064 13.6902 452.56L-0.0698242 456.56V421.35L43.2102 409.5C49.0069 407.913 54.473 405.302 59.3502 401.79L74.4802 390.87C84.7156 383.499 97.1274 379.774 109.73 380.29L136.73 381.39C138.386 381.452 140.023 381.031 141.444 380.179C142.864 379.327 144.006 378.08 144.73 376.59L149.44 366.94C151.306 363.168 151.855 358.88 151 354.76L148.25 341.76C148.202 341.56 148.227 341.349 148.319 341.165C148.412 340.981 148.567 340.836 148.757 340.756C148.946 340.676 149.158 340.665 149.355 340.726C149.551 340.787 149.72 340.916 149.83 341.09L159.78 355.79C160.551 356.931 161.02 358.248 161.142 359.62C161.265 360.991 161.037 362.371 160.48 363.63L153.7 378.93C153.548 379.275 153.481 379.651 153.506 380.027C153.53 380.403 153.646 380.768 153.843 381.089C154.04 381.411 154.311 381.68 154.635 381.873C154.958 382.067 155.324 382.179 155.7 382.2L247.89 385.97C255.104 386.26 262.317 385.399 269.26 383.42L363.26 356.55C363.312 356.542 363.365 356.552 363.41 356.579C363.456 356.605 363.491 356.646 363.509 356.696C363.528 356.745 363.529 356.799 363.513 356.848C363.497 356.898 363.464 356.941 363.42 356.97L269 401.24C260.765 405.105 251.815 407.213 242.72 407.43L102.42 410.75C98.5367 410.849 94.8008 412.258 91.8202 414.75L76.4102 427.55Z" fill="#A38360"/>
<path d="M143.27 329.87C143.27 329.87 141.73 341.37 149.11 341.52C152.38 337.7 147.94 333.06 143.27 329.87Z" fill="#D62222"/>
<path d="M383.93 343.43C383.93 343.43 363.37 345.09 363.24 356.87C370.12 360.69 378.32 352 383.93 343.43Z" fill="#CE2525"/>
<path d="M335.59 347.2C335.59 347.2 321 357.89 330.26 365.87C338.64 365.25 338.05 355.56 335.59 347.2Z" fill="#CE2525"/>
<path d="M369.77 367.34C369.77 367.34 363.62 357 357.44 360C357.21 364.57 363.87 366.61 369.77 367.34Z" fill="#CE2525"/>
<path d="M315.55 393.31C315.55 393.31 306.55 380.57 299.1 386.98C299.35 393.66 308 394.3 315.55 393.31Z" fill="#CE2525"/>
<path d="M326.19 474.84C326.19 474.84 313.88 461.39 306.04 469.54C307.27 477.1 317.49 476.83 326.19 474.84Z" fill="#CE2525"/>
<path d="M327.78 501.7C327.78 501.7 319.78 493.42 314.61 497.56C315.41 501.9 322.1 502.33 327.78 501.7Z" fill="#CE2525"/>
<path d="M289.86 463.28C289.86 463.28 277.97 465.33 282.5 472.84C288.19 475 289.78 469 289.86 463.28Z" fill="#CE2525"/>
<path d="M257.09 489C257.09 489 254.74 482.68 251.03 483.69C250.44 486.17 253.91 488 257.09 489Z" fill="#CE2525"/>
<path d="M169.83 354.14C169.83 354.14 160.63 354.88 160.57 360.14C163.65 361.86 167.32 358 169.83 354.14Z" fill="#CE2525"/>
<path d="M1478.75 460.18C1474.83 463.71 1477.75 470.18 1475.75 475.18C1472.89 482.35 1464 498.65 1459.5 499.7C1456.5 500.39 1449.39 497.16 1444.9 494.89C1443.71 494.283 1442.37 494.03 1441.04 494.161C1439.71 494.292 1438.44 494.802 1437.39 495.63C1433.03 499.03 1421.3 502.21 1420.65 508.98L1409.65 496.92L1428.87 464.64L1474.01 440.21V441.58C1473.99 443.463 1474.4 445.325 1475.21 447.028C1476.01 448.73 1477.19 450.228 1478.66 451.41L1482 453.1C1482 453.1 1485.6 454 1478.75 460.18Z" fill="#FFEBD7"/>
<path d="M1424 506.79L1422.51 504.2C1422.51 504.2 1433.33 491.4 1438.06 489.46C1441.26 488.228 1444.63 487.493 1448.06 487.28L1454.06 490.8L1459.19 493.04C1459.19 493.04 1454.19 492.95 1444.72 489.48C1442.51 489.02 1439.94 490.39 1438.8 491.48L1437.54 492.59L1431.97 496.47C1431.97 496.47 1423.61 501.72 1424 506.79Z" fill="#FFE4CC"/>
<path d="M1422.29 504.87L1423.11 506.66L1416.26 507.88L1422.29 504.87Z" fill="#282828"/>
<path d="M1349.19 857.92C1349.5 859.65 1350.53 866.1 1349.34 869.04C1349.24 869.28 1349.45 869.52 1349.75 869.53L1364.84 869.94C1364.94 869.947 1365.03 869.922 1365.12 869.867C1365.2 869.813 1365.26 869.733 1365.29 869.64L1368.18 857.95C1368.19 857.89 1368.18 857.829 1368.17 857.771C1368.15 857.713 1368.12 857.66 1368.08 857.615C1368.04 857.571 1367.98 857.537 1367.93 857.515C1367.87 857.493 1367.81 857.485 1367.75 857.49H1349.63C1349.57 857.484 1349.51 857.491 1349.46 857.51C1349.4 857.529 1349.35 857.561 1349.31 857.602C1349.27 857.643 1349.23 857.693 1349.21 857.748C1349.19 857.803 1349.19 857.861 1349.19 857.92Z" fill="#EAEAEA"/>
<path d="M1380.41 842C1379.02 843.866 1377.36 845.511 1375.48 846.88C1375.37 846.945 1375.28 847.033 1375.21 847.136C1375.14 847.24 1375.09 847.357 1375.07 847.481C1375.04 847.605 1375.05 847.732 1375.08 847.854C1375.11 847.977 1375.16 848.091 1375.24 848.19L1383.08 858.03C1383.22 858.208 1383.42 858.327 1383.64 858.36C1383.87 858.394 1384.1 858.34 1384.28 858.21L1392.28 852.64C1392.39 852.561 1392.48 852.458 1392.55 852.34C1392.61 852.221 1392.65 852.089 1392.66 851.954C1392.66 851.819 1392.64 851.684 1392.59 851.559C1392.54 851.434 1392.46 851.321 1392.36 851.23L1381.67 841.89C1381.58 841.813 1381.48 841.754 1381.36 841.718C1381.25 841.681 1381.13 841.668 1381.02 841.678C1380.9 841.688 1380.78 841.722 1380.68 841.778C1380.58 841.833 1380.48 841.909 1380.41 842Z" fill="#EAEAEA"/>
<path d="M1346.48 656.54C1346.48 656.54 1339.71 675.13 1344.78 690.54C1346.12 694.439 1346.94 698.497 1347.22 702.61C1349.05 735.55 1346.84 841.16 1346.51 855.98C1346.51 856.207 1346.55 856.432 1346.63 856.642C1346.72 856.853 1346.84 857.044 1347 857.205C1347.16 857.366 1347.35 857.494 1347.56 857.581C1347.77 857.667 1347.99 857.711 1348.22 857.71H1367.4C1368.74 857.712 1370.03 857.227 1371.04 856.345C1372.04 855.464 1372.7 854.246 1372.87 852.92L1392.39 702.42C1392.43 702.136 1392.56 701.873 1392.76 701.672C1392.97 701.471 1393.23 701.344 1393.52 701.312C1393.8 701.28 1394.09 701.344 1394.33 701.494C1394.57 701.644 1394.76 701.872 1394.86 702.14L1426 774.61C1426.74 776.583 1426.93 778.718 1426.56 780.791C1426.18 782.864 1425.26 784.798 1423.88 786.39L1379.5 837.61C1379.01 838.181 1378.74 838.913 1378.75 839.666C1378.76 840.42 1379.05 841.144 1379.56 841.7L1390.25 853.31C1390.53 853.616 1390.87 853.861 1391.25 854.032C1391.62 854.203 1392.03 854.296 1392.45 854.304C1392.86 854.312 1393.27 854.237 1393.66 854.081C1394.04 853.926 1394.39 853.694 1394.68 853.4L1461.52 785.92C1464.43 782.98 1466.42 779.25 1467.24 775.193C1468.05 771.135 1467.66 766.928 1466.11 763.09L1424.93 661L1346.48 656.54Z" fill="#4C86CC"/>
<path d="M1423.11 506.66L1431.01 527.16C1432.32 530.57 1433.72 533.94 1435.29 537.23C1437.88 542.517 1439.02 548.398 1438.59 554.27C1438.16 560.142 1436.18 565.795 1432.85 570.65C1431.56 572.606 1430.55 574.733 1429.85 576.97C1423.85 596.13 1424.92 641.2 1425.53 657.59C1425.59 659.371 1425.05 661.12 1424.01 662.566C1422.97 664.013 1421.49 665.076 1419.78 665.59C1406.57 669.59 1374.35 677.41 1351.85 667.91C1349.71 667.001 1347.97 665.337 1346.97 663.234C1345.98 661.131 1345.79 658.735 1346.44 656.5C1358.04 616.03 1366.65 515.8 1366.65 515.8L1423.11 506.66Z" fill="#282828"/>
<path d="M1517.75 565C1510.52 567.75 1507.75 569.46 1505.75 570.23C1505.73 570.24 1505.71 570.255 1505.7 570.275C1505.68 570.294 1505.68 570.317 1505.68 570.34C1505.68 570.364 1505.68 570.386 1505.7 570.406C1505.71 570.426 1505.73 570.441 1505.75 570.45C1508.36 570.45 1510.22 571.62 1507.38 575.54C1507.69 575.872 1507.92 576.269 1508.05 576.702C1508.18 577.135 1508.21 577.592 1508.15 578.04C1508.08 578.487 1507.91 578.913 1507.65 579.285C1507.39 579.658 1507.05 579.967 1506.66 580.19C1506.89 580.585 1507.02 581.028 1507.04 581.483C1507.07 581.938 1506.98 582.393 1506.8 582.809C1506.62 583.226 1506.34 583.594 1505.98 583.882C1505.63 584.171 1505.22 584.372 1504.77 584.47C1502.52 585.09 1496.96 589.71 1492.33 589.2C1489.77 589.058 1487.25 589.878 1485.26 591.5L1480.26 592.88L1475.87 586.14L1474.79 580.22C1474.79 580.22 1477.29 577.75 1477.67 576.34C1478.05 574.93 1480.17 570.91 1488.6 564.28C1497.03 557.65 1502.73 549.95 1502.97 555.79C1502.5 560.43 1494.48 566.24 1493.97 566.61L1498.42 566.03C1499.59 565.88 1500.74 565.629 1501.86 565.28L1516.86 560.56C1518.11 560.224 1519.44 560.355 1520.6 560.93C1522.17 561.7 1522.94 563.05 1517.75 565Z" fill="#FFEBD7"/>
<path d="M1422.56 515.14C1422.03 512.767 1420.98 510.542 1419.48 508.63C1416.31 504.72 1410.09 501.05 1400.7 512.8C1390.23 525.91 1388.62 579.97 1388.51 607.97C1388.5 609.897 1388.96 611.797 1389.84 613.513C1390.71 615.228 1391.99 616.71 1393.55 617.834C1395.12 618.958 1396.93 619.692 1398.83 619.975C1400.74 620.257 1402.69 620.081 1404.51 619.46L1487.08 591.96C1487.43 591.836 1487.75 591.626 1488.01 591.349C1488.26 591.072 1488.44 590.736 1488.54 590.372C1488.63 590.008 1488.63 589.626 1488.54 589.261C1488.45 588.896 1488.27 588.559 1488.02 588.28C1485.71 585.7 1477.29 581.66 1476.86 578.74C1476.86 578.622 1476.83 578.507 1476.77 578.404C1476.71 578.301 1476.63 578.214 1476.53 578.149C1476.43 578.084 1476.32 578.044 1476.2 578.032C1476.09 578.02 1475.97 578.036 1475.86 578.08C1440.27 588.91 1428.24 591.21 1422.3 592.08C1421.98 592.124 1421.66 592.092 1421.36 591.987C1421.06 591.882 1420.79 591.707 1420.57 591.476C1420.35 591.245 1420.19 590.965 1420.1 590.66C1420.01 590.355 1420 590.032 1420.06 589.72C1422.25 579.52 1429 542.51 1422.56 515.14Z" fill="#383838"/>
<path d="M1422.29 504.87C1422.29 504.87 1396.66 524.29 1393.5 529.76C1385.92 542.86 1356.5 531.29 1366.69 515.84C1376.88 500.39 1382.77 498.78 1382.77 498.78C1382.77 498.78 1389.14 496.64 1390.77 493.58C1392.4 490.52 1422.29 504.87 1422.29 504.87Z" fill="#E02421"/>
<path d="M1422.29 504.87L1410.22 493.5C1410.22 493.5 1398.36 488.64 1391.08 495.19C1389.35 496.28 1422.29 504.87 1422.29 504.87Z" fill="#282828"/>
<path d="M1422.25 504.84C1422.25 504.84 1379.83 511.62 1387.81 496.39L1395.62 491.8L1408.73 494.69C1408.73 494.69 1407.47 497.05 1422.25 504.84Z" fill="#CE2121"/>
<path d="M1474.08 440.25C1474.08 440.25 1473.45 419.52 1470.6 414.07C1467.42 408.02 1428.94 464.67 1428.94 464.67L1474.08 440.25Z" fill="#FFEBD7"/>
<path d="M1458.34 492.92C1457.08 492.48 1455.82 492.05 1454.58 491.55C1453.34 491.05 1452.14 490.49 1450.96 489.85C1448.56 488.638 1446.33 487.104 1444.34 485.29C1443.35 484.36 1442.48 483.312 1441.74 482.17C1441.37 481.591 1441.07 480.978 1440.82 480.34C1440.53 479.69 1440.39 478.981 1440.42 478.27C1440.68 475.62 1440.94 472.98 1441.3 470.34C1441.3 473 1441.13 475.65 1441 478.34C1441.02 478.962 1441.16 479.575 1441.42 480.14C1441.66 480.739 1441.96 481.311 1442.32 481.85C1443.04 482.929 1443.9 483.916 1444.86 484.79C1446.79 486.58 1448.93 488.125 1451.23 489.39C1453.51 490.7 1455.93 491.78 1458.34 492.92Z" fill="#FFE4CC"/>
<path d="M1470.37 413.79C1470.37 413.79 1481.31 451.42 1458.91 464.29C1449.5 470.48 1447.03 496.18 1447.03 496.18L1444.66 494.76C1444.66 494.76 1445.78 472.69 1452.46 461.5C1470.6 414.07 1470.37 413.79 1470.37 413.79Z" fill="#FFE4CC"/>
<path d="M1460.38 388.11C1460.38 388.11 1485.21 436.71 1461.17 459.39C1460.2 460.371 1459.19 461.299 1458.12 462.17C1445.39 472 1442.57 519 1442.57 519L1443.37 504.14C1444.25 489.375 1447.36 474.828 1452.61 461C1456.78 449.87 1460.98 430.82 1460.36 399.78" fill="#7F6144"/>
<path d="M1395.58 499.53C1395.58 499.53 1389.92 501.14 1390.66 508.47C1391.15 505.87 1391.24 502.35 1395.58 499.53Z" fill="#7A593D"/>
<path d="M1455.62 455.81C1460.34 448.47 1466.62 438.32 1469.25 420.21C1469.64 417.56 1469.67 414.868 1469.33 412.21C1468.07 402.31 1462.39 377.69 1437.03 374.59C1405.18 370.68 1375.93 406.19 1370.16 439.53C1364.39 472.87 1365.61 506.91 1411.69 498.65C1419.18 496.9 1425.69 490.45 1429.14 486.36C1430.89 484.304 1431.85 481.69 1431.84 478.99V472.69C1431.82 471.926 1432.05 471.177 1432.5 470.558C1432.95 469.938 1433.59 469.483 1434.32 469.26H1434.4C1435.01 469.098 1435.67 469.181 1436.22 469.49C1436.86 469.818 1437.56 470.014 1438.28 470.065C1439 470.117 1439.73 470.023 1440.41 469.79C1443.75 468.75 1449.37 465.54 1455.62 455.81Z" fill="#7F6144"/>
<path d="M1386.62 399.9C1386.62 399.9 1398.41 408.03 1388.54 423.09C1378.67 438.15 1374.72 418.53 1374.72 418.53" stroke="#1C1C1C" stroke-width="4" stroke-miterlimit="10"/>
<path d="M1386.92 401.29C1386.92 401.29 1380.92 363.68 1357.6 385C1334.28 406.32 1327.67 579 1327.67 579L1336.12 559L1335.18 573L1340.18 559.44L1337.28 584L1351.63 533L1350.82 570.79C1350.82 570.79 1369.28 417.15 1382.3 425.08C1387.29 427.65 1391.49 406.4 1386.92 401.29Z" fill="#7F6144"/>
<path d="M1373.61 378.91C1373.61 378.91 1353.39 363.84 1338.25 395.07C1343.83 387.89 1354.25 368.26 1371.01 379.57L1373.61 378.91Z" fill="#7F6144"/>
<path d="M1386.2 397.92C1386.2 397.92 1387.01 378.79 1377.45 373.74C1379.92 378.002 1381.61 382.668 1382.45 387.52L1386.2 397.92Z" fill="#7F6144"/>
<path d="M1343.41 422.62L1328.57 497.34L1336.06 471.85L1343.41 422.62Z" fill="#7F6144"/>
<path d="M1388.65 498.61C1388.65 498.61 1364.6 498.61 1367.73 462.3C1368.06 470.89 1365.67 493.79 1388.65 498.61Z" fill="#7F6144"/>
<path d="M1395.53 500.29C1393.83 500.369 1392.21 501.029 1390.93 502.159C1389.66 503.289 1388.81 504.821 1388.53 506.5C1389.64 504.49 1390.62 501.66 1395.53 500.29Z" fill="#7F6144"/>
<path d="M1393 498.78C1393 498.78 1396 502.78 1393 506.29C1393.54 504.62 1394.7 502.68 1393 498.78Z" fill="#7F6144"/>
<path d="M1393 500.68C1393 500.68 1378.89 508.25 1377.39 494.77C1378.56 498.35 1379.08 505.67 1393 500.68Z" fill="#7F6144"/>
<path d="M1439.07 470.89C1439.07 470.89 1430.27 465.07 1431.51 475.19C1432.75 485.31 1439.51 482.38 1439.51 482.38" fill="#FFEBD7"/>
<path d="M1439.07 470.89C1438.14 470.405 1437.15 470.029 1436.13 469.77C1435.19 469.445 1434.17 469.47 1433.25 469.84C1432.86 470.093 1432.54 470.435 1432.32 470.837C1432.09 471.239 1431.97 471.689 1431.95 472.15C1431.85 473.149 1431.87 474.157 1432.02 475.15C1432.16 477.186 1432.85 479.145 1434.02 480.82C1434.69 481.59 1435.57 482.146 1436.56 482.418C1437.55 482.69 1438.59 482.666 1439.56 482.35C1438.58 482.827 1437.48 483.011 1436.39 482.88C1435.27 482.704 1434.23 482.159 1433.45 481.33C1432.03 479.617 1431.18 477.5 1431.03 475.28C1430.88 474.182 1430.88 473.068 1431.03 471.97C1431.13 471.396 1431.31 470.842 1431.59 470.33C1431.89 469.783 1432.37 469.353 1432.94 469.11C1434.04 468.754 1435.22 468.811 1436.28 469.27C1437.28 469.677 1438.22 470.222 1439.07 470.89Z" fill="#FFE4CC"/>
<path d="M1437.57 471.37C1437.57 471.37 1435.18 471.1 1436.71 473.11C1436.94 473.186 1437.14 473.351 1437.25 473.571C1437.36 473.79 1437.39 474.045 1437.31 474.28C1437.37 474.386 1437.47 474.472 1437.57 474.529C1437.68 474.587 1437.81 474.614 1437.93 474.606C1438.05 474.599 1438.17 474.558 1438.28 474.489C1438.38 474.419 1438.46 474.322 1438.51 474.21C1439.13 473.33 1437.57 471.37 1437.57 471.37Z" fill="#FFE4CC"/>
<path d="M1432 471.31C1432.31 470.606 1432.78 469.981 1433.36 469.48C1433.67 469.218 1434.03 469.027 1434.42 468.92C1434.85 468.831 1435.29 468.899 1435.67 469.11C1436.02 469.324 1436.32 469.602 1436.57 469.93C1436.78 470.247 1436.96 470.581 1437.11 470.93C1437.25 471.282 1437.37 471.642 1437.47 472.01C1437.55 472.38 1437.64 472.75 1437.7 473.12C1437.37 472.44 1437.12 471.74 1436.76 471.12C1436.6 470.79 1436.37 470.51 1436.19 470.2C1435.98 469.936 1435.72 469.712 1435.43 469.54C1435.13 469.394 1434.8 469.338 1434.47 469.381C1434.15 469.424 1433.84 469.563 1433.59 469.78C1432.99 470.216 1432.46 470.73 1432 471.31Z" fill="#FFE4CC"/>
<path d="M1453.21 459.3C1453.21 459.3 1469.32 433.84 1454.83 400.53C1454.83 400.53 1464 424.35 1453.21 459.3Z" fill="#7C5D43"/>
<path d="M1379.66 425.57C1379.79 425.351 1379.97 425.163 1380.18 425.019C1380.39 424.875 1380.63 424.779 1380.88 424.736C1381.13 424.693 1381.38 424.705 1381.63 424.772C1381.88 424.838 1382.1 424.957 1382.3 425.12C1383.3 425.84 1385.11 424.34 1385.11 424.34C1384.28 425.574 1383.02 426.449 1381.57 426.79C1381.36 426.844 1381.15 426.855 1380.94 426.823C1380.73 426.79 1380.53 426.714 1380.35 426.599C1380.17 426.484 1380.01 426.334 1379.9 426.156C1379.78 425.979 1379.7 425.78 1379.66 425.57Z" fill="#7A593D"/>
<path d="M1374.89 405C1374.89 405 1349.2 371.48 1336.12 559C1340 535.87 1350.93 391.35 1374.89 405Z" fill="#7C5D43"/>
<path d="M1384.61 414.42C1384.61 414.42 1362.5 381 1351.63 533C1355.68 504 1363.64 399.71 1384.61 414.42Z" fill="#7C5D43"/>
<path d="M1374.38 489.35C1374.38 489.35 1360.38 453.75 1385.65 437.13C1379.43 443.51 1364.87 452.87 1374.38 489.35Z" fill="#7C5D43"/>
<path d="M1377.35 428.83C1377.95 429.475 1378.68 429.995 1379.48 430.36C1378.27 433.7 1370.93 448.21 1367.73 462.3C1369.81 450.85 1373.03 439.638 1377.35 428.83Z" fill="#7C5D43"/>
<path d="M1381.57 445.56C1378.16 450.429 1375.93 456.023 1375.04 461.902C1374.16 467.781 1374.66 473.785 1376.49 479.44C1375.64 471.63 1372.26 462.33 1381.57 445.56Z" fill="#7C5D43"/>
<path d="M1348.19 867.35C1353.98 868.79 1360 869.029 1365.89 868.05C1366.81 867.909 1367.75 868.105 1368.54 868.6C1379.73 875.6 1385.54 877.6 1387.54 878.11C1388.74 878.417 1389.9 878.836 1391.02 879.36C1394.12 880.85 1398.02 883.8 1391.21 887.55C1389.58 888.451 1387.75 888.913 1385.89 888.89L1343.56 888.47C1342.62 888.43 1341.73 888.051 1341.06 887.403C1340.38 886.755 1339.96 885.883 1339.88 884.95C1339.51 881.71 1340.16 876.23 1345.34 868.49C1345.63 868.021 1346.07 867.657 1346.58 867.452C1347.09 867.247 1347.66 867.211 1348.19 867.35Z" fill="#FFDC2E"/>
<path d="M1339.82 884.31C1339.82 884.31 1361.41 887.98 1393.99 885.65C1393.35 886.95 1391.23 887.65 1391.23 887.65C1391.23 887.65 1388.39 889.42 1385.91 889L1343.58 888.57C1343.58 888.57 1340 888.74 1339.82 884.31Z" fill="#EAE7DA"/>
<path d="M1369.29 872.32C1369.84 872.32 1370.29 871.846 1370.29 871.26C1370.29 870.675 1369.84 870.2 1369.29 870.2C1368.74 870.2 1368.29 870.675 1368.29 871.26C1368.29 871.846 1368.74 872.32 1369.29 872.32Z" fill="#EAE7DA"/>
<path d="M1373.47 875.08C1374.02 875.08 1374.47 874.605 1374.47 874.02C1374.47 873.435 1374.02 872.96 1373.47 872.96C1372.92 872.96 1372.47 873.435 1372.47 874.02C1372.47 874.605 1372.92 875.08 1373.47 875.08Z" fill="#EAE7DA"/>
<path d="M1378.02 877.5C1378.57 877.5 1379.02 877.025 1379.02 876.44C1379.02 875.854 1378.57 875.38 1378.02 875.38C1377.47 875.38 1377.02 875.854 1377.02 876.44C1377.02 877.025 1377.47 877.5 1378.02 877.5Z" fill="#EAE7DA"/>
<path d="M1383.46 879.61C1384.01 879.61 1384.46 879.136 1384.46 878.55C1384.46 877.965 1384.01 877.49 1383.46 877.49C1382.91 877.49 1382.46 877.965 1382.46 878.55C1382.46 879.136 1382.91 879.61 1383.46 879.61Z" fill="#EAE7DA"/>
<path d="M1375.7 843.51C1377.78 849.1 1380.98 854.204 1385.1 858.51C1385.72 859.197 1386.08 860.084 1386.1 861.01C1386.66 874.18 1388.3 880.14 1388.98 882.08C1389.4 883.242 1389.71 884.44 1389.91 885.66C1390.43 889.06 1390.16 893.9 1383.25 890.43C1381.59 889.593 1380.18 888.343 1379.14 886.8L1355.62 851.59C1355.13 850.796 1354.95 849.852 1355.1 848.932C1355.26 848.013 1355.74 847.18 1356.46 846.59C1358.92 844.46 1363.81 841.9 1373.13 841.82C1373.68 841.789 1374.23 841.936 1374.69 842.24C1375.16 842.545 1375.51 842.99 1375.7 843.51Z" fill="#FFDC2E"/>
<path d="M1357.12 846.21C1357.12 846.21 1366.27 866.12 1386.56 891.71C1385.12 891.91 1383.33 890.57 1383.33 890.57C1383.33 890.57 1380.27 889.21 1379.22 886.94L1355.7 851.73C1355.7 851.73 1353.57 848.87 1357.12 846.21Z" fill="#EAE7DA"/>
<path d="M1385.44 863.199C1385.92 862.869 1386.06 862.231 1385.75 861.775C1385.44 861.319 1384.79 861.217 1384.31 861.547C1383.82 861.877 1383.69 862.515 1384 862.971C1384.31 863.427 1384.95 863.529 1385.44 863.199Z" fill="#EAE7DA"/>
<path d="M1385.51 868.193C1385.99 867.862 1386.13 867.225 1385.82 866.769C1385.51 866.313 1384.87 866.211 1384.38 866.541C1383.9 866.871 1383.76 867.508 1384.07 867.964C1384.38 868.421 1385.03 868.523 1385.51 868.193Z" fill="#EAE7DA"/>
<path d="M1386.07 873.323C1386.55 872.993 1386.69 872.356 1386.38 871.9C1386.07 871.444 1385.42 871.342 1384.94 871.672C1384.46 872.002 1384.32 872.639 1384.63 873.095C1384.94 873.551 1385.58 873.653 1386.07 873.323Z" fill="#EAE7DA"/>
<path d="M1387.39 879.009C1387.87 878.679 1388.01 878.042 1387.7 877.586C1387.39 877.13 1386.75 877.028 1386.26 877.358C1385.78 877.688 1385.64 878.325 1385.95 878.781C1386.26 879.237 1386.91 879.34 1387.39 879.009Z" fill="#EAE7DA"/>
<path d="M722.57 334.61C722.57 334.61 700.93 317.87 690.28 329.29C693.6 339.19 709.44 338 722.57 334.61Z" fill="#CE2525"/>
<path d="M485.76 512.08C485.76 512.08 460.08 500.54 456.3 519.14C463.55 530 476.27 521.78 485.76 512.08Z" fill="#CE2525"/>
<path d="M1729 384.2C1729 384.2 1715.88 371.83 1708.93 380.89C1710.72 388.44 1720.65 387.11 1729 384.2Z" fill="#CE2525"/>
<path d="M949.07 724.28C949.07 724.28 938.92 704.79 927.27 712.09C926.35 721.38 938.34 724.07 949.07 724.28Z" fill="#CE2525"/>
</g>
<defs>
<clipPath id="clip0">
<rect width="1920" height="902.14" fill="white"/>
</clipPath>
</defs>
</svg>
