<svg width="1920" height="540" viewBox="0 0 1920 540" fill="none" xmlns="http://www.w3.org/2000/svg">
<path d="M294.89 92.8098C291.44 96.8098 295.15 102.81 293.78 108.09C291.84 115.55 285.04 132.83 280.7 134.43C277.84 135.43 270.35 133.16 265.62 131.43C264.363 130.975 263.001 130.889 261.697 131.183C260.393 131.478 259.2 132.139 258.26 133.09C254.35 137.01 243.11 141.61 243.26 148.42L230.9 137.8L246 103.43L287.76 73.5898L288 74.9998C288.215 76.8709 288.852 78.6689 289.861 80.2589C290.871 81.8488 292.228 83.1893 293.83 84.1798L297.35 85.4398C297.35 85.4398 300.91 85.8398 294.89 92.8098Z" fill="#FFEBD7"/>
<path d="M243.3 148.46L241.81 145.87C241.81 145.87 252.64 133.07 257.36 131.13C260.563 129.899 263.935 129.164 267.36 128.95L273.31 132.47L278.44 134.71C278.44 134.71 273.44 134.61 263.98 131.14C261.77 130.69 259.19 132.06 258.06 133.14L256.79 134.25L251.22 138.13C251.22 138.13 242.9 143.39 243.3 148.46Z" fill="#FFE4CC"/>
<path d="M250.67 136.71C250.67 136.71 249.99 126.51 252.75 127.08C255.51 127.65 257.6 132.55 257.6 132.55L250.67 136.71Z" fill="#FFE4CC"/>
<path d="M255.47 165.6C255.47 165.6 255.13 162.11 254.28 160.91C253.43 159.71 251.64 155.55 251.81 144.83C251.98 134.11 249.6 124.83 254.28 128.32C257.68 131.72 257 142.14 257 142.14C257 142.14 264 123.55 267.72 133.85C270.28 134.45 272.32 133.68 272.41 137.34C272.86 137.313 273.311 137.387 273.729 137.558C274.146 137.73 274.52 137.993 274.821 138.328C275.123 138.663 275.345 139.063 275.471 139.496C275.598 139.929 275.624 140.385 275.55 140.83C276.001 140.9 276.43 141.076 276.8 141.344C277.17 141.612 277.472 141.964 277.68 142.371C277.888 142.778 277.996 143.229 277.996 143.686C277.996 144.143 277.888 144.593 277.68 145C276.75 147.13 276.83 154.36 273.51 157.64C271.783 159.53 270.83 162 270.84 164.56L268.75 169.34L260.75 168.49L255.47 165.6Z" fill="#FFEBD7"/>
<path d="M235 245.94C235 245.94 242.79 245.32 244.06 248.44C245.33 251.56 248.15 254.89 237.81 262.84C227.47 270.79 146.24 262.84 146.24 262.84L235 245.94Z" fill="#357FC9"/>
<path d="M225.94 257.41C225.94 257.41 259.48 244.11 278.58 254.13C280.394 255.087 281.953 256.466 283.124 258.15C284.295 259.835 285.045 261.776 285.31 263.81C290.07 300.36 274.56 296.27 274.56 296.27L272.05 270.19C272.05 270.19 272.69 267.13 268.53 269.72C264.37 272.31 143.85 356 143.73 279" fill="#4C86CC"/>
<path d="M209.33 136.86C208.889 137.51 208.39 138.119 207.84 138.68C202.78 143.45 180.34 165.68 166.66 196.96C154.37 225.04 144.78 267.9 143.66 276.1C143.457 277.538 143.579 279.003 144.016 280.388C144.454 281.772 145.197 283.041 146.19 284.1C149.29 287.35 155.53 291.26 167.98 292.33C178.569 293.186 189.214 291.609 199.1 287.72C203.018 286.21 206.815 284.405 210.46 282.32C216.63 278.78 225.1 259.59 230.58 246.83C233.23 240.652 236.529 234.772 240.42 229.29L241.11 228.29C241.137 228.229 241.178 228.176 241.231 228.136C241.283 228.095 241.345 228.068 241.41 228.057C241.476 228.046 241.543 228.051 241.606 228.073C241.669 228.095 241.725 228.131 241.77 228.18C244.77 231.37 264.61 251.7 273.07 251.7C277.07 251.7 278.34 240.48 278.88 230.26C279.65 215.68 277.93 202.74 274.49 188.55C272.617 180.69 271.257 172.717 270.42 164.68C270.416 164.624 270.398 164.569 270.367 164.522C270.336 164.474 270.293 164.436 270.243 164.41C270.193 164.384 270.137 164.371 270.08 164.373C270.024 164.375 269.969 164.391 269.92 164.42C266.18 166.71 255.66 165.62 255.66 165.62L254.56 165.45C254.56 165.45 259.92 182.64 259.92 195.92C260.09 198.98 259.92 205.08 259.92 205.08C259.92 205.08 253.79 181.45 251.58 167.83C250.953 163.884 249.907 160.015 248.46 156.29C246.29 150.827 242.221 146.331 237 143.63C228 139 212.8 132.09 209.33 136.86Z" fill="#282828"/>
<path d="M241.58 146.53C241.58 146.53 216 166 212.79 171.43C205.21 184.53 175.79 172.96 185.98 157.51C196.17 142.06 202.06 140.45 202.06 140.45C202.06 140.45 208.43 138.31 210.06 135.25C211.69 132.19 241.58 146.53 241.58 146.53Z" fill="#E02421"/>
<path d="M241.58 146.53L229.51 135.17C229.51 135.17 217.65 130.31 210.37 136.86C208.64 138 241.58 146.53 241.58 146.53Z" fill="#282828"/>
<path d="M241.55 146.51C241.55 146.51 199.12 153.29 207.1 138.06L214.92 133.47L228.02 136.36C228.02 136.36 226.76 138.72 241.55 146.51Z" fill="#CE2121"/>
<path d="M287.78 73.6201C287.78 73.6201 284.59 53.1301 281.08 48.0701C277.18 42.4601 246.01 103.45 246.01 103.45L287.78 73.6201Z" fill="#FFEBD7"/>
<path d="M277.63 134.59C276.37 134.15 275.11 133.72 273.88 133.22C272.65 132.72 271.43 132.16 270.25 131.52C267.846 130.308 265.619 128.774 263.63 126.96C262.642 126.027 261.769 124.98 261.03 123.84C260.668 123.259 260.36 122.647 260.11 122.01C259.819 121.36 259.682 120.651 259.71 119.94C259.97 117.29 260.24 114.65 260.59 112.01C260.59 114.67 260.42 117.32 260.29 120.01C260.31 120.632 260.453 121.243 260.71 121.81C260.954 122.404 261.255 122.974 261.61 123.51C262.329 124.611 263.182 125.619 264.15 126.51C266.08 128.299 268.223 129.844 270.53 131.11C272.8 132.37 275.22 133.45 277.63 134.59Z" fill="#FFE4CC"/>
<path d="M280.82 47.8301C280.82 47.8301 296.34 83.8301 275.71 99.3501C267.13 106.67 267.87 132.48 267.87 132.48L265.35 131.36C265.35 131.36 263.72 109.36 268.96 97.3601C281.08 48.0701 280.82 47.8301 280.82 47.8301Z" fill="#FFE4CC"/>
<path d="M267.73 23.4702C267.73 23.4702 298.4 68.6202 277.35 94.1002C276.511 95.192 275.616 96.24 274.67 97.2402C263.25 108.6 266.27 155.51 266.27 155.51L265.27 140.67C264.303 125.895 265.591 111.058 269.09 96.6702C271.84 85.1102 273.65 65.6702 269.19 34.9602" fill="#7F6144"/>
<path d="M214.87 141.2C214.87 141.2 209.21 142.81 209.95 150.14C210.44 147.54 210.53 144 214.87 141.2Z" fill="#7A593D"/>
<path d="M271.4 91.2398C275.17 83.3698 280.15 72.5198 280.51 54.2398C280.574 51.5639 280.267 48.892 279.6 46.2998C277.13 36.6198 268.44 12.8998 242.89 12.9998C210.8 13.0798 186.18 51.9298 184.58 85.7298C182.98 119.53 188.42 153.16 233.12 139.25C240.34 136.59 245.97 129.39 248.91 124.9C250.392 122.638 251.016 119.921 250.67 117.24L249.86 111C249.745 110.248 249.878 109.479 250.239 108.81C250.6 108.141 251.169 107.607 251.86 107.29H251.94C252.527 107.054 253.183 107.054 253.77 107.29C254.458 107.529 255.188 107.627 255.915 107.577C256.642 107.528 257.351 107.331 258 107C261.23 105.55 266.4 101.67 271.4 91.2398Z" fill="#7F6144"/>
<path d="M196 44.3198C196 44.3198 208.71 50.9098 200.78 67.0898C192.85 83.2698 186.51 64.2698 186.51 64.2698" stroke="#1C1C1C" stroke-width="4" stroke-miterlimit="10"/>
<path d="M196.47 45.6498C196.47 45.6498 185.9 9.06982 165.36 33.1298C144.82 57.1898 159.7 229.3 159.7 229.3L165.61 208.45L166.42 222.5L169.73 208.42L169.86 233.12L177.78 180.76L181.67 218.36C181.67 218.36 180.93 63.6198 194.84 69.8698C200.1 71.7598 201.64 50.1498 196.47 45.6498Z" fill="#7F6144"/>
<path d="M180.49 25.09C180.49 25.09 158.56 12.64 147.41 45.52C152.05 37.7 160 16.92 178 26.07L180.49 25.09Z" fill="#7F6144"/>
<path d="M195.34 42.4002C195.34 42.4002 193.77 23.3202 183.66 19.4902C186.618 23.4199 188.859 27.8412 190.28 32.5502L195.34 42.4002Z" fill="#7F6144"/>
<path d="M155.94 72.21L150.48 148.19L154.75 121.97L155.94 72.21Z" fill="#7F6144"/>
<path d="M210.25 142C210.25 142 186.39 145 184.99 108.57C186.39 117.06 186.85 140.07 210.25 142Z" fill="#7F6144"/>
<path d="M214.82 142C213.12 142.077 211.498 142.735 210.224 143.863C208.95 144.991 208.102 146.522 207.82 148.2C208.94 146.16 209.91 143.33 214.82 142Z" fill="#7F6144"/>
<path d="M212.25 140.45C212.25 140.45 215.25 144.45 212.25 147.96C212.83 146.29 214 144.35 212.25 140.45Z" fill="#7F6144"/>
<path d="M212.26 142.35C212.26 142.35 198.16 149.92 196.65 136.44C197.85 140 198.38 147.34 212.26 142.35Z" fill="#7F6144"/>
<path d="M256.83 108.36C256.83 108.36 247.38 103.68 249.83 113.57C252.28 123.46 258.7 119.7 258.7 119.7" fill="#FFEBD7"/>
<path d="M256.83 108.36C255.861 108.001 254.855 107.753 253.83 107.62C252.864 107.412 251.855 107.561 250.99 108.04C250.637 108.339 250.361 108.718 250.187 109.147C250.013 109.575 249.945 110.04 249.99 110.5C250.01 111.514 250.158 112.522 250.43 113.5C250.822 115.501 251.752 117.358 253.12 118.87C253.879 119.553 254.824 119.996 255.835 120.144C256.845 120.291 257.877 120.137 258.8 119.7C257.886 120.303 256.815 120.623 255.72 120.62C254.585 120.587 253.494 120.175 252.62 119.45C250.998 117.928 249.896 115.933 249.47 113.75C249.179 112.681 249.038 111.577 249.05 110.47C249.069 109.884 249.187 109.306 249.4 108.76C249.63 108.181 250.049 107.698 250.59 107.39C251.631 106.898 252.817 106.809 253.92 107.14C254.944 107.404 255.924 107.815 256.83 108.36V108.36Z" fill="#FFE4CC"/>
<path d="M256.86 113C256.86 113 254.48 112.73 256 114.74C256.235 114.816 256.43 114.981 256.542 115.201C256.655 115.42 256.676 115.675 256.6 115.91C256.664 116.016 256.756 116.102 256.865 116.159C256.975 116.217 257.098 116.243 257.221 116.236C257.344 116.229 257.464 116.188 257.566 116.118C257.668 116.049 257.749 115.952 257.8 115.84C258.42 115 256.86 113 256.86 113Z" fill="#FFE4CC"/>
<path d="M251.3 113C251.611 112.296 252.076 111.671 252.66 111.17C252.972 110.906 253.337 110.712 253.73 110.6C254.154 110.519 254.593 110.59 254.97 110.8C255.321 111.011 255.627 111.29 255.87 111.62C256.08 111.936 256.26 112.271 256.41 112.62C256.554 112.972 256.674 113.332 256.77 113.7C256.85 114.07 256.94 114.44 257 114.81C256.67 114.13 256.42 113.43 256.06 112.81C255.888 112.493 255.697 112.185 255.49 111.89C255.279 111.626 255.021 111.402 254.73 111.23C254.434 111.084 254.101 111.028 253.774 111.071C253.446 111.114 253.139 111.252 252.89 111.47C252.293 111.905 251.758 112.42 251.3 113V113Z" fill="#FFE4CC"/>
<path d="M592 430.73C589.14 427.49 586.62 424.22 584.16 420.82C581.7 417.42 579.4 413.96 577.22 410.4C572.841 403.313 569.058 395.874 565.91 388.16C564.33 384.312 562.955 380.383 561.79 376.39C560.603 372.407 559.658 368.357 558.96 364.26C557.516 356.102 557.206 347.783 558.04 339.54C557.611 347.751 558.318 355.982 560.14 364C561.037 367.993 562.169 371.93 563.53 375.79C564.873 379.652 566.418 383.441 568.16 387.14C571.621 394.533 575.692 401.624 580.33 408.34C582.63 411.713 585.053 414.983 587.6 418.15C590.13 421.31 592.83 424.44 595.6 427.25L592 430.73Z" fill="#E02421"/>
<path d="M591.26 426.36C594.43 424.05 597.61 421.36 600.62 418.71C603.63 416.06 606.62 413.17 609.42 410.24C615.102 404.378 620.29 398.057 624.93 391.34C627.248 387.974 629.394 384.493 631.36 380.91C633.344 377.329 635.11 373.633 636.65 369.84C639.795 362.237 641.868 354.234 642.81 346.06C642.271 354.326 640.588 362.477 637.81 370.28C636.44 374.204 634.833 378.041 633 381.77C631.192 385.515 629.189 389.164 627 392.7C622.621 399.792 617.657 406.505 612.16 412.77C609.433 415.923 606.58 418.967 603.6 421.9C600.6 424.9 597.6 427.65 594.23 430.37L591.26 426.36Z" fill="#E02421"/>
<path d="M591.42 429.24C590.42 426.04 589.7 423 589.02 419.86C588.34 416.72 587.82 413.61 587.39 410.46C585.616 397.927 585.337 385.228 586.56 372.63C586.79 369.49 587.29 366.38 587.73 363.27C587.92 361.71 588.26 360.18 588.55 358.63L589.45 354.01L588.86 358.68C588.67 360.24 588.44 361.78 588.35 363.35C588.12 366.47 587.83 369.58 587.81 372.71C587.605 378.945 587.785 385.187 588.35 391.4C588.877 397.587 589.789 403.736 591.08 409.81C591.7 412.81 592.46 415.81 593.27 418.81C594.08 421.81 595.04 424.81 596.11 427.49L591.42 429.24Z" fill="#E02421"/>
<path d="M591.3 428.6C592.98 419.13 594.49 409.6 595.87 400.02C597.25 390.44 598.47 380.89 599.49 371.29C600.51 361.69 601.31 352.06 601.65 342.41C601.82 337.59 601.86 332.76 601.65 327.94C601.53 323.107 600.9 318.301 599.77 313.6C601.107 318.265 601.948 323.059 602.28 327.9C602.69 332.73 602.87 337.58 602.9 342.43C602.97 352.13 602.58 361.82 601.98 371.5C601.38 381.18 600.55 390.83 599.59 400.5C598.63 410.17 597.52 419.77 596.23 429.41L591.3 428.6Z" fill="#E02421"/>
<path d="M606 354.14C603.83 355.47 600.63 358.2 600.69 362.7C604.44 360.97 607.14 358.44 607.83 355.51C608.06 354.64 606.79 353.67 606 354.14Z" fill="#E02421"/>
<path d="M633.51 360.23C633.51 362.78 634.18 366.94 638.06 369.23C638.53 365.13 637.78 361.51 635.63 359.4C635.446 359.269 635.232 359.186 635.008 359.158C634.784 359.131 634.556 359.159 634.345 359.242C634.135 359.324 633.948 359.457 633.803 359.63C633.657 359.803 633.556 360.009 633.51 360.23V360.23Z" fill="#E02421"/>
<path d="M642.59 370.11C640.1 370.66 636.18 372.2 634.77 376.48C638.88 376.07 642.25 374.56 643.87 372.01C644.35 371.25 643.46 369.92 642.59 370.11Z" fill="#E02421"/>
<path d="M632.87 394.57C630.49 393.67 626.37 392.82 622.87 395.63C626.53 397.53 630.18 398.11 632.87 396.86C633.06 396.735 633.216 396.565 633.324 396.365C633.431 396.166 633.488 395.942 633.488 395.715C633.488 395.488 633.431 395.264 633.324 395.064C633.216 394.865 633.06 394.695 632.87 394.57V394.57Z" fill="#E02421"/>
<path d="M590 391.83C591 394.19 593.13 397.83 597.59 398.46C596.49 394.46 594.43 391.46 591.65 390.25C590.82 389.91 589.66 391 590 391.83Z" fill="#E02421"/>
<path d="M595.54 323.74C596.22 326.19 597.96 330.02 602.31 331.21C601.68 327.13 599.99 323.83 597.37 322.36C596.58 321.92 595.3 322.88 595.54 323.74Z" fill="#E02421"/>
<path d="M609.15 326.33C606.72 327.09 602.94 328.95 601.9 333.33C605.96 332.57 609.19 330.78 610.58 328.11C611 327.32 610 326.07 609.15 326.33Z" fill="#E02421"/>
<path d="M581.05 359.41C581.71 361.86 583.43 365.71 587.77 366.92C587.17 362.84 585.5 359.53 582.89 358.04C582.11 357.6 580.82 358.55 581.05 359.41Z" fill="#E02421"/>
<path d="M591.79 368.28C589.69 369.72 586.63 372.6 586.91 377.1C590.57 375.19 593.14 372.53 593.69 369.57C593.695 369.342 593.642 369.116 593.537 368.914C593.432 368.711 593.279 368.538 593.09 368.41C592.901 368.282 592.683 368.203 592.456 368.18C592.229 368.157 592 368.192 591.79 368.28V368.28Z" fill="#E02421"/>
<path d="M574.2 388.91C572.83 391.05 571.14 394.91 573.2 398.91C575.81 395.72 577.14 392.27 576.48 389.33C576.394 389.115 576.255 388.925 576.076 388.779C575.897 388.632 575.684 388.533 575.456 388.491C575.228 388.449 574.994 388.465 574.774 388.539C574.554 388.612 574.357 388.74 574.2 388.91Z" fill="#E02421"/>
<path d="M0 340.74C0 340.74 100.88 313.44 124.41 295.59C128.573 292.348 133.18 289.721 138.09 287.79C175.2 273.65 250.09 270.53 250.09 270.53C250.09 270.53 355.27 267 436.25 324.21C440.35 327.11 444.25 330.28 448.12 333.47C462.81 345.55 494.45 356.32 494.45 356.32C494.45 356.32 540.4 373.17 577.17 412.23C585.95 421.41 604.9 426.01 621.06 428.32C654.066 432.926 686.605 440.422 718.3 450.72C745.3 459.58 775.76 471 801.6 484.23C864.4 516.4 896.6 540 896.6 540H0V340.74Z" fill="#333333"/>
<path d="M269.44 95C269.44 95 282.27 67.74 263.77 36.48C263.77 36.48 275.8 59 269.44 95Z" fill="#7C5D43"/>
<path d="M192.28 70.6398C192.383 70.4075 192.534 70.2001 192.725 70.032C192.915 69.8639 193.14 69.739 193.383 69.6658C193.626 69.5927 193.882 69.573 194.134 69.6082C194.385 69.6434 194.626 69.7326 194.84 69.8698C195.93 70.4598 197.53 68.7598 197.53 68.7598C196.862 70.0822 195.719 71.1037 194.33 71.6198C194.132 71.7014 193.919 71.7405 193.705 71.7346C193.491 71.7287 193.28 71.678 193.087 71.5856C192.894 71.4932 192.722 71.3613 192.583 71.1984C192.444 71.0354 192.341 70.8451 192.28 70.6398V70.6398Z" fill="#7A593D"/>
<path d="M185 50.7798C185 50.7798 155.36 20.7098 165.62 208.45C166.56 185 159.52 40.2498 185 50.7798Z" fill="#7C5D43"/>
<path d="M195.81 59.0001C195.81 59.0001 169.72 28.5601 177.81 180.8C178.2 151.43 173.18 47.0001 195.81 59.0001Z" fill="#7C5D43"/>
<path d="M195 134.59C195 134.59 176.71 101 199.7 81.3799C194.27 88.4699 181 99.5699 195 134.59Z" fill="#7C5D43"/>
<path d="M190.39 74.1699C191.064 74.738 191.847 75.1633 192.69 75.4199C191.91 78.8799 186.42 94.1899 184.99 108.57C185.639 96.952 187.448 85.428 190.39 74.1699V74.1699Z" fill="#7C5D43"/>
<path d="M196.65 90.25C193.867 95.5038 192.342 101.332 192.196 107.276C192.051 113.22 193.288 119.116 195.81 124.5C194 116.85 189.49 108 196.65 90.25Z" fill="#7C5D43"/>
</svg>
