<svg width="1920" height="432" viewBox="0 0 1920 432" fill="none" xmlns="http://www.w3.org/2000/svg">
<path d="M1559.33 36.21H1553.15V87.14H1559.33V36.21Z" fill="#A38360"/>
<path d="M1595.38 0.669922H1517.51V42.9999H1595.38V0.669922Z" fill="#A38360"/>
<path d="M1572.38 28.1799L1558.33 12.4399L1542.51 28.27" stroke="#333333" stroke-width="4" stroke-miterlimit="10"/>
<path d="M2.74 106L71.42 85C103.935 75.0899 138.229 72.4408 171.88 77.24L351.24 102.79C369.727 105.419 388.525 104.929 406.85 101.34C423.058 98.163 439.598 97.0075 456.09 97.9001L558.6 103.44C599.397 105.64 640.284 101.319 679.72 90.6401C730.363 76.92 782.602 69.9795 835.07 70H1331C1340.4 69.9998 1349.68 72.137 1358.13 76.25C1374.45 84.2065 1392.63 87.5931 1410.72 86.05L1480.88 80.05C1503.34 78.1411 1525.97 80.079 1547.78 85.7801C1554.27 87.4728 1561.11 87.3169 1567.52 85.3301C1600.16 75.1807 1634.44 71.329 1668.52 73.98L1913.6 92.98C1915.33 93.1135 1916.95 93.8953 1918.13 95.1689C1919.31 96.4426 1919.96 98.1144 1919.96 99.85V432H0V109.67C0.00511622 108.846 0.27385 108.045 0.766876 107.385C1.2599 106.724 1.95134 106.239 2.74 106Z" fill="#282828"/>
<path d="M1920 432H0.000175159V91.7999C-0.00773925 90.9488 0.252733 90.1167 0.744597 89.422C1.23646 88.7273 1.93471 88.2052 2.74018 87.9299L71.4202 65.77C103.826 55.3221 138.21 52.5189 171.88 57.58L351.24 84.58C369.725 87.3423 388.552 86.8074 406.85 82.9999C423.035 79.6514 439.589 78.4311 456.09 79.3699L558.6 85.2199C599.445 87.5349 640.389 82.968 679.72 71.71C730.237 57.2542 782.526 49.9234 835.07 49.9299H1331C1338.91 49.9299 1349.74 53.5699 1355.3 55.2199C1361.43 57.0199 1360.3 56.5199 1366.56 57.8799C1388.56 62.6899 1448.98 84.02 1495.13 176.88C1530.45 248 1612.91 283.3 1671.23 295C1699.14 300.513 1727.65 302.368 1756.04 300.52C1783.77 298.81 1830.86 301.38 1848.24 335.28C1873.52 384.59 1919.96 416.13 1919.96 416.13L1920 432Z" fill="#333333"/>
</svg>
