<svg width="78" height="37" viewBox="0 0 78 37" fill="none" xmlns="http://www.w3.org/2000/svg">
<path d="M76.9665 1.38751C77.0174 1.31717 77.0467 1.22886 77.0496 1.13673C77.0525 1.04461 77.0289 0.954003 76.9826 0.879446C76.9363 0.804889 76.87 0.750697 76.7943 0.725558C76.7185 0.700419 76.6378 0.705788 76.565 0.740805C73.0011 1.87745 53.1404 7.71743 42.0304 4.52308C29.08 0.838791 11.0096 1.79906 0 30.1367C12.917 46.618 59.8833 30.2935 76.9665 1.38751Z" fill="#333333"/>
<path d="M76.5654 0.740776C73.2191 3.34721 69.6217 5.71848 66.0076 7.93297C62.3991 10.1686 58.6967 12.1897 54.9144 13.9885C51.1138 15.8119 47.1979 17.2861 43.2021 18.3979C39.1632 19.6222 34.9476 19.8226 30.8372 18.9858C26.7035 18.3927 22.5087 18.9431 18.5895 20.5928C14.6222 22.2555 10.9101 24.6577 7.59668 27.7066C9.13478 25.9911 10.8164 24.4613 12.6162 23.1404C14.4451 21.7879 16.3844 20.6522 18.4055 19.7501C20.4041 18.8218 22.4868 18.1643 24.613 17.7904C26.7559 17.4473 28.9286 17.4473 31.0715 17.7904C35.0192 18.5013 39.049 18.268 42.9177 17.1045C46.8572 16.0621 50.7225 14.6666 54.4794 12.9303C58.244 11.2253 61.992 9.36357 65.6563 7.32545C69.3205 5.28734 73.0015 3.05325 76.5654 0.740776Z" fill="#282828"/>
<path d="M27.9925 18.5351C27.5501 17.7688 27.0397 17.0593 26.4699 16.4186C25.8995 15.6902 25.2659 15.0334 24.5792 14.4589C23.9025 13.9124 23.165 13.4772 22.3873 13.1655C21.5934 12.8423 20.7663 12.6446 19.9277 12.5776C20.7807 12.5193 21.6364 12.5984 22.471 12.8127C23.3117 13.0277 24.1266 13.3634 24.8971 13.8122C25.6764 14.2772 26.416 14.8284 27.1057 15.4584C27.8058 16.0947 28.4452 16.8174 29.0132 17.614L27.9925 18.5351Z" fill="#282828"/>
<path d="M49.3761 15.6151C49.4428 16.6654 49.4428 17.72 49.3761 18.7703C49.3534 19.2905 49.2974 19.808 49.2088 20.3185C49.1543 20.8466 48.9681 21.3443 48.6734 21.7491C48.8665 21.3011 48.9476 20.7985 48.9076 20.2989C48.8832 19.7993 48.8329 19.3019 48.757 18.8095C48.5929 17.8337 48.3749 16.8714 48.1045 15.9287L49.3761 15.6151Z" fill="#282828"/>
</svg>
