<svg width="78" height="37" viewBox="0 0 78 37" fill="none" xmlns="http://www.w3.org/2000/svg">
<path d="M76.9665 1.38751C77.0174 1.31717 77.0467 1.22886 77.0496 1.13673C77.0525 1.04461 77.0289 0.954003 76.9826 0.879446C76.9363 0.804889 76.87 0.750697 76.7943 0.725558C76.7185 0.700419 76.6378 0.705788 76.565 0.740805C73.0011 1.87745 53.1404 7.71743 42.0304 4.52308C29.08 0.838791 11.0096 1.79906 0 30.1367C12.917 46.618 59.8833 30.2935 76.9665 1.38751Z" fill="#E02421"/>
<path d="M76.5649 0.740723C73.2186 3.34716 69.6212 5.71842 66.0071 7.93291C62.3986 10.1685 58.6962 12.1896 54.9139 13.9885C51.1134 15.8118 47.1974 17.2861 43.2016 18.3978C39.1627 19.6222 34.9471 19.8226 30.8368 18.9858C26.7031 18.3927 22.5082 18.943 18.589 20.5927C14.6217 22.2554 10.9096 24.6576 7.59619 27.7065C9.13429 25.991 10.816 24.4613 12.6158 23.1404C14.4446 21.7879 16.3839 20.6522 18.405 19.7501C20.4036 18.8217 22.4863 18.1642 24.6125 17.7903C26.7554 17.4472 28.9281 17.4472 31.071 17.7903C35.0187 18.5013 39.0485 18.2679 42.9172 17.1044C46.8567 16.0621 50.722 14.6666 54.4789 12.9302C58.2436 11.2253 61.9915 9.36351 65.6558 7.3254C69.32 5.28729 73.0011 3.0532 76.5649 0.740723Z" fill="#D62222"/>
<path d="M27.9925 18.5352C27.5501 17.7688 27.0397 17.0594 26.4699 16.4187C25.8995 15.6903 25.2659 15.0335 24.5792 14.459C23.9025 13.9124 23.165 13.4772 22.3873 13.1656C21.5934 12.8424 20.7663 12.6447 19.9277 12.5776C20.7807 12.5194 21.6364 12.5985 22.471 12.8128C23.3117 13.0278 24.1266 13.3635 24.8971 13.8123C25.6764 14.2773 26.416 14.8285 27.1057 15.4584C27.8058 16.0948 28.4452 16.8175 29.0132 17.6141L27.9925 18.5352Z" fill="#D62222"/>
<path d="M49.3756 15.6152C49.4423 16.6655 49.4423 17.7201 49.3756 18.7704C49.3529 19.2906 49.297 19.8081 49.2083 20.3186C49.1539 20.8467 48.9676 21.3444 48.6729 21.7492C48.866 21.3012 48.9472 20.7986 48.9071 20.299C48.8827 19.7994 48.8324 19.302 48.7565 18.8096C48.5924 17.8338 48.3744 16.8715 48.104 15.9288L49.3756 15.6152Z" fill="#D62222"/>
</svg>
