<svg xmlns="http://www.w3.org/2000/svg" viewBox="0 0 198.4 128.25"><defs><style>.cls-1{fill:#333;}.cls-2{fill:#282828;}</style></defs><g id="Calque_2" data-name="Calque 2"><g id="Calque_1-2" data-name="Calque 1"><path class="cls-1" d="M198.33,1.36A1,1,0,0,0,196.94.12c-9.28,5.08-61.34,32.18-94.18,32C64.52,31.9,14.66,46.22,0,120.81,45.44,151.67,167.17,81.55,198.33,1.36Z"/><path class="cls-2" d="M196.94.12q-12.45,12.29-25.87,23.55c-8.94,7.5-18.15,14.69-27.71,21.38a228.41,228.41,0,0,1-30,18,111.68,111.68,0,0,1-16.27,6.54,62.05,62.05,0,0,1-17.26,3h0A67.62,67.62,0,0,0,62.29,76.8,73.75,73.75,0,0,0,54,80.53a82.75,82.75,0,0,0-7.79,4.63A104.82,104.82,0,0,0,32.12,96.52a100.24,100.24,0,0,0-12,13.61,99.58,99.58,0,0,1,11.82-13.8A96.57,96.57,0,0,1,46,84.8a82.46,82.46,0,0,1,7.81-4.7,73,73,0,0,1,8.29-3.79A67.79,67.79,0,0,1,79.79,72h0A61.85,61.85,0,0,0,96.89,69a121.83,121.83,0,0,0,16.16-6.52,225.73,225.73,0,0,0,30-17.84c9.58-6.64,18.81-13.78,27.77-21.23S188.55,8.22,196.94.12Z"/><path class="cls-2" d="M72.49,73.71a35.51,35.51,0,0,0-5.91-4A36,36,0,0,0,60,66.82a28,28,0,0,0-7.08-1.29l-1.81-.07-1.8.12-.9.07-.9.16-1.78.31,1.78-.36.89-.18.9-.09,1.81-.17,1.82,0a28.59,28.59,0,0,1,7.17,1.12A37.39,37.39,0,0,1,73,73.14Z"/><path class="cls-2" d="M128.27,54.21a58,58,0,0,1,2.52,7,28.8,28.8,0,0,1,.76,3.67,6.87,6.87,0,0,1-.35,3.68,6.76,6.76,0,0,0,.16-3.65,27.83,27.83,0,0,0-.93-3.59,56,56,0,0,0-2.84-6.84Z"/></g></g></svg>