<svg width="214" height="154" viewBox="0 0 214 154" fill="none" xmlns="http://www.w3.org/2000/svg">
<g clip-path="url(#clip0)">
<path d="M31.8617 88.6331C25.5993 88.6331 20.0769 87.1645 15.2947 84.2272C10.5124 81.29 6.76631 77.1975 4.05637 71.9497C1.35212 66.7019 0 60.6794 0 53.8822C0 48.2077 0.911854 43.2578 2.73556 39.0327C4.42681 34.9989 6.96159 31.3846 10.1651 28.439C13.2387 25.634 16.8244 23.4653 20.7202 22.0551C24.6402 20.6336 28.7742 19.9126 32.9377 19.9243C36.6888 19.9073 40.4286 20.34 44.0793 21.2132C47.7232 22.1213 51.2615 23.4194 54.6344 25.0856C54.1641 27.5192 53.8701 29.9844 53.7548 32.4614C53.6238 35.068 53.5584 37.7246 53.5584 40.4311C52.5796 40.8645 51.5424 41.1473 50.4812 41.2702C49.2992 41.4348 48.1075 41.5176 46.9144 41.5182C46.7816 37.2315 46.162 33.8983 45.0556 31.5185C43.9493 29.1387 42.4187 27.4856 40.4641 26.559C38.5075 25.6363 36.2303 25.174 33.6323 25.1721C29.983 25.1721 26.8717 25.8978 24.2984 27.3491C21.7739 28.7528 19.6245 30.7577 18.0359 33.1909C16.3945 35.7396 15.2039 38.5584 14.5175 41.521C13.7538 44.697 13.3715 47.9549 13.3789 51.2237C13.3789 56.9002 14.2746 62.048 16.0661 66.6673C17.8575 71.2865 20.4726 74.9119 23.9113 77.5435C27.3271 80.1847 31.5458 81.5053 36.5671 81.5053C39.5168 81.4816 42.4466 81.0142 45.2606 80.1184C48.2443 79.1999 51.1012 77.9026 53.7633 76.2575C54.3408 76.7241 54.8086 77.315 55.1325 77.9875C55.4896 78.6563 55.7522 79.3727 55.9125 80.1155C52.6599 82.7431 49.0367 84.8619 45.1638 86.4013C41.3778 87.8891 36.9438 88.6331 31.8617 88.6331Z" fill="#A38360"/>
<path d="M70.077 32.0061C70.1137 30.7011 69.9485 29.3984 69.5874 28.1452C69.4155 27.6445 69.1449 27.1843 68.7921 26.7928C68.4393 26.4012 68.0116 26.0863 67.535 25.8673C66.4913 25.3425 64.8944 25.0455 62.7443 24.9763C62.7409 24.0978 62.8066 23.2204 62.9407 22.3524C63.0577 21.5663 63.3235 20.8105 63.7235 20.1264C65.6716 20.1111 67.6158 19.9454 69.539 19.6305C71.5347 19.329 73.5095 18.8995 75.4514 18.3445C77.2732 17.8178 78.6092 17.2901 79.4594 16.7615C80.2033 17.0477 80.8368 17.5682 81.2669 18.2464C81.7528 18.973 81.9966 20.062 81.9985 21.5133V34.5809H70.077V32.0061ZM112.206 74.0808C112.206 77.4486 112.613 79.7265 113.428 80.9144C114.242 82.1024 115.594 82.6964 117.484 82.6964C117.749 83.449 117.93 84.2296 118.022 85.0233C118.128 86.0259 118.176 87.0339 118.167 88.0422C116.732 87.9077 114.957 87.825 112.841 87.7942C110.725 87.7635 108.623 87.7471 106.536 87.7452C105.17 87.7452 103.652 87.7596 101.981 87.7942C100.311 87.8288 98.7563 87.8577 97.2903 87.8923C95.8243 87.9269 94.569 87.973 93.5271 88.0422C93.5271 86.9869 93.5594 86.0133 93.6239 85.1213C93.676 84.294 93.8408 83.478 94.1135 82.6964C96.201 82.6964 97.7486 82.0524 98.7563 80.7645C99.764 79.4766 100.269 77.117 100.271 73.6857V61.3072C100.271 56.886 99.5372 53.8671 98.0703 52.2505C96.6033 50.6338 94.6326 49.8246 92.1579 49.8226C90.4007 49.8432 88.6994 50.4514 87.3188 51.5527C85.7854 52.706 84.5139 54.4716 83.5043 56.8495C82.4948 59.2274 81.99 62.2636 81.99 65.9582V74.075C81.99 77.3774 82.4464 79.638 83.3592 80.8568C84.272 82.0755 85.8357 82.6868 88.0503 82.6906C88.3707 83.4626 88.5686 84.281 88.6367 85.1156C88.7013 85.9402 88.7335 86.9138 88.7335 88.0364C87.8226 87.9672 86.6337 87.9173 85.1667 87.8865C83.6998 87.8558 82.1684 87.8231 80.5724 87.7885C78.9764 87.7539 77.4582 87.7375 76.0178 87.7395C74.6477 87.7395 73.1162 87.7558 71.4235 87.7885C69.7307 87.8211 68.1177 87.8538 66.5843 87.8865C65.049 87.9192 63.7946 87.9692 62.8211 88.0364C62.8165 87.011 62.8649 85.986 62.9663 84.9656C63.0349 84.1938 63.1828 83.4314 63.4075 82.6906C65.9467 82.6906 67.6897 82.0793 68.6367 80.8568C69.5836 79.6342 70.0581 77.3736 70.06 74.075V57.3512L81.9814 46.4606C81.9729 47.3711 81.9082 48.2802 81.7879 49.1825C81.6504 50.2699 81.4296 51.3448 81.1275 52.3975L82.1067 50.4166C82.4465 49.7362 82.8734 49.1041 83.3762 48.5366C84.6155 47.02 86.4401 45.5513 88.8502 44.1308C91.2603 42.7102 94.0623 42.0009 97.2562 42.0028C99.7837 41.9877 102.284 42.5278 104.586 43.5858C106.899 44.6736 108.826 46.454 110.108 48.6866C111.507 51.0279 112.207 54.1785 112.209 58.1384L112.206 74.0808ZM70.077 31.118H81.9985V46.4635L70.077 59.5311V31.118Z" fill="#A38360"/>
<path d="M123.749 123.104C123.749 122.787 123.618 122.654 123.362 122.709C123.079 122.766 122.801 122.845 122.531 122.946L121.646 123.263C121.361 123.367 121.164 123.315 121.09 123.104C120.896 123.39 120.674 123.656 120.427 123.897C120.151 124.211 119.959 124.593 119.872 125.004C119.724 125.004 119.653 124.978 119.653 124.927C119.653 124.875 119.579 124.849 119.431 124.849C119.653 124.532 119.653 124.373 119.431 124.373C119.357 124.426 119.297 124.498 119.258 124.581C119.219 124.665 119.202 124.757 119.209 124.849C119.209 125.06 119.283 125.06 119.431 124.849C119.207 125.164 118.925 125.433 118.6 125.639C118.218 125.915 117.928 126.302 117.769 126.749C117.62 126.642 117.549 126.561 117.549 126.512C117.549 126.463 117.475 126.59 117.327 126.907C117.327 127.118 117.398 127.144 117.549 126.985C117.7 126.827 117.834 126.853 117.991 127.066C118.356 126.404 118.892 125.856 119.542 125.48C120.144 125.158 120.774 124.892 121.424 124.687C122.09 124.477 122.733 124.292 123.362 124.134C124.044 123.944 124.671 123.591 125.19 123.104C124.905 124.258 124.318 124.978 123.482 125.244C122.685 125.476 121.947 125.881 121.321 126.432C121.395 126.853 121.506 126.933 121.654 126.668C121.802 126.403 121.876 126.38 121.876 126.59C121.874 126.705 121.842 126.818 121.785 126.917C121.728 127.017 121.646 127.1 121.549 127.158C121.511 127.197 121.464 127.227 121.413 127.245C121.362 127.262 121.307 127.268 121.253 127.26C121.2 127.252 121.148 127.232 121.104 127.201C121.059 127.17 121.023 127.129 120.997 127.08C120.487 127.603 119.913 128.055 119.289 128.427C118.645 128.8 117.957 129.091 117.242 129.292C117.094 129.292 117.02 129.503 117.02 129.926C116.956 129.93 116.892 129.917 116.834 129.89C116.775 129.862 116.725 129.82 116.687 129.768C116.536 129.875 116.405 130.009 116.3 130.163L116.015 130.558C115.818 130.551 115.623 130.607 115.46 130.719C115.332 130.816 115.178 130.871 115.019 130.875C114.813 131.067 114.627 131.279 114.464 131.509C114.278 131.756 114.054 131.97 113.8 132.144C113.06 132.144 112.359 132.487 111.697 133.173C111.175 133.757 110.532 134.218 109.815 134.523C109.516 135.258 109.095 135.708 108.54 135.866C108.253 135.955 107.99 136.108 107.769 136.314C107.549 136.52 107.377 136.774 107.267 137.057C106.626 137.257 106.04 137.609 105.56 138.084C105.09 138.546 104.663 139.051 104.284 139.592C103.695 139.485 103.214 139.773 102.847 140.457C102.48 141.14 101.993 141.538 101.406 141.645C101.411 141.844 101.368 142.042 101.281 142.221C101.194 142.4 101.066 142.555 100.908 142.674C100.597 142.927 100.239 143.115 99.855 143.228C98.8471 144.472 97.6955 145.589 96.4249 146.555C95.1265 147.55 93.9711 148.723 92.9919 150.041C92.8439 150.145 92.8069 150.122 92.8809 149.963C92.9549 149.805 92.9179 149.724 92.7699 149.724C91.2175 151.942 89.409 153.051 87.3443 153.051C87.1858 153.17 87.0691 153.337 87.0112 153.527C86.9589 153.695 86.8842 153.855 86.7892 154.003C86.7136 153.746 86.6951 153.475 86.7351 153.21C86.7681 152.947 86.7862 152.682 86.7892 152.417C86.422 152.524 86.2541 152.679 86.2911 152.893C86.3084 153.004 86.3026 153.118 86.2742 153.227C86.2458 153.337 86.1953 153.439 86.126 153.527C85.9779 153.527 85.9039 153.42 85.9039 153.21C85.9039 152.999 85.8299 152.893 85.6819 152.893C85.5339 152.893 85.4428 153.023 85.3972 153.288C85.3517 153.553 85.2691 153.631 85.1126 153.527C85.1126 153.314 84.9475 153.184 84.6173 153.129C84.3067 153.087 84.0164 152.949 83.7861 152.734C83.8601 152.524 83.9512 152.417 84.0707 152.417C84.1903 152.417 84.2358 152.313 84.2358 152.103C84.1129 152.027 84.0141 151.917 83.9512 151.786C83.8918 151.651 83.7922 151.539 83.6665 151.465C83.6561 151.185 83.7339 150.908 83.8885 150.675L84.3298 150.041V150.514C84.4806 150.514 84.6144 150.407 84.7738 150.197C84.9219 149.88 84.9219 149.747 84.7738 149.799C84.6161 149.859 84.4668 149.939 84.3298 150.038C84.4797 148.983 84.3696 148.214 83.9996 147.731C83.6295 147.256 83.5555 146.44 83.7775 145.275C83.8515 145.064 83.8145 144.96 83.6665 144.96C83.6024 144.964 83.5383 144.952 83.4802 144.924C83.4221 144.896 83.3716 144.854 83.3335 144.802C83.2927 144.722 83.2815 144.63 83.3019 144.543C83.3222 144.456 83.3728 144.379 83.4445 144.326C83.5185 144.273 83.5778 144.201 83.6167 144.118C83.6556 144.034 83.6727 143.942 83.6665 143.85C83.6002 143.812 83.5481 143.752 83.5183 143.681C83.4885 143.61 83.4826 143.53 83.5014 143.455C83.514 143.356 83.5055 143.256 83.4765 143.16C83.4476 143.065 83.3988 142.977 83.3335 142.902C82.9663 143.112 82.7442 143.112 82.6702 142.902C82.5899 142.674 82.4777 142.46 82.3372 142.265C82.4112 141.844 82.4852 141.449 82.5592 141.077C82.6332 140.705 82.5592 140.468 82.3372 140.367C82.3372 140.151 82.4311 140.102 82.6218 140.206C82.8125 140.31 82.9378 140.258 83.0089 140.047C83.1571 139.534 83.1949 138.994 83.12 138.464C83.0792 138.219 83.1116 137.968 83.2131 137.742C83.3145 137.516 83.4804 137.325 83.6893 137.195C83.7786 137.185 83.8689 137.202 83.9483 137.245C84.0276 137.288 84.0922 137.354 84.1333 137.435C84.1578 137.504 84.2026 137.563 84.2617 137.606C84.3208 137.648 84.3912 137.671 84.4636 137.671C85.2777 137.141 86.1079 136.586 86.9543 136.008C87.8007 135.429 88.6319 134.821 89.4479 134.185C89.4444 133.783 89.5001 133.383 89.613 132.997C89.6707 132.859 89.6958 132.708 89.6865 132.558C89.6771 132.408 89.6334 132.262 89.5589 132.132C89.5907 132.134 89.6224 132.128 89.6512 132.115C89.6801 132.101 89.7051 132.08 89.724 132.054C89.761 132 89.855 131.974 90.0087 131.974C89.9385 131.339 90.0675 130.89 90.3958 130.627C90.7574 130.332 91.0748 129.985 91.338 129.598C91.8603 127.39 92.526 125.22 93.3306 123.101C94.0708 121.202 94.846 119.037 95.6563 116.605C95.8783 116.712 95.941 116.818 95.8242 116.922C95.7075 117.026 95.7673 117.136 95.9893 117.239C96.0749 117.115 96.1492 116.983 96.2114 116.844C96.2903 116.667 96.3458 116.48 96.3765 116.288C96.4145 116.132 96.4145 115.968 96.3765 115.812C96.3395 115.711 96.2484 115.711 96.0918 115.812C96.2398 115.495 96.3765 115.365 96.479 115.417C96.6004 115.473 96.7329 115.499 96.8661 115.495C96.9404 115.023 96.9404 114.542 96.8661 114.071C97.3842 113.86 97.6062 113.595 97.5322 113.278C97.457 112.859 97.457 112.43 97.5322 112.012C97.7514 111.801 97.8624 111.749 97.8624 111.853C97.8624 111.957 97.9364 112.012 98.0844 112.012C98.445 111.294 98.7597 110.553 99.0266 109.794C99.2461 109.115 99.6483 108.511 100.188 108.05C100.04 108.367 99.855 108.736 99.6358 109.157C99.4166 109.578 99.4878 109.794 99.855 109.794C99.0804 110.979 98.5186 112.293 98.1954 113.676C97.866 115.109 97.4214 116.513 96.8661 117.874C96.4998 118.085 96.2417 118.587 96.0918 119.379C95.9771 120.087 95.712 120.762 95.3147 121.357C95.3781 121.959 95.2631 122.566 94.9845 123.101C95.5766 122.784 95.9087 122.177 95.9808 121.279C96.0529 120.381 96.348 119.774 96.8661 119.457C96.5335 120.198 96.2742 120.971 96.0918 121.763C95.9171 122.546 95.6947 123.316 95.4257 124.07C95.8053 123.963 96.0273 123.593 96.0918 122.96C96.1424 122.409 96.2919 121.871 96.533 121.374C96.9771 121.165 97.2722 120.716 97.4183 120.028C97.5645 119.339 97.7125 118.627 97.8624 117.891C98.7163 116.536 99.3865 115.07 99.855 113.534C100.369 111.896 100.923 110.286 101.517 108.702H101.959C101.924 108.658 101.901 108.606 101.891 108.55C101.882 108.495 101.886 108.438 101.905 108.384C101.922 108.331 101.926 108.274 101.917 108.219C101.907 108.164 101.885 108.112 101.85 108.067C102.439 107.012 103.008 105.85 103.558 104.581C104.099 103.345 104.561 102.074 104.942 100.778C105.006 100.783 105.07 100.771 105.128 100.743C105.186 100.716 105.237 100.675 105.275 100.622C105.565 99.5221 106.033 98.4778 106.658 97.5313C107.268 96.6109 107.764 95.6183 108.136 94.5758C108.241 94.4011 108.396 94.2624 108.58 94.1779C108.763 94.0947 108.917 93.9569 109.021 93.7829C109.041 93.5652 109.003 93.3459 108.91 93.1485C109.943 91.4081 110.814 89.574 111.512 87.67C112.29 85.6113 112.973 83.6314 113.561 81.7302C113.392 81.8713 113.274 82.0665 113.228 82.2838C113.154 82.5491 113.009 82.627 112.787 82.5232C113.258 81.3391 113.829 80.1987 114.495 79.115C115.165 78.0089 115.669 76.8077 115.989 75.5511C116.512 75.2267 116.889 74.7099 117.043 74.1094C117.225 73.475 117.43 72.7398 117.652 71.892C117.575 71.6815 117.467 71.6037 117.319 71.6556C117.171 71.7075 117.034 71.5749 116.875 71.2577C117.102 70.9637 117.363 70.6976 117.652 70.4648C118.019 70.1476 118.275 69.5709 118.426 68.7347C119.489 67.2061 120.38 65.562 121.082 63.8329C121.82 62.0394 122.595 60.244 123.408 58.4467C122.842 58.9493 122.437 59.6121 122.246 60.3498C121.987 61.1975 121.563 61.7742 120.974 62.0798C120.841 62.8852 120.518 63.646 120.032 64.2971C119.624 64.8619 119.118 65.3458 118.537 65.7244C118.252 66.3588 118.019 66.7307 117.871 66.8345H117.652C117.723 66.624 117.706 66.4914 117.595 66.4366C117.484 66.3818 117.501 66.2002 117.652 65.883C117.683 65.8822 117.715 65.8888 117.743 65.9023C117.772 65.9158 117.797 65.9359 117.817 65.9609C117.835 65.9879 117.86 66.0096 117.889 66.0238C117.918 66.038 117.95 66.0441 117.982 66.0416C118.608 64.9196 119.166 63.7603 119.653 62.57C120.102 61.4142 120.738 60.3422 121.535 59.3982C121.509 58.9822 121.608 58.5679 121.819 58.2103C122.049 57.8447 122.217 57.4433 122.317 57.0223C122.142 57.1175 121.99 57.2527 121.875 57.4174C121.76 57.582 121.684 57.7715 121.654 57.9709C121.645 58.1427 121.588 58.3083 121.49 58.4486C121.391 58.589 121.256 58.6983 121.099 58.7639C121.384 57.9219 121.654 57.2068 121.876 56.6273C122.133 55.9805 122.467 55.3684 122.872 54.805C123.018 55.2259 122.944 55.5431 122.65 55.7536C122.396 55.9267 122.171 56.141 121.984 56.3879C122.428 56.7051 122.838 56.336 123.203 55.2807C123.567 54.2254 123.943 53.4844 124.313 53.0605C124.311 52.9532 124.33 52.8467 124.367 52.7462C124.403 52.6435 124.421 52.5352 124.421 52.4261C124.572 52.3145 124.7 52.1728 124.795 52.0097C124.89 51.8466 124.952 51.6655 124.976 51.4775C125.04 51.4817 125.104 51.4693 125.163 51.4416C125.221 51.4139 125.271 51.3717 125.309 51.3189C125.84 49.6532 126.565 48.0571 127.467 46.5642C128.381 45.0613 129.144 43.4694 129.744 41.8123C129.744 41.6018 129.687 41.524 129.576 41.573C129.465 41.622 129.411 41.5499 129.411 41.3366C129.784 40.8045 130.082 40.2221 130.296 39.6065C130.518 38.9722 130.812 38.5512 131.182 38.3378C131.552 37.3767 131.958 36.2675 132.4 35.0103C132.749 33.9088 133.309 32.8879 134.048 32.0058C134.029 31.6332 134.066 31.2597 134.159 30.8986C134.381 31.0024 134.526 30.9534 134.6 30.7371C134.66 30.5531 134.775 30.3921 134.928 30.2758C135.076 30.0653 135.11 29.9067 135.039 29.8C135.001 29.7265 134.982 29.6449 134.982 29.5622C134.982 29.4794 135.001 29.3978 135.039 29.3243C135.445 28.7135 135.763 28.0463 135.981 27.3434C136.201 26.6202 136.557 25.9473 137.031 25.3625C138.476 21.7368 140.104 18.1894 141.91 14.7342C143.745 11.1952 145.229 7.4805 146.34 3.64463C146.743 3.15663 147.044 2.59057 147.225 1.9809C147.447 1.29465 147.851 0.899624 148.443 0.792937C148.514 1.00343 148.48 1.13606 148.332 1.18796C148.251 1.2246 148.178 1.27942 148.121 1.34832C148.063 1.41722 148.022 1.49843 147.999 1.58587C148.334 1.64392 148.641 1.80975 148.876 2.05875C149.161 1.95495 149.266 1.82231 149.161 1.66373C149.133 1.63633 149.113 1.60284 149.1 1.56593C149.088 1.52901 149.084 1.48968 149.089 1.45106C149.095 1.41244 149.109 1.37559 149.13 1.34343C149.152 1.31128 149.181 1.2847 149.215 1.26582C149.585 0.948641 149.935 1.11011 150.268 1.74158C150.495 2.25489 150.859 2.69412 151.318 3.01028L150.985 3.48604C150.911 3.59369 150.948 3.75228 151.096 3.9618C151.318 4.06561 151.409 4.01659 151.381 3.80322C151.356 3.71636 151.359 3.62391 151.389 3.53866C151.418 3.45341 151.473 3.3796 151.546 3.32745C151.774 3.76434 151.977 4.21391 152.155 4.67401C152.34 5.14688 152.724 5.38621 153.319 5.38621C153.359 5.46196 153.374 5.54809 153.364 5.6331C153.354 5.7181 153.319 5.79794 153.262 5.86197C153.204 5.92533 153.159 6.00035 153.131 6.08226C153.102 6.16416 153.091 6.25117 153.097 6.33773C153.169 6.55111 153.3 6.62607 153.485 6.57706C153.646 6.5262 153.814 6.49901 153.983 6.49632C153.981 6.92068 153.944 7.34414 153.872 7.76214C153.969 7.8857 154.106 7.97048 154.259 8.00146C154.465 8.07147 154.64 8.21091 154.757 8.39649C154.644 8.56786 154.514 8.72726 154.37 8.87225C154.311 8.93561 154.266 9.01063 154.238 9.09254C154.209 9.17444 154.198 9.26145 154.205 9.34801C154.276 9.66519 154.387 9.79782 154.538 9.74304C154.798 9.69893 155.066 9.72682 155.312 9.82377C155.123 10.4121 155.026 11.0272 155.027 11.6461C155.064 12.018 155.084 12.5111 155.084 13.1483C154.933 13.4776 154.821 13.8242 154.751 14.1806C154.7 14.4886 154.588 14.7829 154.421 15.0456C154.124 17.2583 153.389 19.3874 152.261 21.3055C151.147 23.1458 150.204 25.087 149.445 27.104C149.026 27.725 148.673 28.389 148.392 29.0849C148.138 29.7863 147.648 30.3745 147.009 30.7458C146.861 30.962 146.824 31.0918 146.898 31.1437C146.972 31.1956 147.009 31.3282 147.009 31.5387C146.861 31.4378 146.787 31.4609 146.787 31.6195C146.787 31.7781 146.713 31.8559 146.565 31.8559C146.217 32.8241 145.773 33.7536 145.238 34.6297C144.714 35.4953 144.304 36.4269 144.02 37.4007C143.894 37.4893 143.782 37.5962 143.687 37.7179C143.613 37.8274 143.502 37.8274 143.354 37.7179C142.905 38.945 142.369 40.1371 141.748 41.2846C141.196 42.2919 140.627 43.3742 140.04 44.5314C139.171 46.9103 138.053 49.1878 136.704 51.3247C135.312 53.5695 134.162 55.9591 133.274 58.4525C132.56 59.5079 131.985 60.6537 131.566 61.8607C131.15 63.0491 130.613 64.1904 129.963 65.266C129.417 66.8513 128.688 68.3659 127.791 69.7785C126.898 71.1923 126.173 72.7079 125.631 74.2939C125.27 74.5906 124.986 74.9716 124.802 75.404C124.542 75.9346 124.283 76.4622 124.025 76.987C123.811 77.449 123.531 77.8765 123.194 78.2557C123.078 78.4023 122.922 78.5107 122.745 78.5671C122.568 78.6236 122.379 78.6256 122.201 78.5729C122.124 79.8387 121.774 80.845 121.147 81.5832C120.463 82.4523 120.022 83.4922 119.872 84.5935C119.485 85.0435 119.168 85.5511 118.933 86.0986C118.674 86.6753 118.435 87.252 118.213 87.8286C117.995 88.4016 117.736 88.9577 117.438 89.4924C117.194 89.9711 116.806 90.3596 116.331 90.6025C116.354 91.0579 116.215 91.5066 115.941 91.8683C115.815 92.0198 115.733 92.2038 115.704 92.3997C115.674 92.5957 115.7 92.796 115.776 92.9784C115.467 93.1313 115.214 93.381 115.056 93.6906C114.9 94.0014 114.648 94.2517 114.338 94.4028C114.188 94.8296 114.17 95.0948 114.281 95.1957C114.392 95.2967 114.373 95.5677 114.225 95.9887C114.161 95.9847 114.097 95.9972 114.039 96.025C113.982 96.0527 113.932 96.0948 113.894 96.1473C113.857 96.2002 113.806 96.2426 113.748 96.2703C113.69 96.2981 113.626 96.3103 113.561 96.3059C113.709 97.5746 113.414 98.578 112.676 99.3161C112.58 99.9663 112.413 100.604 112.178 101.216C111.979 101.68 111.813 102.157 111.68 102.644C111.014 103.065 110.572 103.912 110.35 105.178C110.229 105.166 110.108 105.189 109.999 105.245C109.891 105.302 109.802 105.388 109.741 105.495C109.698 105.592 109.628 105.674 109.54 105.73C109.451 105.787 109.348 105.815 109.243 105.812C109.295 105.981 109.369 106.141 109.465 106.288C109.536 106.392 109.499 106.553 109.354 106.764C108.984 106.657 108.705 106.868 108.523 107.395C108.341 107.923 108.136 108.454 107.914 108.981C107.84 109.192 107.84 109.247 107.914 109.137C107.952 109.085 108.003 109.044 108.061 109.017C108.119 108.99 108.183 108.978 108.247 108.981C108.269 109.428 108.152 109.871 107.914 110.247C107.766 110.247 107.729 110.195 107.803 110.089C107.509 110.995 107.08 111.851 106.53 112.626C106.029 113.297 105.636 114.046 105.369 114.843C105.513 114.951 105.513 115.161 105.369 115.475C105.218 115.792 105.292 115.847 105.588 115.636C105.514 115.951 105.423 116.057 105.303 115.951C105.199 115.85 105.06 115.793 104.916 115.792C104.987 116.426 104.805 117.167 104.347 118.012C103.941 118.77 103.607 119.566 103.351 120.388C103.425 120.599 103.499 120.705 103.573 120.705C103.647 120.705 103.573 120.864 103.351 121.181C103.066 120.968 102.835 121.233 102.687 121.974C102.539 122.715 102.428 123.24 102.354 123.557C102.502 123.557 102.613 123.421 102.687 123.162C102.754 122.905 102.867 122.663 103.02 122.447C103.165 122.551 103.165 122.735 103.02 123C102.885 123.215 102.809 123.462 102.798 123.716C103.488 123.642 104.161 123.455 104.791 123.162C105.046 123.03 105.326 122.955 105.612 122.941C105.898 122.927 106.184 122.975 106.451 123.081C108.075 122.341 109.533 121.655 110.826 121.022C112.118 120.39 113.465 119.65 114.868 118.802C115.153 118.802 115.346 118.857 115.42 118.964C115.696 118.87 115.944 118.706 116.14 118.488C116.317 118.285 116.483 118.073 116.638 117.854C118.04 117.593 119.4 117.14 120.681 116.507C122.091 115.831 123.554 115.274 125.056 114.843C124.834 115.372 124.686 115.556 124.612 115.397C124.538 115.238 124.353 115.215 124.059 115.319C123.573 115.713 123.11 116.135 122.673 116.585C122.239 117.051 121.884 117.587 121.623 118.171C121.623 118.488 121.694 118.566 121.845 118.407C121.868 118.372 121.898 118.342 121.933 118.318C121.968 118.295 122.007 118.279 122.048 118.271C122.09 118.264 122.132 118.265 122.173 118.274C122.214 118.284 122.252 118.301 122.286 118.326C122.359 118.124 122.396 117.91 122.397 117.695C122.403 117.465 122.481 117.243 122.619 117.061C123.063 116.534 123.487 116.297 123.892 116.348C124.296 116.403 124.797 116.164 125.389 115.636C125.312 115.636 125.389 115.792 125.608 116.109C125.688 115.971 125.801 115.855 125.937 115.772C126.073 115.689 126.227 115.643 126.385 115.636C126.738 115.618 127.081 115.509 127.381 115.319C127.45 115.143 127.469 114.951 127.435 114.765C127.397 114.583 127.378 114.396 127.381 114.209C127.874 113.901 128.418 113.686 128.987 113.575C129.556 113.463 130.1 113.248 130.592 112.94C131.477 112.731 132.344 112.546 133.194 112.387C134.044 112.227 134.875 112.043 135.685 111.833C135.936 111.941 136.209 111.983 136.481 111.956C136.752 111.928 137.012 111.831 137.236 111.674C137.68 111.357 138.048 111.305 138.344 111.516C138.492 110.988 138.455 110.752 138.233 110.801C137.979 110.858 137.719 110.886 137.458 110.881C137.531 110.704 137.644 110.547 137.789 110.423C137.933 110.3 138.105 110.212 138.29 110.169C138.601 110.117 138.918 110.117 139.229 110.169C139.54 110.224 139.855 110.25 140.171 110.247C140.338 110.245 140.501 110.201 140.646 110.118C140.791 110.035 140.914 109.917 141.002 109.774C141.691 110.105 142.462 110.215 143.214 110.089C144.038 109.997 144.853 109.838 145.651 109.613C146.021 110.143 146.59 110.329 147.359 110.169C148.036 110.006 148.745 110.033 149.408 110.247C149.467 110.151 149.549 110.072 149.646 110.017C149.743 109.961 149.852 109.931 149.963 109.93C150.183 109.93 150.248 109.774 150.183 109.457C150.849 109.339 151.534 109.392 152.175 109.613C152.631 109.797 153.074 110.009 153.504 110.247C153.189 110.322 152.901 110.487 152.676 110.723C152.374 111.009 152.015 111.225 151.623 111.357C151.475 111.253 151.418 111.147 151.458 111.04C151.488 110.879 151.468 110.713 151.401 110.564C151.179 110.671 151.116 110.801 151.179 110.962C151.241 111.124 151.179 111.251 150.957 111.357C150.883 111.571 150.92 111.674 151.068 111.674C151.132 111.671 151.196 111.683 151.254 111.711C151.312 111.739 151.363 111.781 151.401 111.833C150.55 111.991 149.717 112.229 148.91 112.545C148.184 112.828 147.41 112.962 146.633 112.94C146.658 113.037 146.716 113.121 146.797 113.179C146.878 113.237 146.976 113.265 147.074 113.257C147.276 113.248 147.475 113.304 147.643 113.416C147.017 113.622 146.363 113.729 145.705 113.733C145.108 113.721 144.531 113.949 144.099 114.368C143.951 114.368 143.877 114.264 143.877 114.05C143.507 113.947 143.248 114.105 143.103 114.526C142.958 114.947 142.818 114.95 142.659 114.526C142.568 114.674 142.456 114.807 142.326 114.921C142.24 114.987 142.166 115.068 142.107 115.16C142.033 115.054 141.865 114.999 141.609 114.999H141.324C140.795 115.298 140.355 115.736 140.052 116.268C139.644 116.902 139.035 117.115 138.224 116.902C138.281 116.757 138.381 116.634 138.51 116.548C138.639 116.463 138.79 116.421 138.944 116.426C139.274 116.426 139.442 116.109 139.442 115.475C139.294 115.371 139.183 115.397 139.109 115.556C139.047 115.694 138.973 115.826 138.887 115.951C138.668 115.847 138.628 115.636 138.776 115.319C138.27 115.827 137.956 116.5 137.891 117.219C137.758 117.216 137.625 117.243 137.504 117.3C137.382 117.356 137.25 117.382 137.117 117.378C137.117 116.957 137.08 116.743 137.006 116.743C136.888 117.123 136.656 117.455 136.342 117.695C135.972 117.378 135.51 117.431 134.956 117.854C134.402 118.276 133.941 118.276 133.573 117.854C133.532 118.018 133.43 118.159 133.288 118.249C133.177 118.301 133.123 118.433 133.123 118.647C132.901 118.433 132.716 118.433 132.568 118.647C132.403 118.874 132.219 119.085 132.016 119.278C131.865 118.857 131.535 119.013 131.016 119.754C130.502 119.65 129.969 119.677 129.468 119.834C128.88 119.988 128.368 120.354 128.028 120.864C127.658 120.968 127.492 120.968 127.529 120.864C127.566 120.76 127.51 120.65 127.364 120.547C127.17 120.616 127.002 120.745 126.882 120.915C126.763 121.086 126.699 121.289 126.698 121.498C126.145 121.485 125.602 121.652 125.15 121.974C124.681 122.31 124.236 122.68 123.82 123.081L123.749 123.104ZM94.4038 118.987C94.5547 119.088 94.5347 119.197 94.3497 119.301C94.3076 119.321 94.2698 119.349 94.2385 119.384C94.2072 119.418 94.1831 119.459 94.1674 119.503C94.1518 119.548 94.145 119.595 94.1475 119.642C94.15 119.688 94.1616 119.734 94.1818 119.777C94.0366 119.777 94.0167 119.67 94.1277 119.46C94.2098 119.296 94.302 119.138 94.4038 118.987ZM94.7369 123.58C94.5148 123.897 94.4977 124.027 94.6799 123.975C94.8621 123.923 94.8849 123.791 94.7369 123.58ZM94.9589 117.559C94.9589 117.663 94.9219 117.718 94.8479 117.718C94.7739 117.718 94.8109 117.663 94.9589 117.559ZM96.0662 115.829C96.0662 116.252 95.9922 116.411 95.8442 116.305V115.988C95.9182 115.988 95.9552 115.936 95.9552 115.829H96.0662ZM97.3927 118.525C97.3971 118.723 97.3392 118.917 97.2276 119.079C97.1166 119.238 97.0255 119.261 96.943 119.157C96.8775 118.721 97.0255 118.508 97.3927 118.508V118.525ZM97.1735 117.732C97.3927 117.415 97.4582 117.392 97.3927 117.652C97.3272 117.911 97.2475 117.931 97.1735 117.718V117.732ZM97.9478 115.829C98.0218 116.043 97.9876 116.464 97.8368 117.098C97.6916 116.994 97.6546 116.781 97.7258 116.464C97.7662 116.237 97.8411 116.018 97.9478 115.815V115.829ZM98.8331 109.486C98.6879 109.907 98.5968 110.014 98.5484 109.803C98.5 109.593 98.611 109.48 98.8331 109.48V109.486ZM99.8294 106.793C99.7373 106.989 99.6999 107.208 99.7212 107.424C99.5732 107.424 99.5163 107.32 99.5533 107.107C99.5903 106.894 99.6842 106.787 99.8294 106.787V106.793ZM100.273 107.107C100.199 107.531 100.051 107.741 99.8294 107.741C99.9774 107.315 100.125 107.101 100.273 107.101V107.107ZM101.27 121.683C101.126 121.684 100.987 121.741 100.883 121.841C100.761 121.956 100.632 122.062 100.495 122.159C100.56 122.537 100.502 122.926 100.33 123.269C100.145 123.69 100.162 123.955 100.384 124.062C100.829 123.214 101.238 122.421 101.657 121.683C102.1 120.865 102.489 120.018 102.821 119.148H102.599C102.305 119.463 102.046 119.809 101.825 120.18C101.565 120.648 101.378 121.154 101.27 121.68V121.683ZM100.829 105.683C100.9 105.789 100.863 106 100.718 106.317C100.572 106.634 100.433 106.793 100.273 106.793C100.387 106.389 100.575 106.01 100.829 105.677V105.683ZM100.994 104.097C100.817 104.481 100.613 104.852 100.384 105.207C100.532 104.786 100.669 104.414 100.772 104.097L101.159 102.99C101.307 103.197 101.25 103.563 100.994 104.091V104.097ZM100.484 107.894C100.632 107.577 100.649 107.577 100.538 107.894C100.427 108.211 100.421 108.211 100.484 107.894ZM104.028 96.8047C104.247 96.9114 104.313 97.0411 104.193 97.1997L103.817 97.7476C104.102 97.9609 104.296 97.9062 104.37 97.5919C104.444 97.2776 104.592 97.1161 104.814 97.1161C104.296 98.5943 103.761 99.9668 103.208 101.234C102.656 102.5 102.01 103.821 101.27 105.195C101.196 105.092 101.011 105.037 100.718 105.037C101.231 104.195 101.694 103.321 102.101 102.422C102.547 101.416 102.935 100.385 103.262 99.3334C103.043 99.3334 102.912 99.5209 102.875 99.8871C102.838 100.253 102.71 100.392 102.488 100.282C102.71 99.6497 102.95 99.0432 103.208 98.4627C103.467 97.8889 103.743 97.3324 104.039 96.8047H104.028ZM101.147 118.67C101.221 118.67 101.258 118.693 101.258 118.747C101.258 118.802 101.332 118.825 101.48 118.825C101.45 118.649 101.373 118.485 101.258 118.35C101.258 118.456 101.238 118.511 101.204 118.511C101.17 118.511 101.159 118.56 101.159 118.67H101.147ZM103.917 100.764H104.247C103.69 101.72 103.298 102.765 103.086 103.855C102.826 105.068 102.402 105.939 101.813 106.47C102.141 105.616 102.417 104.742 102.642 103.855C102.925 102.768 103.358 101.727 103.928 100.764H103.917ZM103.584 115.181H102.932C102.873 115.371 102.756 115.537 102.599 115.656C102.527 115.708 102.475 115.784 102.455 115.872C102.435 115.959 102.446 116.05 102.488 116.129C102.636 116.236 102.71 116.184 102.71 115.971C102.71 115.757 102.781 115.76 102.932 115.971C102.786 116.077 102.672 116.222 102.603 116.39C102.534 116.558 102.513 116.743 102.542 116.922C102.57 117.379 102.432 117.83 102.155 118.191C102.377 118.191 102.525 118.032 102.599 117.715C102.672 117.403 102.71 117.084 102.71 116.764C103.651 115.933 104.31 114.823 104.592 113.592C104.519 113.56 104.44 113.545 104.361 113.548C104.282 113.551 104.205 113.573 104.135 113.612C104.066 113.65 104.006 113.704 103.96 113.77C103.914 113.835 103.884 113.911 103.872 113.99C103.756 114.382 103.664 114.78 103.595 115.184L103.584 115.181ZM104.469 99.8121C104.617 99.6006 104.617 99.6266 104.469 99.8899C104.321 100.153 104.321 100.128 104.469 99.815V99.8121ZM106.684 90.6227C106.759 90.8221 106.778 91.0387 106.739 91.2485C106.7 91.4582 106.604 91.6528 106.462 91.8106C106.177 92.1826 106.092 92.5228 106.243 92.84C106.449 92.4365 106.71 92.0639 107.017 91.7328C107.323 91.3991 107.583 91.0258 107.791 90.6227C107.614 91.7012 107.111 92.6975 106.351 93.4743C106.277 93.4743 106.223 93.4225 106.186 93.3158C106.149 93.2091 106.092 93.1572 106.021 93.1572C105.701 93.4972 105.455 93.9021 105.301 94.3451C105.166 94.7526 104.915 95.1107 104.58 95.3745C104.95 94.5326 105.301 93.7406 105.634 92.9986C105.978 92.2691 106.325 91.4704 106.695 90.6255L106.684 90.6227ZM105.135 95.3745C105.135 95.2707 105.172 95.2159 105.246 95.2159C105.32 95.2159 105.357 95.2707 105.357 95.3745C105.281 95.5879 105.246 95.6398 105.246 95.5331C105.246 95.4264 105.218 95.3774 105.147 95.3774L105.135 95.3745ZM105.577 94.5845C105.577 94.374 105.634 94.3221 105.745 94.423C105.797 94.4724 105.866 94.4999 105.938 94.4999C106.01 94.4999 106.079 94.4724 106.132 94.423C106.158 94.6489 106.099 94.8766 105.967 95.0602C105.907 95.1223 105.861 95.1966 105.832 95.2782C105.803 95.3598 105.792 95.4467 105.799 95.5331C105.514 95.6398 105.429 95.5331 105.577 95.2159C105.725 94.8988 105.736 94.6911 105.588 94.5758L105.577 94.5845ZM106.132 93.7915H106.351L106.132 94.1058H105.91L106.132 93.7915ZM106.351 108.05C106.331 107.832 106.369 107.613 106.462 107.416C106.314 107.416 106.203 107.548 106.132 107.814C106.061 108.079 106.143 108.16 106.362 108.053L106.351 108.05ZM106.573 94.5845H107.031C106.809 95.115 106.587 95.3745 106.365 95.3745C106.365 95.164 106.402 95.0343 106.476 94.9795C106.55 94.9247 106.584 94.7978 106.584 94.5758L106.573 94.5845ZM106.684 106.94C106.984 106.614 107.227 106.24 107.404 105.833C107.662 105.306 107.717 104.936 107.569 104.723C107.421 104.936 107.219 105.253 106.96 105.674C106.716 106.048 106.621 106.501 106.695 106.943L106.684 106.94ZM107.569 89.0368C107.569 89.5673 107.461 89.7778 107.239 89.6711C107.323 89.4453 107.438 89.2327 107.581 89.0397L107.569 89.0368ZM107.902 91.4156C108.05 91.5223 108.104 91.7587 108.07 92.1278C108.046 92.4215 107.99 92.7117 107.902 92.9928H107.35C107.421 92.7823 107.495 92.5171 107.569 92.1999C107.633 91.9193 107.75 91.654 107.914 91.4185L107.902 91.4156ZM107.68 122.15H107.35C107.352 122.035 107.391 121.923 107.461 121.833C107.692 121.836 107.766 121.942 107.692 122.153L107.68 122.15ZM108.025 89.674C108.099 89.8874 108.082 89.9912 107.971 89.9912C107.86 89.9912 107.766 90.0979 107.686 90.3084C107.538 90.3084 107.521 90.1757 107.632 89.9105C107.743 89.6452 107.885 89.5702 108.025 89.674ZM107.581 89.0397C107.655 88.7254 107.712 88.6446 107.749 88.8032C107.786 88.9618 107.729 89.0397 107.581 89.0397ZM107.971 88.1746L108.025 88.0968L107.971 88.1746ZM109.519 100.054C109.342 100.412 109.138 100.757 108.91 101.084C108.672 101.433 108.469 101.805 108.301 102.194C108.099 102.696 108.002 103.235 108.016 103.777C108.752 103.252 109.306 102.407 109.676 101.242C110.023 100.221 110.21 99.1506 110.231 98.0705C110.112 98.3325 109.919 98.5524 109.676 98.702C109.764 99.1583 109.709 99.631 109.519 100.054ZM109.576 86.6666C109.45 86.9243 109.339 87.189 109.243 87.4596C109.146 87.7707 109.071 88.0887 109.021 88.4111C108.873 88.6216 108.736 88.6994 108.58 88.6475C108.423 88.5956 108.321 88.6764 108.247 88.884C108.457 88.5356 108.622 88.1616 108.739 87.771C108.874 87.3101 109.172 86.9159 109.576 86.6637V86.6666ZM108.91 86.5023C108.773 86.6852 108.696 86.9071 108.691 87.1366H108.469C108.474 86.9066 108.552 86.6843 108.691 86.5023H108.91ZM109.243 107.416C109.176 107.458 109.121 107.516 109.082 107.586C109.043 107.655 109.022 107.734 109.021 107.814C109.021 107.969 108.947 107.998 108.799 107.891C108.799 107.576 108.947 107.419 109.243 107.419V107.416ZM109.576 85.7093C109.721 85.7093 109.798 85.7382 109.798 85.7901C109.798 85.842 109.832 85.8708 109.909 85.8708C109.751 86.052 109.637 86.2683 109.576 86.5023C109.354 86.5023 109.354 86.2428 109.576 85.7122V85.7093ZM110.35 86.978C110.207 87.2825 110.095 87.6015 110.017 87.9296C110.002 88.0649 109.936 88.1891 109.833 88.2774C109.731 88.3656 109.599 88.4114 109.465 88.4053C109.61 87.5634 109.909 87.0789 110.35 86.9809V86.978ZM110.239 84.9193C110.387 84.9193 110.424 85.0519 110.35 85.3143C110.276 85.5767 110.202 85.7093 110.128 85.7093C109.98 85.7093 109.923 85.6055 109.963 85.395C109.975 85.3014 110.006 85.2113 110.054 85.13C110.101 85.0488 110.164 84.9781 110.239 84.9222V84.9193ZM110.017 104.723C109.943 104.829 109.98 104.881 110.128 104.881C110.413 104.671 110.413 104.46 110.128 104.247C110.141 104.414 110.102 104.581 110.017 104.725V104.723ZM117.769 67.6477C118.139 67.5439 118.379 67.2007 118.489 66.6183C118.599 66.0358 118.876 65.7984 119.32 65.9061C119.201 66.3941 118.904 66.8185 118.489 67.094C118.082 67.3593 117.954 67.8639 118.102 68.5992C117.583 68.8126 117.248 69.2883 117.105 70.0409C116.963 70.7935 116.661 71.2548 116.22 71.4653C116.192 71.8179 116.117 72.1651 115.998 72.4976C115.85 72.9704 115.887 73.2098 116.109 73.2098C115.778 73.8892 115.369 74.5269 114.891 75.1099C114.411 75.7124 114.071 76.4158 113.894 77.1687C114.338 77.1687 114.669 76.9063 114.891 76.3757C115.113 75.8452 115.406 75.5338 115.776 75.4271C115.497 75.8162 115.274 76.2433 115.113 76.6958C114.979 77.0889 114.792 77.4615 114.558 77.803C114.116 77.382 113.672 77.5147 113.228 78.1981C112.784 78.8814 112.417 79.4927 112.121 80.0232C112.269 80.0232 112.38 79.9166 112.454 79.7032C112.528 79.4927 112.636 79.386 112.787 79.386C112.938 79.386 112.969 79.5475 112.898 79.8618C112.97 79.8614 113.041 79.8385 113.1 79.7962C113.159 79.7539 113.204 79.6943 113.228 79.6253C113.269 79.5444 113.334 79.4781 113.413 79.4353C113.493 79.3925 113.583 79.3753 113.672 79.386C113.492 79.7605 113.226 80.0865 112.898 80.3375C112.613 80.5509 112.289 80.7614 111.956 80.9719C111.62 81.186 111.321 81.4538 111.071 81.7648C110.765 82.1877 110.557 82.6744 110.461 83.1892C110.392 83.0982 110.353 82.9871 110.35 82.8721C110.35 82.7683 110.276 82.7135 110.128 82.7135C111.155 81.2062 111.957 79.5547 112.511 77.8117C113.098 75.9889 113.977 74.2763 115.113 72.7426C115.257 71.5893 115.589 70.7973 116.109 70.3667C116.056 70.0567 116.073 69.7386 116.16 69.4364C116.246 69.1342 116.399 68.8558 116.607 68.6223C117.042 68.1379 117.33 67.5375 117.438 66.8922H117.66C117.438 67.2843 117.475 67.5467 117.769 67.6505V67.6477ZM110.35 97.5976C110.35 97.911 110.387 97.911 110.461 97.5976C110.533 97.2805 110.498 97.2805 110.35 97.5976ZM112.898 92.8458C112.338 93.2182 111.926 93.7788 111.734 94.4288C111.491 95.1297 111.214 95.8178 110.903 96.4904C110.829 96.4904 110.774 96.4385 110.737 96.3318C110.7 96.2251 110.644 96.1732 110.572 96.1732V97.2833C111.161 96.9662 111.604 96.3587 111.902 95.461C112.2 94.5633 112.532 93.6916 112.898 92.8458C113.54 92.1265 114.047 91.2938 114.392 90.3891C114.797 89.3886 115.184 88.3563 115.554 87.301C114.938 88.087 114.452 88.9693 114.116 89.9133C113.746 90.9168 113.339 91.8914 112.898 92.8458ZM110.683 85.2393H111.125C111.199 85.4556 111.182 85.5853 111.071 85.6372C110.928 85.7258 110.826 85.8678 110.786 86.0323C110.644 85.9256 110.609 85.6632 110.683 85.2365V85.2393ZM111.014 101.559H111.236V101.242H111.016L111.014 101.559ZM111.458 81.9119H111.68V82.2319L111.458 82.3876H111.236C111.305 82.2974 111.343 82.1874 111.347 82.0734C111.421 82.0705 111.458 82.0186 111.458 81.909V81.9119ZM111.791 83.3536C112.083 83.4574 112.12 83.6419 111.902 83.9072C111.68 84.1696 111.495 84.3022 111.347 84.3022C111.347 84.0917 111.421 83.9591 111.569 83.9072C111.717 83.8553 111.791 83.6535 111.791 83.3305V83.3536ZM111.458 101.412C111.31 101.73 111.347 101.758 111.569 101.493C111.791 101.228 111.751 101.19 111.458 101.398V101.412ZM111.458 99.8294C111.662 99.762 111.85 99.6542 112.013 99.5122C112.231 98.9855 112.12 98.7212 111.68 98.7193C111.606 99.0364 111.549 99.2498 111.512 99.3536C111.471 99.5037 111.452 99.6593 111.458 99.815V99.8294ZM112.121 80.3404C111.836 80.3404 111.68 80.4471 111.68 80.6576C111.973 80.6432 112.121 80.5394 112.121 80.326V80.3404ZM112.343 99.5122C112.195 99.5122 112.121 99.5641 112.121 99.6708C112.269 99.6564 112.343 99.6045 112.343 99.4978V99.5122ZM112.343 98.4021C112.195 98.7193 112.269 98.8779 112.565 98.8779C112.565 98.6674 112.582 98.5607 112.622 98.5607C112.662 98.5607 112.713 98.4569 112.787 98.2435C112.707 98.2309 112.625 98.2374 112.548 98.2625C112.471 98.2875 112.401 98.3304 112.343 98.3877V98.4021ZM113.339 131.832C113.709 131.832 114.04 131.515 114.338 130.881C114.284 130.849 114.223 130.831 114.161 130.826C114.099 130.821 114.036 130.831 113.978 130.854C113.919 130.877 113.867 130.913 113.824 130.959C113.781 131.005 113.749 131.06 113.729 131.12C113.623 131.366 113.492 131.599 113.339 131.818V131.832ZM113.45 120.426V120.743C113.524 120.743 113.561 120.795 113.561 120.901H113.783C113.783 120.795 113.82 120.743 113.894 120.743V120.426C113.82 120.426 113.783 120.371 113.783 120.267H113.561C113.561 120.356 113.524 120.411 113.45 120.411V120.426ZM113.894 95.5504C113.82 95.8676 113.837 95.8676 113.948 95.5504C114.059 95.2332 114.039 95.2188 113.894 95.536V95.5504ZM114.005 78.5988C114.077 78.2817 114.096 78.2817 114.059 78.5988C114.022 78.916 114.005 78.9016 114.005 78.5844V78.5988ZM114.116 120.743C114.787 120.525 115.395 120.144 115.887 119.633C115.54 119.732 115.189 119.812 114.834 119.872C114.503 119.909 114.262 120.198 114.116 120.728V120.743ZM114.891 117.891C114.817 118.312 114.606 118.525 114.225 118.525C114.264 118.36 114.366 118.217 114.509 118.127C114.642 118.054 114.77 117.97 114.891 117.877V117.891ZM114.558 130.249C114.41 130.249 114.338 130.301 114.338 130.408C114.484 130.394 114.558 130.33 114.558 130.235V130.249ZM116.442 67.5093C116.587 67.5093 116.661 67.5352 116.661 67.5871C116.661 67.639 116.735 67.665 116.883 67.665C116.864 67.7471 116.829 67.8246 116.78 67.893C116.732 67.9613 116.67 68.0191 116.599 68.0629C116.488 68.1148 116.433 68.2474 116.433 68.4579C116.283 68.4579 116.229 68.3253 116.266 68.0629C116.28 67.8622 116.341 67.6678 116.442 67.4948V67.5093ZM117.105 119.315C117.172 119.274 117.228 119.216 117.267 119.147C117.306 119.078 117.327 119 117.327 118.92C117.327 118.762 117.287 118.684 117.216 118.684C117.13 118.808 117.056 118.941 116.994 119.079C116.92 119.223 116.957 119.301 117.105 119.301V119.315ZM119.098 77.7944C118.95 78.7459 118.765 79.3774 118.546 79.6945C118.262 80.1821 118.073 80.7206 117.991 81.2804C118.727 80.5423 119.281 79.4331 119.653 77.953C119.974 77.9445 120.284 77.8335 120.538 77.6358C120.59 77.5089 120.628 77.3764 120.649 77.2408C120.671 77.1043 120.708 76.9708 120.76 76.8428C120.612 76.739 120.476 76.7909 120.373 77.0014C120.271 77.2119 120.168 77.2148 120.088 77.0014C120.228 76.8069 120.341 76.5934 120.422 76.3671C120.518 76.1241 120.671 75.9078 120.866 75.7356C120.348 75.628 120.014 75.9163 119.866 76.6006C119.724 77.2898 119.468 77.6877 119.098 77.7915V77.7944ZM117.991 119.46C118.104 119.464 118.214 119.505 118.304 119.576C118.393 119.648 118.458 119.746 118.489 119.858C118.6 120.12 118.728 119.987 118.876 119.46C118.778 119.338 118.641 119.254 118.489 119.223C118.391 119.199 118.289 119.209 118.198 119.252C118.108 119.295 118.034 119.369 117.991 119.46ZM117.991 125.48C118.139 125.584 118.275 125.425 118.435 125.004C118.139 125.004 117.991 125.163 117.991 125.48ZM119.431 117.877C119.357 117.663 119.146 117.637 118.765 117.796C118.589 117.868 118.434 117.986 118.318 118.138C118.201 118.29 118.127 118.47 118.102 118.661C118.558 118.679 119.007 118.538 119.374 118.263C119.75 117.979 120.187 117.789 120.649 117.709C120.67 117.926 120.632 118.145 120.538 118.341C120.316 118.237 120.131 118.315 119.983 118.58C119.851 118.806 119.74 119.045 119.653 119.292C119.929 119.298 120.2 119.216 120.427 119.056C120.654 118.895 120.925 118.811 121.201 118.817C121.35 118.396 121.35 118.13 121.201 118.027C121.044 117.908 120.929 117.741 120.871 117.551C121.09 117.444 121.239 117.415 121.313 117.47C121.387 117.525 121.498 117.34 121.646 116.916C121.304 117.118 120.929 117.253 120.538 117.314C120.124 117.391 119.74 117.586 119.431 117.877ZM119.32 62.2643C119.246 62.5815 119.172 62.6594 119.098 62.5037C119.024 62.348 119.098 62.2643 119.32 62.2643ZM119.209 126.276C119.061 126.697 119.115 126.853 119.374 126.752C119.633 126.651 119.687 126.487 119.542 126.276C119.32 126.591 119.209 126.59 119.209 126.273V126.276ZM121.09 58.7812C120.991 59.2129 120.802 59.6185 120.538 59.972C120.273 60.3244 120.084 60.7291 119.983 61.16C119.919 60.6912 120.02 60.2146 120.268 59.8134C120.463 59.4111 120.744 59.0576 121.09 58.7783V58.7812ZM121.757 60.6842C121.683 60.5804 121.7 60.4218 121.811 60.2085C121.922 59.9951 121.902 59.8913 121.757 59.8913C121.606 60.3123 121.606 60.5775 121.757 60.6813V60.6842ZM121.976 121.68C121.976 121.573 122.013 121.524 122.09 121.524C122.09 121.308 122.013 121.207 121.868 121.207C121.868 121.521 121.902 121.68 121.976 121.68ZM122.42 72.5667L122.309 72.7253C122.09 72.6215 122.024 72.6446 122.144 72.8032C122.263 72.9618 122.309 72.9387 122.309 72.7253C122.383 72.7253 122.42 72.6734 122.42 72.5667C122.538 72.5035 122.639 72.4131 122.716 72.303C122.793 72.1928 122.844 72.0659 122.864 71.9324C122.716 71.8257 122.568 72.0362 122.42 72.5639V72.5667ZM122.531 58.6255C122.901 58.6255 123.157 58.3083 123.305 57.6739C122.791 57.8854 122.533 58.2016 122.531 58.6226V58.6255ZM122.753 124.69C122.901 124.586 122.935 124.534 122.864 124.534C122.741 124.555 122.626 124.609 122.531 124.69C122.605 124.69 122.659 124.745 122.696 124.852C122.733 124.958 122.753 124.898 122.753 124.687V124.69ZM123.638 53.0778H123.971C123.897 53.395 123.803 53.5795 123.687 53.6343C123.528 53.7336 123.395 53.8689 123.297 54.0293C123.076 53.8179 123.076 53.6593 123.297 53.5536C123.396 53.5202 123.482 53.4561 123.544 53.3701C123.605 53.2842 123.638 53.1809 123.638 53.0749V53.0778ZM123.749 123.107C123.749 123.318 123.695 123.447 123.584 123.502C123.441 123.592 123.339 123.735 123.299 123.9C123.151 123.9 123.114 123.845 123.188 123.741C123.272 123.598 123.311 123.432 123.299 123.266C123.382 123.277 123.465 123.268 123.544 123.24C123.622 123.212 123.692 123.166 123.749 123.104V123.107ZM123.18 125.007C123.328 125.218 123.465 125.166 123.57 124.852C123.675 124.537 123.661 124.376 123.513 124.376C123.361 124.558 123.252 124.773 123.194 125.004L123.18 125.007ZM123.402 57.9882C123.476 58.2045 123.687 58.0978 124.068 57.6739C124.449 57.2501 124.435 56.9358 124.068 56.7224C124.068 57.1463 123.974 57.3827 123.783 57.4346C123.593 57.4865 123.49 57.6682 123.416 57.9854L123.402 57.9882ZM123.846 56.2582C123.698 56.7887 123.698 56.9473 123.846 56.734C123.994 56.5206 123.999 56.3572 123.86 56.2438L123.846 56.2582ZM123.846 121.219C123.92 121.429 123.994 121.4 124.068 121.138C124.142 120.875 124.082 120.887 123.86 121.204L123.846 121.219ZM124.731 120.743H124.965V120.426H124.743L124.731 120.743ZM126.337 114.881C126.092 114.976 125.881 115.142 125.728 115.357C125.802 115.036 125.784 114.907 125.673 114.959C125.552 115.014 125.42 115.041 125.286 115.036C125.432 114.618 125.654 114.431 125.95 114.483C126.299 114.526 126.652 114.442 126.946 114.246C126.832 114.522 126.62 114.744 126.351 114.866L126.337 114.881ZM126.394 116.464C126.539 116.48 126.685 116.46 126.82 116.404C126.955 116.349 127.075 116.26 127.168 116.147C127.094 116.043 126.946 116.017 126.724 116.069C126.635 116.083 126.553 116.129 126.495 116.199C126.437 116.269 126.406 116.358 126.408 116.449L126.394 116.464ZM127.501 66.8691C127.35 66.8691 127.279 66.9239 127.279 67.0277C127.438 67.0191 127.527 66.9643 127.527 66.8605L127.501 66.8691ZM127.831 115.192C127.683 115.192 127.609 115.247 127.609 115.351C127.771 115.336 127.845 115.287 127.845 115.184L127.831 115.192ZM127.831 114.558C127.831 114.771 127.868 114.742 127.942 114.477C128.016 114.212 127.993 114.232 127.845 114.549L127.831 114.558ZM128.053 114.875C128.369 114.723 128.705 114.616 129.05 114.558H129.827C129.957 114.259 130.145 113.99 130.379 113.765C129.947 113.975 129.474 114.083 128.995 114.082C128.523 114.076 128.214 114.338 128.067 114.866L128.053 114.875ZM128.623 43.9749C128.549 44.2401 128.472 44.3699 128.4 44.3699C128.252 44.3699 128.196 44.2661 128.233 44.0527C128.246 43.9585 128.278 43.868 128.327 43.7867C128.376 43.7054 128.441 43.6351 128.517 43.5798C128.665 43.5712 128.694 43.7038 128.623 43.9662V43.9749ZM130.171 118.678C130.319 118.889 130.41 118.834 130.456 118.52C130.501 118.205 130.439 118.096 130.291 118.202C130.205 118.342 130.164 118.505 130.171 118.67V118.678ZM130.282 114.399C130.356 114.613 130.484 114.665 130.669 114.558C130.841 114.462 131.007 114.356 131.167 114.241C131.22 114.113 131.257 113.979 131.278 113.843C131.328 113.698 131.403 113.564 131.5 113.448C130.982 113.232 130.576 113.547 130.282 114.391V114.399ZM131.167 118.28C131.315 118.015 131.315 117.989 131.167 118.202C131.019 118.508 131.019 118.534 131.167 118.272V118.28ZM134.267 112.802C133.752 112.802 133.234 112.831 132.719 112.883C132.204 112.934 131.759 113.332 131.389 114.071C132.135 113.871 132.898 113.739 133.667 113.676C134.367 113.621 134.939 113.174 135.375 112.329C135.228 112.432 135.055 112.487 134.876 112.487C134.698 112.487 134.524 112.432 134.378 112.329C134.384 112.412 134.364 112.494 134.321 112.565C134.28 112.638 134.261 112.721 134.267 112.805V112.802ZM133.163 110.902C133.163 111.432 133.032 111.695 132.773 111.695C132.471 111.711 132.181 111.822 131.944 112.012C131.978 111.732 132.117 111.476 132.332 111.297C132.437 111.178 132.565 111.082 132.708 111.015C132.851 110.948 133.005 110.91 133.163 110.905V110.902ZM133.504 118.67C133.62 118.804 133.696 118.967 133.726 119.142C133.504 119.246 133.41 119.246 133.442 119.142C133.486 118.989 133.507 118.829 133.504 118.67ZM134.612 117.559C134.834 117.453 134.925 117.323 134.896 117.162C134.888 117.092 134.854 117.029 134.801 116.985C134.748 116.941 134.68 116.919 134.612 116.925C134.624 117.091 134.585 117.258 134.501 117.401C134.415 117.505 134.452 117.559 134.6 117.559H134.612ZM136.604 112.963C137.09 112.974 137.563 112.805 137.934 112.488C137.747 112.37 137.541 112.29 137.325 112.251C137.054 112.199 136.815 112.453 136.593 112.963H136.604ZM137.105 49.7503C137.139 49.4332 137.122 49.4332 137.048 49.7503C137.037 50.0646 137.054 50.0646 137.094 49.7503H137.105ZM137.714 115.974C137.492 115.974 137.381 116.028 137.381 116.132C137.592 116.132 137.703 116.08 137.703 115.974H137.714ZM138.156 115.498C138.008 116.028 137.991 116.075 138.102 115.659C138.213 115.244 138.218 115.184 138.144 115.498H138.156ZM138.93 113.915H139.499C139.566 113.841 139.612 113.75 139.632 113.652C139.651 113.554 139.644 113.453 139.61 113.358C139.536 113.203 139.425 113.177 139.277 113.28C139.206 113.518 139.082 113.735 138.913 113.915H138.93ZM143.914 110.587C143.84 110.801 144.005 110.876 144.412 110.824C144.725 110.781 145.039 110.755 145.355 110.746C145.355 110.429 145.15 110.325 144.746 110.429C144.471 110.512 144.189 110.565 143.903 110.587H143.914ZM144.689 112.649H144.136C144.062 112.963 144.116 113.125 144.301 113.125C144.486 113.125 144.606 112.963 144.677 112.649H144.689ZM145.796 110.429C145.648 110.429 145.577 110.484 145.577 110.587C145.711 110.587 145.785 110.535 145.785 110.435L145.796 110.429ZM148.011 109.636C148.159 109.425 148.139 109.454 147.956 109.717C147.774 109.979 147.777 109.953 147.999 109.636H148.011ZM148.332 0C148.554 0 148.665 0.106686 148.665 0.317175H148.332V0ZM148.332 112.015H148.554C148.699 111.911 148.776 111.804 148.776 111.697H148.554C148.554 111.804 148.48 111.911 148.332 112.015ZM148.876 0.63435C149.024 0.317175 149.081 0.294108 149.044 0.553614C149.007 0.813121 148.958 0.847722 148.876 0.63435ZM150.76 110.587C151.045 110.587 151.202 110.484 151.202 110.27C151.276 110.27 151.239 110.166 151.091 109.953C150.938 110.138 150.828 110.354 150.769 110.587H150.76ZM151.757 110.587C151.979 110.587 152.09 110.484 152.09 110.27C151.876 110.27 151.765 110.377 151.765 110.587H151.757ZM153.086 7.60355C153.012 8.02741 153.029 8.18023 153.14 8.07931C153.245 7.97869 153.383 7.92201 153.527 7.92072C153.675 7.71024 153.655 7.58048 153.473 7.5257C153.291 7.47091 153.166 7.49686 153.095 7.60355H153.086Z" fill="#333333"/>
<path d="M141.475 135.442C136.49 135.442 132.131 134.347 128.398 132.158C124.685 129.997 121.67 126.792 119.719 122.931C117.665 118.962 116.64 114.306 116.642 108.964C116.642 103.918 117.704 99.3919 119.83 95.3859C121.86 91.4813 124.902 88.2107 128.629 85.9254C132.365 83.6187 136.651 82.4653 141.487 82.4653C146.684 82.4653 151.134 83.5783 154.834 85.8043C158.503 87.9991 161.463 91.2282 163.351 95.0975C165.327 99.067 166.315 103.686 166.317 108.955C166.317 114.001 165.274 118.527 163.186 122.533C161.197 126.429 158.195 129.7 154.504 131.994C150.807 134.293 146.464 135.442 141.475 135.442ZM142.352 130.099C146.747 130.099 150.007 128.263 152.133 124.592C154.258 120.92 155.32 116.153 155.318 110.29C155.318 105.692 154.641 101.704 153.286 98.327C151.931 94.9495 150.117 92.3545 147.846 90.5418C145.569 88.7252 143.078 87.816 140.374 87.8141C136.126 87.8141 132.959 89.5576 130.872 93.0446C128.784 96.5316 127.74 101.058 127.74 106.623C127.74 111.594 128.345 115.842 129.554 119.367C130.763 122.893 132.465 125.564 134.66 127.38C136.827 129.186 139.558 130.15 142.363 130.099H142.352Z" fill="#A38360"/>
<path d="M194.002 135.442C188.803 135.442 184.481 134.255 181.039 131.881C177.59 129.502 174.898 126.158 173.291 122.256C171.538 118.05 170.659 113.523 170.709 108.958C170.663 104.429 171.601 99.9453 173.456 95.8242C175.184 91.9452 177.901 88.6023 181.327 86.1388C184.725 83.6898 188.767 82.4653 193.453 82.4653C198.216 82.4653 202.044 83.5043 204.936 85.5823C207.842 87.6782 210.091 90.5757 211.418 93.9298C212.892 97.6206 213.764 101.53 214 105.504C213.754 106.877 213.19 108.172 212.354 109.281H206.749C204.259 109.281 201.439 109.299 198.286 109.336C195.134 109.372 191.908 109.446 188.608 109.558C185.312 109.669 182.199 109.799 179.268 109.947V104.281H202.562C202.562 99.3813 201.682 95.4118 199.923 92.3727C198.164 89.3336 195.674 87.8121 192.454 87.8083C190.615 87.8329 188.822 88.3935 187.29 89.423C185.601 90.4995 184.209 92.391 183.114 95.0975C182.019 97.8041 181.47 101.644 181.466 106.617C181.459 110.205 181.92 113.779 182.838 117.245C183.755 120.705 185.368 123.562 187.677 125.814C189.987 128.067 193.265 129.2 197.512 129.211C199.99 129.2 202.435 128.63 204.668 127.542C207.056 126.395 209.188 124.767 210.931 122.755C211.601 123.125 212.184 123.637 212.639 124.257C213.116 124.81 213.437 125.482 213.57 126.204C211.08 129.543 208.206 131.918 204.947 133.329C201.689 134.74 198.041 135.444 194.002 135.442Z" fill="#A38360"/>
<path d="M211.737 56.0101C211.75 55.9768 211.752 55.9404 211.744 55.9057C211.735 55.8711 211.717 55.8398 211.691 55.816C211.664 55.7922 211.632 55.7771 211.597 55.7726C211.562 55.7682 211.526 55.7745 211.495 55.7909C209.89 56.6819 200.874 61.4338 195.187 61.402C188.563 61.3674 179.929 63.876 177.39 76.9724C185.261 82.376 206.34 70.0667 211.737 56.0101Z" fill="#E02421"/>
<path d="M211.5 55.7908C210.069 57.2325 208.582 58.6165 207.037 59.9429C205.494 61.2606 203.906 62.5379 202.246 63.7086C200.596 64.8998 198.857 65.9602 197.045 66.8804C196.135 67.3386 195.191 67.7242 194.222 68.0337C193.251 68.354 192.241 68.5336 191.221 68.5671C190.183 68.6738 189.164 68.9191 188.19 69.2966C187.213 69.6698 186.281 70.1534 185.411 70.7383C184.54 71.3267 183.72 71.9894 182.96 72.7192C182.194 73.4451 181.495 74.2404 180.871 75.0952C181.474 74.2221 182.155 73.4075 182.906 72.6616C183.652 71.9073 184.466 71.2257 185.337 70.6259C186.207 70.0171 187.143 69.512 188.127 69.1208C189.113 68.7288 190.147 68.4738 191.201 68.3624C192.202 68.3273 193.194 68.1477 194.145 67.829C195.102 67.5184 196.035 67.1377 196.937 66.69C198.743 65.7837 200.477 64.7377 202.124 63.5616C203.782 62.3967 205.389 61.1606 206.943 59.8535C208.508 58.5329 210.037 57.2065 211.5 55.7908Z" fill="#CC1F1F"/>
<path d="M189.914 68.7324C189.604 68.4596 189.266 68.2199 188.907 68.0173C188.544 67.8121 188.163 67.6431 187.768 67.5127C187.373 67.3806 186.962 67.3012 186.547 67.2763C186.13 67.2493 185.712 67.2804 185.303 67.3685C185.71 67.262 186.129 67.2125 186.55 67.2215C186.972 67.2303 187.39 67.2932 187.797 67.4089C188.205 67.5237 188.601 67.6802 188.978 67.876C189.359 68.0692 189.72 68.3021 190.054 68.5709L189.914 68.7324Z" fill="#CC1F1F"/>
<path d="M199.641 65.2632C199.808 65.6697 199.947 66.0867 200.06 66.5117C200.113 66.7243 200.154 66.94 200.182 67.1576C200.216 67.3764 200.191 67.6004 200.111 67.8063C200.175 67.5986 200.181 67.3771 200.128 67.1662C200.086 66.9548 200.029 66.7466 199.957 66.5434C199.814 66.1361 199.644 65.7392 199.448 65.3555L199.641 65.2632Z" fill="#CC1F1F"/>
</g>
<defs>
<clipPath id="clip0">
<rect width="214" height="154" fill="white"/>
</clipPath>
</defs>
</svg>
