<svg width="99" height="100" viewBox="0 0 99 100" fill="none" xmlns="http://www.w3.org/2000/svg">
<circle cx="49.5" cy="50" r="49.5" fill="#E02421"/>
<ellipse cx="49.8722" cy="48.8834" rx="30.5188" ry="29.7744" fill="white"/>
<path d="M13.6945 78.9103L23.8541 59.0185L33.91 69.411L13.6945 78.9103Z" fill="white"/>
<path d="M40.2395 53.3889C39.4129 53.3889 38.7195 53.1089 38.1595 52.5489C37.5995 51.9889 37.3195 51.2956 37.3195 50.4689C37.3195 49.6422 37.5995 48.9489 38.1595 48.3889C38.7195 47.8289 39.4129 47.5489 40.2395 47.5489C41.0395 47.5489 41.7195 47.8289 42.2795 48.3889C42.8395 48.9489 43.1195 49.6422 43.1195 50.4689C43.1195 51.2956 42.8395 51.9889 42.2795 52.5489C41.7195 53.1089 41.0395 53.3889 40.2395 53.3889ZM49.888 53.3889C49.0613 53.3889 48.368 53.1089 47.808 52.5489C47.248 51.9889 46.968 51.2956 46.968 50.4689C46.968 49.6422 47.248 48.9489 47.808 48.3889C48.368 47.8289 49.0613 47.5489 49.888 47.5489C50.688 47.5489 51.368 47.8289 51.928 48.3889C52.488 48.9489 52.768 49.6422 52.768 50.4689C52.768 51.2956 52.488 51.9889 51.928 52.5489C51.368 53.1089 50.688 53.3889 49.888 53.3889ZM59.5364 53.3889C58.7097 53.3889 58.0164 53.1089 57.4564 52.5489C56.8964 51.9889 56.6164 51.2956 56.6164 50.4689C56.6164 49.6422 56.8964 48.9489 57.4564 48.3889C58.0164 47.8289 58.7097 47.5489 59.5364 47.5489C60.3364 47.5489 61.0164 47.8289 61.5764 48.3889C62.1364 48.9489 62.4164 49.6422 62.4164 50.4689C62.4164 51.2956 62.1364 51.9889 61.5764 52.5489C61.0164 53.1089 60.3364 53.3889 59.5364 53.3889Z" fill="#333333"/>
</svg>
