<svg width="1920" height="1080" viewBox="0 0 1920 1080" fill="none" xmlns="http://www.w3.org/2000/svg">
<g clip-path="url(#clip0)">
<path d="M1135.67 488.33L1221.67 444.22C1221.77 444.17 1221.85 444.095 1221.9 444.003C1221.96 443.91 1221.99 443.803 1221.99 443.695C1221.99 443.586 1221.96 443.48 1221.9 443.387C1221.85 443.295 1221.77 443.219 1221.67 443.17L1202.53 433.48C1198.95 431.671 1195 430.729 1190.99 430.73H1149.23C1149.2 430.721 1149.17 430.701 1149.14 430.673C1149.12 430.645 1149.11 430.61 1149.11 430.575C1149.11 430.539 1149.12 430.505 1149.14 430.477C1149.17 430.449 1149.2 430.429 1149.23 430.42L1192.23 423.82C1195.38 423.34 1198.59 423.869 1201.42 425.33L1236.42 443.43C1239.6 445.072 1243.01 446.238 1246.53 446.89L1248.28 447.21C1249.68 447.46 1251.06 447.77 1252.43 448.13C1271.97 453.23 1290.06 457.93 1309.72 463.13L1338.78 469.65C1339.27 469.76 1339.78 469.87 1340.25 470C1342.25 470.51 1348.25 468.16 1352.59 468.14C1353.2 468.128 1353.8 467.981 1354.35 467.71C1355.75 467.005 1357.09 466.182 1358.35 465.25C1360.6 463.67 1363.86 464.6 1366.47 462.74L1367.89 461.74L1394.46 442.64C1394.58 442.551 1394.68 442.431 1394.75 442.291C1394.81 442.152 1394.83 441.999 1394.82 441.847C1394.8 441.695 1394.75 441.549 1394.66 441.425C1394.57 441.301 1394.45 441.203 1394.31 441.14L1374.66 432.21C1374.04 431.929 1373.48 431.551 1372.98 431.09L1353.34 412.96C1352.53 412.212 1351.58 411.631 1350.55 411.25L1332.87 404.62C1331.54 404.118 1330.1 404.031 1328.72 404.37L1307 409.57C1305.56 409.917 1304.28 410.738 1303.37 411.9L1294.28 423.38C1293.62 424.214 1292.77 424.88 1291.8 425.323C1290.83 425.766 1289.77 425.974 1288.71 425.93L1238.4 423.83C1238.36 423.83 1238.32 423.813 1238.29 423.783C1238.26 423.753 1238.24 423.712 1238.24 423.67C1238.24 423.628 1238.26 423.587 1238.29 423.557C1238.32 423.527 1238.36 423.51 1238.4 423.51L1288.58 417.9C1288.95 417.856 1289.29 417.704 1289.57 417.461C1289.85 417.219 1290.05 416.898 1290.15 416.54L1292.82 406.34C1293.02 405.556 1293.41 404.837 1293.97 404.252C1294.53 403.667 1295.23 403.236 1296 403L1305.66 400.11C1305.72 400.098 1305.77 400.066 1305.81 400.02C1305.85 399.973 1305.87 399.915 1305.87 399.855C1305.87 399.795 1305.85 399.737 1305.81 399.69C1305.77 399.643 1305.72 399.612 1305.66 399.6L1291.18 397.45C1289.67 397.227 1288.13 397.482 1286.78 398.18L1268.47 407.62C1267.89 407.924 1267.24 408.075 1266.58 408.06L1223.17 406.85C1223.1 406.85 1223.04 406.823 1222.99 406.774C1222.94 406.725 1222.91 406.659 1222.91 406.59C1222.91 406.521 1222.94 406.455 1222.99 406.406C1223.04 406.357 1223.1 406.33 1223.17 406.33L1264.12 401.33C1265.52 401.158 1266.84 400.581 1267.92 399.67L1284.81 385.36C1285.15 385.072 1285.55 384.859 1285.97 384.733C1286.4 384.608 1286.85 384.572 1287.29 384.63L1335.1 390.88C1336.21 391.02 1337.33 391.02 1338.44 390.88L1351.44 389.33C1352 389.262 1352.51 389.002 1352.9 388.595C1353.29 388.188 1353.52 387.66 1353.56 387.1L1353.62 386.23C1353.66 385.676 1353.57 385.121 1353.35 384.611C1353.13 384.101 1352.79 383.651 1352.36 383.3L1328.89 364.14C1327.37 362.904 1326.16 361.342 1325.33 359.57L1295.12 334.35C1295.11 334.288 1295.12 334.223 1295.15 334.167C1295.18 334.11 1295.22 334.066 1295.28 334.04C1295.34 334.014 1295.41 334.009 1295.47 334.026C1295.53 334.042 1295.58 334.079 1295.62 334.13L1327.76 353.06C1327.87 353.225 1328.03 353.359 1328.2 353.449C1328.38 353.539 1328.58 353.582 1328.78 353.574C1328.98 353.566 1329.18 353.508 1329.35 353.404C1329.52 353.3 1329.66 353.154 1329.76 352.98L1324.01 332.5C1324.04 332.466 1324.07 332.44 1324.11 332.428C1324.15 332.416 1324.2 332.417 1324.24 332.431C1324.28 332.446 1324.31 332.473 1324.34 332.509C1324.36 332.545 1324.37 332.587 1324.37 332.63L1333.94 353.84C1333.86 354.526 1333.99 355.22 1334.3 355.835C1334.61 356.451 1335.1 356.96 1335.7 357.3L1366.7 373.45C1368.12 374.256 1369.29 375.433 1370.09 376.855C1370.89 378.276 1371.29 379.889 1371.25 381.52L1370.88 394.52C1370.84 396.135 1371.19 397.735 1371.92 399.177C1372.65 400.619 1373.72 401.857 1375.05 402.78L1397.45 418.35C1402.91 422.147 1408.63 425.562 1414.56 428.57L1426.56 434.66C1430.49 436.66 1434.65 446.17 1439.04 445.96L1460.36 447.71C1466.8 447.409 1473.18 449.009 1478.71 452.31L1482.91 454.81C1485.94 456.619 1488.53 459.091 1490.47 462.04L1503.84 482.32C1506.23 485.95 1509.28 489.098 1512.84 491.6L1518.24 495.38C1519 495.915 1519.89 496.243 1520.81 496.33C1521.74 496.418 1522.67 496.263 1523.52 495.88L1554.66 481.88L1589.94 472.88C1591.55 472.472 1593.01 471.645 1594.19 470.484C1595.37 469.322 1596.23 467.868 1596.66 466.27L1602.5 444.78C1603.17 442.32 1602.86 439.694 1601.63 437.46L1601.25 436.76C1600.36 435.159 1600.01 433.315 1600.25 431.5L1600.59 428.87C1600.78 427.366 1600.6 425.837 1600.06 424.421C1599.52 423.004 1598.64 421.743 1597.49 420.75L1587.62 412.2C1583.42 408.535 1578.7 405.503 1573.62 403.2L1476.17 359.34C1472.13 357.522 1468.88 354.302 1467.02 350.274C1465.17 346.247 1464.83 341.685 1466.08 337.43L1474.57 310.06C1474.88 309.01 1474.8 307.885 1474.35 306.889C1473.9 305.892 1473.1 305.091 1472.11 304.63L1464.69 301.17C1462.07 299.939 1459.22 299.259 1456.32 299.17L1408.2 297.72C1407.51 297.697 1406.84 297.464 1406.28 297.051C1405.73 296.638 1405.31 296.066 1405.09 295.41L1399.25 277.89C1398.57 275.817 1397.24 274.017 1395.46 272.75L1355.96 244.49C1355.89 244.446 1355.83 244.375 1355.81 244.293C1355.79 244.21 1355.81 244.123 1355.85 244.05C1355.89 243.977 1355.96 243.924 1356.05 243.904C1356.13 243.883 1356.22 243.896 1356.29 243.94L1405.38 268.48C1406.98 269.281 1408.3 270.55 1409.16 272.12L1413.16 279.39C1413.77 280.504 1414.65 281.447 1415.72 282.133C1416.79 282.82 1418.01 283.228 1419.28 283.32L1449.38 285.53C1450.73 285.62 1452.07 285.65 1453.38 285.61L1481.18 284.71C1482.07 284.68 1482.94 284.465 1483.74 284.077C1484.54 283.69 1485.25 283.139 1485.82 282.46C1486.36 281.828 1486.72 281.068 1486.88 280.254C1487.04 279.44 1486.99 278.598 1486.73 277.81C1485.88 275.18 1484.55 271.2 1483.82 269C1483.46 267.927 1483.01 266.887 1482.48 265.89L1465.71 234.7C1463.59 230.78 1459.87 218.51 1455.93 213.96L1448.26 205.07L1446.11 202.39C1445.81 202.14 1445 201.47 1444.66 201.25C1444.21 200.903 1443.78 200.522 1443.39 200.11L1441.73 198.48C1441.25 197.966 1440.71 197.503 1440.13 197.1C1428.3 189.68 1419.97 185.18 1401.27 170.34C1399.89 169.247 1398.35 168.377 1396.7 167.76L1394.81 167.06C1393.51 166.563 1392.26 165.954 1391.06 165.24C1390.77 165.074 1390.49 164.894 1390.22 164.7C1389.66 164.438 1389.06 164.285 1388.44 164.25C1387.9 164.329 1387.36 164.46 1386.84 164.64L1385.59 165.03C1384.91 165.262 1384.24 165.539 1383.59 165.86C1382.75 166.27 1380.48 166.69 1379.84 166.93C1379.27 167.187 1378.69 167.397 1378.09 167.56C1377.47 167.73 1377.91 167 1377.79 167.04L1386.53 162.11C1387.55 161.599 1388.71 161.411 1389.84 161.57C1393.46 162.08 1399.68 162.98 1400.54 163.3C1410.85 167.13 1414.06 170.18 1421.38 172.14L1422.03 172.31C1422.03 172.31 1443.82 178.15 1448.25 182.85L1473.5 204.6C1475.16 206.372 1477.3 207.633 1479.66 208.235C1482.01 208.838 1484.49 208.756 1486.8 208L1487.66 207.67C1488.45 207.371 1489.31 207.336 1490.12 207.57C1490.85 207.744 1491.55 208.017 1492.21 208.38L1507.69 216.61C1510.63 217.419 1513.76 217.24 1516.59 216.1L1532.38 209.73C1532.69 209.603 1533 209.499 1533.32 209.42L1560.12 202.8C1560.17 202.784 1560.21 202.787 1560.26 202.807C1560.3 202.828 1560.33 202.865 1560.35 202.91C1560.37 202.955 1560.36 203.005 1560.34 203.048C1560.32 203.091 1560.29 203.124 1560.24 203.14L1535.48 213.46C1534.83 213.73 1534.2 214.048 1533.6 214.41L1517.67 224C1515.65 225.21 1513.28 225.69 1510.95 225.36L1498.23 223.54C1498.03 223.501 1497.83 223.523 1497.64 223.603C1497.46 223.682 1497.3 223.815 1497.2 223.984C1497.09 224.154 1497.03 224.352 1497.04 224.552C1497.05 224.753 1497.11 224.948 1497.23 225.11L1526.13 265.81C1526.86 266.841 1527.81 267.697 1528.91 268.316C1530.01 268.935 1531.24 269.302 1532.5 269.39L1533.5 269.47C1536.22 269.66 1538.91 268.769 1540.98 266.99L1542.34 265.82C1545.61 262.993 1549.74 261.355 1554.06 261.17L1559.76 260.92C1561.68 260.837 1563.56 260.291 1565.23 259.33L1595 242.26C1597.38 240.891 1599.31 238.862 1600.56 236.42L1604.18 229.32C1604.9 227.893 1605.2 226.291 1605.06 224.699C1604.91 223.107 1604.31 221.589 1603.34 220.32L1597.73 213.09C1596.17 211.077 1595.38 208.573 1595.51 206.03V205.94C1595.6 203.991 1596.24 202.106 1597.36 200.51L1610.79 181.3C1613.5 177.414 1615.09 172.851 1615.36 168.12L1617.88 144.23C1617.89 144.198 1617.91 144.17 1617.93 144.149C1617.96 144.129 1617.99 144.118 1618.03 144.118C1618.06 144.118 1618.09 144.129 1618.12 144.149C1618.14 144.17 1618.16 144.198 1618.17 144.23L1618.9 179.75C1619.04 181.353 1618.69 182.961 1617.9 184.36L1609 207.56C1608.85 207.826 1608.76 208.125 1608.74 208.432C1608.73 208.739 1608.79 209.045 1608.92 209.324C1609.05 209.604 1609.24 209.848 1609.48 210.037C1609.72 210.226 1610.01 210.354 1610.31 210.41L1612.53 210.83C1613.89 211.084 1615.29 210.891 1616.53 210.28L1645.66 195.86C1646.9 195.248 1648.21 194.781 1649.56 194.47L1721.66 177.69C1723.64 177.223 1725.46 176.256 1726.96 174.88L1732.76 169.53C1733.13 169.179 1733.55 168.87 1733.99 168.61L1758.07 154.28C1758.09 154.264 1758.12 154.258 1758.15 154.262C1758.18 154.267 1758.2 154.282 1758.22 154.305C1758.23 154.327 1758.24 154.355 1758.23 154.383C1758.23 154.41 1758.21 154.434 1758.19 154.45L1742.3 166.65C1741.43 167.327 1740.68 168.157 1740.1 169.1L1737.3 173.71C1737.19 173.866 1737.13 174.049 1737.13 174.238C1737.12 174.427 1737.17 174.614 1737.26 174.777C1737.36 174.941 1737.5 175.074 1737.67 175.161C1737.83 175.248 1738.02 175.286 1738.21 175.27L1747.53 175.02C1748.48 174.999 1749.41 174.851 1750.32 174.58L1801.82 159.26C1802.92 158.863 1803.92 158.215 1804.73 157.366C1805.54 156.517 1806.14 155.491 1806.48 154.37L1808.22 147.31C1808.95 144.362 1810.41 141.646 1812.47 139.415C1814.53 137.184 1817.12 135.511 1820 134.55L1835.67 128.12C1836.63 127.799 1837.65 127.69 1838.66 127.802C1839.67 127.915 1840.64 128.245 1841.51 128.77L1847.24 132.2C1847.3 132.242 1847.35 132.305 1847.37 132.378C1847.4 132.451 1847.4 132.529 1847.37 132.601C1847.34 132.672 1847.29 132.733 1847.23 132.773C1847.16 132.812 1847.09 132.829 1847.01 132.82L1839.8 131.68C1837.4 131.301 1834.95 131.805 1832.9 133.1L1820.8 140.74C1819.64 141.478 1818.63 142.439 1817.84 143.569C1817.06 144.699 1816.5 145.974 1816.21 147.32L1814.55 155.07C1814.51 155.265 1814.52 155.467 1814.58 155.657C1814.64 155.846 1814.76 156.015 1814.91 156.146C1815.06 156.278 1815.24 156.367 1815.43 156.404C1815.63 156.442 1815.83 156.427 1816.02 156.36L1850.62 143.98C1853.5 142.946 1856.61 142.684 1859.62 143.22L1874.27 145.82C1874.31 145.82 1874.35 145.836 1874.38 145.864C1874.4 145.892 1874.42 145.93 1874.42 145.97C1874.42 146.01 1874.4 146.048 1874.38 146.076C1874.35 146.104 1874.31 146.12 1874.27 146.12L1857.18 146.87C1854.48 146.988 1851.88 147.934 1849.73 149.58L1840.03 154.19C1836.61 155.82 1833.32 157.68 1830.03 159.56C1827.76 160.854 1825.34 161.839 1822.81 162.49C1821.97 162.71 1821.12 162.92 1820.29 163.18L1788.12 173.18C1788.01 173.221 1787.91 173.295 1787.84 173.392C1787.78 173.49 1787.74 173.606 1787.74 173.725C1787.74 173.844 1787.78 173.96 1787.84 174.058C1787.91 174.155 1788.01 174.229 1788.12 174.27L1810.95 182.9C1814.58 184.267 1818.48 184.743 1822.33 184.29L1859.72 179.84C1862.53 179.505 1865.2 178.405 1867.43 176.66L1884.35 163.36C1885.27 162.633 1886.01 161.711 1886.53 160.662C1887.05 159.612 1887.33 158.461 1887.35 157.29L1887.56 146.57C1887.56 146.492 1887.59 146.417 1887.64 146.358C1887.69 146.299 1887.76 146.262 1887.84 146.252C1887.92 146.242 1888 146.261 1888.06 146.305C1888.12 146.348 1888.17 146.414 1888.19 146.49L1892.19 160.76C1892.5 161.868 1892.54 163.036 1892.29 164.161C1892.04 165.285 1891.51 166.329 1890.76 167.2L1875 185.5C1874.92 185.596 1874.86 185.715 1874.85 185.84C1874.83 185.966 1874.85 186.095 1874.9 186.21C1874.96 186.325 1875.04 186.422 1875.15 186.489C1875.26 186.557 1875.38 186.592 1875.51 186.59L1894.64 186.09C1896.22 186.048 1897.78 185.692 1899.22 185.041C1900.66 184.39 1901.96 183.458 1903.04 182.3L1910.55 176.57C1911.57 175.481 1912.9 174.739 1914.36 174.45C1915.98 174.167 1917.56 173.687 1919.07 173.02L1920 172.58V184.58L1907 195.31C1906.24 196.141 1905.31 196.803 1904.28 197.251C1903.24 197.699 1902.13 197.924 1901 197.91L1861.14 197.31C1860.4 197.31 1859.66 197.31 1858.93 197.38L1826.37 199.74C1818.3 200.324 1810.19 199.287 1802.53 196.69L1772.66 186.59C1770.87 185.982 1768.94 185.888 1767.09 186.32L1658.09 211.71C1654.62 212.512 1651.32 213.891 1648.31 215.79L1636.66 223.11C1632.06 226.007 1628.48 230.274 1626.43 235.31L1621.98 246.31C1621.29 248.005 1620.31 249.565 1619.08 250.92L1587.21 286.12C1584.27 289.365 1580.45 291.674 1576.21 292.76L1525.28 305.7C1524.03 306.025 1522.87 306.649 1521.91 307.52C1520.95 308.391 1520.21 309.483 1519.77 310.7L1512.14 327.98C1511.74 329.07 1511.76 330.269 1512.2 331.344C1512.64 332.418 1513.46 333.291 1514.51 333.79L1624.34 385.91C1640.47 393.53 1652.98 407.173 1659.16 423.91C1659.23 424.09 1659.3 424.28 1659.36 424.46C1661.26 429.657 1664.7 434.147 1669.23 437.321C1673.76 440.496 1679.16 442.203 1684.69 442.21C1689.49 442.211 1694.13 440.449 1697.72 437.259C1701.31 434.068 1703.61 429.67 1704.17 424.9C1704.54 421.65 1704.89 418.35 1705.23 415.25C1705.72 410.736 1707.52 406.464 1710.41 402.96C1713.3 399.457 1717.15 396.874 1721.49 395.53L1755.74 384.91C1758.99 383.899 1762.15 382.611 1765.18 381.06L1846.75 339.16C1849.17 337.917 1851.32 336.22 1853.1 334.16L1864.52 320.98C1865.04 320.384 1865.42 319.689 1865.66 318.937C1865.89 318.185 1865.97 317.393 1865.89 316.61L1864.99 308.29C1864.98 308.217 1865 308.144 1865.04 308.083C1865.09 308.022 1865.15 307.977 1865.22 307.956C1865.29 307.935 1865.36 307.939 1865.43 307.967C1865.5 307.995 1865.55 308.045 1865.59 308.11L1870.03 316.35C1870.81 317.792 1871.19 319.412 1871.15 321.048C1871.1 322.685 1870.63 324.282 1869.78 325.68L1861.43 339.33C1861.35 339.459 1861.32 339.608 1861.33 339.757C1861.34 339.906 1861.4 340.048 1861.49 340.165C1861.58 340.282 1861.71 340.368 1861.85 340.411C1861.99 340.455 1862.15 340.455 1862.29 340.41L1913.46 323.56C1914.88 323.096 1916.34 322.784 1917.82 322.63L1919.94 322.42V357.6L1865.85 371.85C1862.66 372.688 1859.6 373.931 1856.73 375.55L1789.28 413.55C1787.77 414.396 1786.16 415.067 1784.5 415.55L1758 423.34C1757.48 423.493 1757.02 423.822 1756.71 424.272C1756.4 424.722 1756.26 425.265 1756.3 425.81L1756.42 427.35C1756.47 427.956 1756.71 428.532 1757.1 429C1757.49 429.468 1758.01 429.806 1758.6 429.97L1845.18 453.48C1849.76 454.717 1854.02 456.943 1857.65 460L1888.65 486.09C1891.99 488.89 1894.4 492.634 1895.57 496.83L1919.93 584V1060.19L1747.54 1045.12L1760.07 1026.38C1760.07 1026.38 1800.3 1025.61 1822.47 1003.88C1840.47 986.3 1845.58 967.83 1846.89 961.44C1847.03 960.778 1847.39 960.184 1847.91 959.758C1848.44 959.332 1849.09 959.099 1849.77 959.1C1850.1 959.101 1850.43 959.024 1850.73 958.876C1851.03 958.728 1851.29 958.512 1851.49 958.246C1851.69 957.98 1851.82 957.671 1851.88 957.344C1851.94 957.016 1851.92 956.679 1851.83 956.36C1848.68 945.45 1836.83 905.05 1830.4 892.05C1830.14 891.537 1830.05 890.959 1830.12 890.39C1830.49 887.499 1831.59 884.749 1833.31 882.394C1835.03 880.039 1837.31 878.157 1839.95 876.92L1855.09 869.83C1856.76 869.049 1858.31 868.04 1859.7 866.83L1876.61 852C1883.46 846.004 1887.99 837.805 1889.44 828.82L1894.56 796.95C1895.64 790.263 1895.64 783.447 1894.56 776.76L1891.06 754.91C1889.86 747.412 1886.03 740.587 1880.25 735.66L1841.76 702.8C1838.6 700.104 1835.9 696.917 1833.76 693.36L1827.41 682.82C1825.52 679.684 1824.34 676.17 1823.97 672.528C1823.59 668.885 1824.03 665.205 1825.24 661.75L1832.39 641.31C1834.32 635.785 1834.82 629.858 1833.82 624.09L1828.61 593.84C1827.35 586.503 1824.35 579.574 1819.87 573.63L1801.28 548.98C1799.2 546.212 1796.56 543.909 1793.54 542.22L1793.3 542.09C1783.61 536.663 1772.52 534.273 1761.46 535.23L1709.72 539.68C1701.39 540.4 1693.02 538.881 1685.48 535.28L1649.08 517.94C1643.51 515.292 1637.2 514.649 1631.21 516.12L1617.52 519.49L1553.33 531.69C1547.15 532.865 1540.86 533.325 1534.58 533.06L1487.58 531.06C1485.68 530.978 1483.83 530.465 1482.16 529.559C1480.49 528.652 1479.04 527.377 1477.94 525.83L1450.64 487.5C1449.5 485.902 1447.97 484.633 1446.18 483.82C1444.4 483.007 1442.43 482.679 1440.48 482.87L1400.58 476.34L1360.67 486.34L1296.51 475L1264.92 466.69L1228.12 456.31C1227.45 456.122 1226.75 456.073 1226.06 456.166C1225.38 456.258 1224.71 456.491 1224.12 456.85L1216.84 461.24C1210.11 465.303 1202.92 468.53 1195.41 470.85C1190.91 472.24 1188.28 471.43 1183.78 474.39L1183.55 474.52C1182.74 474.91 1182.07 474.16 1181.32 474.52L1181.04 474.65L1135.66 488.35" fill="#A38360"/>
<path d="M1186.43 501.51C1186.43 501.51 1197.69 478.76 1181.78 473.96C1172.05 479.83 1178.51 492.1 1186.43 501.51Z" fill="#D62222"/>
<path d="M1117.68 500.73C1117.68 500.73 1138.56 500.73 1137.1 487.57C1129.52 482.63 1122.28 491.66 1117.68 500.73Z" fill="#D62222"/>
<path d="M1163.55 439.19C1163.55 439.19 1175.45 468.86 1193.37 459.19C1196 445.62 1179.07 440.52 1163.55 439.19Z" fill="#D62222"/>
<path d="M1158.28 402.52C1158.28 402.52 1161.53 428.78 1177.51 426.2C1182.36 416.38 1170.14 407.79 1158.28 402.52Z" fill="#D62222"/>
<path d="M1133.48 441.93C1133.48 441.93 1150.88 441.32 1149.25 430.36C1142.78 426.48 1137 434.22 1133.48 441.93Z" fill="#CE2525"/>
<path d="M1265.24 446C1265.24 446 1279.93 431.84 1268.8 424.08C1259.71 426 1261.53 436.85 1265.24 446Z" fill="#CE2525"/>
<path d="M1334.61 324.57C1334.61 324.57 1323.02 325.11 1324.18 332.4C1328.52 334.94 1332.3 329.73 1334.61 324.57Z" fill="#D62222"/>
<path d="M1296.78 355.68C1296.78 355.68 1320.34 357.99 1320.12 342.92C1312.09 336.53 1303 345.94 1296.78 355.68Z" fill="#D62222"/>
<path d="M1202.63 410.61C1202.63 410.61 1220.27 416.23 1224.47 406.61C1220.09 401.12 1210.26 405.5 1202.63 410.61Z" fill="#D62222"/>
<path d="M1249.82 389.42C1249.82 389.42 1250.06 403.83 1259.23 402.42C1262.57 397.05 1256.19 392.33 1249.82 389.42Z" fill="#D62222"/>
<path d="M1138.12 468.85C1138.12 468.85 1147.34 484.35 1156.49 477.41C1156.79 469.6 1146.89 468.23 1138.12 468.85Z" fill="#D62222"/>
<path d="M1374.67 389.14C1374.67 389.14 1375.12 376.49 1366.98 377.36C1363.8 382 1369.19 386.34 1374.67 389.14Z" fill="#CE2525"/>
<path d="M1380.61 381.08C1380.61 381.08 1372.53 371.33 1367.04 377.4C1367.71 383 1374.66 382.64 1380.61 381.08Z" fill="#D62222"/>
<path d="M1377.8 368.66C1377.8 368.66 1365.17 369.45 1366.8 377.46C1371.72 380.19 1375.56 374.39 1377.8 368.66Z" fill="#D62222"/>
<path d="M1357.7 367.61C1357.7 367.61 1370.15 369.93 1367.51 377.68C1362.34 379.79 1359.23 373.56 1357.7 367.61Z" fill="#D62222"/>
<path d="M1366.87 363.57C1366.87 363.57 1374.61 373.57 1367.49 377.62C1362.22 375.74 1364.05 369 1366.87 363.57Z" fill="#CE2525"/>
<path d="M1357.4 507.65C1357.4 507.65 1368.73 492.93 1360.97 485.72C1354.25 488 1355.1 498.74 1357.4 507.65Z" fill="#CE2525"/>
<path d="M1278.38 364.27C1278.38 364.27 1273.65 383.38 1285.98 385.14C1292.17 379.36 1285.59 370.61 1278.38 364.27Z" fill="#D62222"/>
<path d="M1338.77 257.81C1338.77 257.81 1357.04 254.48 1356.11 243.92C1349.6 241.11 1343 249.65 1338.77 257.81Z" fill="#CE2525"/>
<path d="M1387.35 246.35C1387.35 246.35 1375.76 246.88 1376.92 254.17C1381.26 256.71 1385 251.5 1387.35 246.35Z" fill="#D62222"/>
<path d="M1460.89 522.33C1460.89 522.33 1482.49 535.56 1488.98 520.51C1484.11 510.45 1471.15 515.53 1460.89 522.33Z" fill="#D62222"/>
<path d="M1474.24 544C1474.24 544 1497.66 534.34 1489.32 520.24C1478.32 518.27 1474.79 531.74 1474.24 544Z" fill="#D62222"/>
<path d="M1513 533C1513 533 1487.93 536.65 1487.9 520.27C1496.34 513 1506.25 522.74 1513 533Z" fill="#D62222"/>
<path d="M1498.25 546.61C1498.25 546.61 1477.11 532.61 1487.99 520.4C1499.17 520.54 1500.06 534.44 1498.25 546.61Z" fill="#CE2525"/>
<path d="M1393.94 301.47C1393.94 301.47 1410.29 308.47 1406.33 296.7C1398.39 293.76 1396.38 292.19 1393.94 301.47Z" fill="#D62222"/>
<path d="M1575 211.16C1575 211.16 1568.18 197.72 1560.15 202.87C1559.48 209.32 1567.67 211.1 1575 211.16Z" fill="#D62222"/>
<path d="M1493 216.5C1493 216.5 1486.45 205.66 1480.12 210.85C1480 216.44 1486.87 217.16 1493 216.5Z" fill="#CE2525"/>
<path d="M1494.59 206.65C1494.59 206.65 1481.83 202.71 1480.48 211.25C1484.29 215.75 1490.24 211.46 1494.59 206.65Z" fill="#D62222"/>
<path d="M1484 199.91C1484 199.91 1475.71 206.1 1480.44 210.83C1485 210.51 1485.06 204.83 1484 199.91Z" fill="#D62222"/>
<path d="M1470 207.76C1470 207.76 1480 203.57 1481.81 210.39C1479.08 214.34 1473.92 211.32 1470 207.76Z" fill="#D62222"/>
<path d="M1473.45 199.37C1473.45 199.37 1485.45 203.51 1481.66 210.79C1476.23 212.11 1474.08 205.49 1473.45 199.37Z" fill="#CE2525"/>
<path d="M1533.86 230.56C1533.86 230.56 1529.91 218.84 1523.01 220.62C1521.76 225.24 1528.05 228.64 1533.86 230.56Z" fill="#CE2525"/>
<path d="M1543.5 194.2C1543.5 194.2 1543.69 206.1 1551.28 204.95C1554 200.5 1548.76 196.6 1543.5 194.2Z" fill="#D62222"/>
<path d="M1427.59 161.89C1427.59 161.89 1417.49 166.05 1419.33 172C1423.41 172.82 1426.14 167.1 1427.59 161.89Z" fill="#CE2525"/>
<path d="M1360.37 180.32C1360.37 180.32 1380.04 179.47 1378.25 167.14C1371 162.83 1364.42 171.61 1360.37 180.32Z" fill="#D62222"/>
<path d="M1396.84 181.5C1396.84 181.5 1404.84 172.67 1398.5 168.34C1393.44 169.7 1394.63 176.15 1396.84 181.5Z" fill="#D62222"/>
<path d="M1863 870.33C1863 870.33 1837.67 870.75 1840.27 886.92C1849.77 892.81 1858 881.57 1863 870.33Z" fill="#D62222"/>
<path d="M1839.25 862.84C1839.25 862.84 1826.57 880.84 1839.25 887.32C1848.27 883.65 1844.58 872.12 1839.25 862.84Z" fill="#D62222"/>
<path d="M1817.88 902.1C1817.88 902.1 1843.17 903.7 1841.88 887.37C1832.86 880.74 1823.78 891.29 1817.88 902.1Z" fill="#CE2525"/>
<path d="M1815.56 889.52C1815.56 889.52 1833.23 874.32 1841.34 887.03C1838.41 896.89 1825.88 894.19 1815.56 889.52Z" fill="#D62222"/>
<path d="M1818.45 869.87C1818.45 869.87 1843.78 870.32 1841.16 886.49C1831.65 892.37 1823.45 881.12 1818.45 869.87Z" fill="#CE2525"/>
<path d="M1612.2 128.42C1612.2 128.42 1608.34 143.42 1618.1 144.78C1623 140.24 1617.88 133.39 1612.2 128.42Z" fill="#D62222"/>
<path d="M1631.13 189.23C1631.13 189.23 1625.46 178.39 1619 181.05C1618.5 185.69 1625.17 188.15 1631.13 189.23Z" fill="#CE2525"/>
<path d="M1766.62 144.12C1766.62 144.12 1755.86 147.92 1758.2 154.38C1762.7 155.51 1765.34 149.58 1766.62 144.12Z" fill="#D62222"/>
<path d="M1744.82 151.62C1744.82 151.62 1744.01 159.74 1749.27 159.55C1751.5 156.74 1748.22 153.67 1744.82 151.62Z" fill="#D62222"/>
<path d="M1900.09 159.81C1900.09 159.81 1892.72 158.47 1892.39 163.23C1894.76 165.45 1897.89 162.73 1900.09 159.81Z" fill="#D62222"/>
<path d="M1875.91 154.3C1875.91 154.3 1886.14 157.8 1887.62 151.08C1884.73 147.39 1879.68 150.62 1875.91 154.3Z" fill="#D62222"/>
<path d="M1851.56 147.7C1851.56 147.7 1856.31 134.1 1847.21 132.25C1842.23 136.15 1846.58 142.78 1851.56 147.7Z" fill="#D62222"/>
<path d="M1902.05 219.87C1902.05 219.87 1913.05 203.57 1902.11 197.66C1894.31 201 1897.47 211.44 1902.05 219.87Z" fill="#D62222"/>
<path d="M1856.45 296.51C1856.45 296.51 1858.45 308.58 1865.45 308.08C1867.33 303.83 1861.77 299.41 1856.45 296.51Z" fill="#CE2525"/>
<path d="M1833.07 173C1833.07 173 1836.57 161 1828.81 159.6C1824.74 163.14 1828.68 168.84 1833.07 173Z" fill="#D62222"/>
<path d="M1432.05 192.13L1413.48 204.88C1410.61 206.852 1407.14 207.78 1403.67 207.51L1383.5 206C1383.47 206.009 1383.44 206.029 1383.41 206.057C1383.39 206.085 1383.38 206.119 1383.38 206.155C1383.38 206.19 1383.39 206.225 1383.41 206.253C1383.44 206.281 1383.47 206.301 1383.5 206.31L1403.28 210.81C1405.8 211.386 1408.41 211.452 1410.96 211.006C1413.51 210.559 1415.94 209.609 1418.12 208.21L1437.69 195.65L1432.05 192.13Z" fill="#A38360"/>
<path d="M1389.77 222.78C1389.77 222.78 1401.77 216.08 1396.68 208.97C1390.74 208.57 1389.49 216.08 1389.77 222.78Z" fill="#D62222"/>
<path d="M522.79 1080C522.79 1080 574.11 1025.77 762.53 1024.23C891.65 1023.18 961.42 1023.57 992.53 1023.92C1002.77 1024.04 1013 1024.04 1023.24 1023.99C1033.48 1023.94 1048.6 1024.43 1058.17 1027.3C1063.92 1029.02 1073.86 1029.99 1084.05 1030.53C1101.39 1031.32 1118.75 1029.64 1135.61 1025.53C1138.38 1024.76 1141.26 1024.42 1144.13 1024.53C1146.46 1023.98 1152.51 1025.45 1159.27 1027.53C1198.51 1039.82 1239.3 1046.44 1280.41 1047.2C1288.58 1047.33 1297.31 1047.33 1306.6 1047.2C1336.94 1046.64 1374.97 1043.92 1410.97 1040.69C1475.64 1034.8 1539.27 1020.55 1600.27 998.29C1621.86 990.44 1643.53 984.01 1657.41 983.63C1660.03 983.56 1662.68 983.5 1665.32 983.47C1702.66 983.068 1739.89 987.594 1776.05 996.93C1815.05 1006.93 1874.17 1020.48 1919.98 1024.22V1081.67L522.79 1080Z" fill="#282828"/>
<path d="M80.2202 876.87C82.9702 874.07 85.6802 870.95 88.2202 867.81C90.7602 864.67 93.2202 861.38 95.5402 858.03C100.207 851.334 104.311 844.263 107.81 836.89C109.564 833.196 111.126 829.415 112.49 825.56C113.873 821.709 115.021 817.779 115.93 813.79C117.807 805.776 118.568 797.542 118.19 789.32C118.997 797.567 118.661 805.885 117.19 814.04C116.467 818.127 115.502 822.167 114.3 826.14C113.115 830.127 111.723 834.049 110.13 837.89C106.942 845.592 103.123 853.018 98.7102 860.09C96.5102 863.63 94.1802 867.09 91.7102 870.47C89.2402 873.85 86.7102 877.11 83.8202 880.34L80.2202 876.87Z" fill="#E02421"/>
<path d="M81.5201 880C78.1801 877.26 75.1701 874.44 72.1901 871.48C69.2101 868.52 66.4001 865.48 63.6701 862.31C58.2098 856.015 53.2797 849.278 48.9301 842.17C46.7352 838.613 44.7323 834.941 42.9301 831.17C41.1172 827.433 39.5343 823.59 38.1901 819.66C35.4513 811.841 33.809 803.68 33.3101 795.41C34.2044 803.588 36.2234 811.604 39.3101 819.23C40.8306 823.029 42.5805 826.733 44.5501 830.32C46.5174 833.922 48.6703 837.42 51.0001 840.8C55.6068 847.548 60.7644 853.903 66.4201 859.8C69.2301 862.8 72.1601 865.59 75.1801 868.32C78.2001 871.05 81.3401 873.68 84.5001 876.01L81.5201 880Z" fill="#E02421"/>
<path d="M79.6802 877.09C80.7602 874.38 81.6802 871.37 82.5602 868.43C83.4402 865.49 84.1502 862.43 84.7902 859.43C86.1074 853.35 87.0492 847.195 87.6102 841C88.2002 834.792 88.4106 828.554 88.2402 822.32C88.2402 819.19 87.9602 816.07 87.7402 812.95C87.6602 811.38 87.4302 809.84 87.2502 808.28L86.6902 803.61L87.5602 808.23C87.8402 809.78 88.1802 811.32 88.3602 812.88C88.7902 815.99 89.2702 819.1 89.4902 822.24C90.0771 828.525 90.2841 834.84 90.1102 841.15C89.9508 847.484 89.4065 853.802 88.4802 860.07C88.0402 863.21 87.4802 866.34 86.8102 869.46C86.1402 872.58 85.3802 875.64 84.3602 878.83L79.6802 877.09Z" fill="#E02421"/>
<path d="M79.5402 879C78.3002 869.34 77.2502 859.72 76.3302 850.07C75.4102 840.42 74.6302 830.75 74.0702 821.07C73.5102 811.39 73.1702 801.7 73.2902 792C73.3502 787.15 73.5502 782.3 73.9802 777.47C74.3312 772.632 75.1961 767.845 76.5602 763.19C75.3899 767.883 74.7195 772.686 74.5602 777.52C74.3302 782.34 74.3402 787.17 74.4802 791.99C74.7902 801.64 75.5502 811.27 76.4802 820.88C77.4102 830.49 78.6402 840.07 79.9702 849.63C81.3002 859.19 82.7702 868.75 84.4102 878.23L79.5402 879Z" fill="#E02421"/>
<path d="M70.11 803.68C72.27 805.03 75.46 807.77 75.37 812.28C71.63 810.53 68.95 807.99 68.27 805.05C68.07 804.18 69.35 803.21 70.11 803.68Z" fill="#E02421"/>
<path d="M42.5999 809.65C42.5999 812.2 41.8899 816.35 37.9999 818.65C37.5499 814.55 38.3199 810.93 40.4799 808.83C40.6633 808.699 40.8764 808.616 41.1001 808.587C41.3237 808.559 41.5508 808.587 41.7611 808.668C41.9713 808.75 42.158 808.882 42.3044 809.053C42.4509 809.225 42.5524 809.43 42.5999 809.65Z" fill="#E02421"/>
<path d="M33.4699 819.49C35.9499 820.05 39.8699 821.6 41.2599 825.89C37.1499 825.46 33.7799 823.89 32.1799 821.38C31.7099 820.62 32.5999 819.29 33.4699 819.49Z" fill="#E02421"/>
<path d="M43.07 844C45.46 843.12 49.58 842.28 53.07 845.11C49.4 846.99 45.74 847.56 43.01 846.29C42.8234 846.16 42.6719 845.986 42.5692 845.784C42.4665 845.581 42.4159 845.356 42.4219 845.129C42.4278 844.902 42.4902 844.68 42.6033 844.482C42.7164 844.285 42.8768 844.12 43.07 844Z" fill="#E02421"/>
<path d="M86.0001 841.46C85.0001 843.81 82.8301 847.4 78.3701 848.05C79.4901 844.05 81.5701 841.05 84.3701 839.87C85.1401 839.53 86.3001 840.63 86.0001 841.46Z" fill="#E02421"/>
<path d="M80.7399 773.34C80.0499 775.79 78.2899 779.61 73.9399 780.77C74.5799 776.7 76.2799 773.41 78.9399 771.95C79.6999 771.51 80.9999 772.48 80.7399 773.34Z" fill="#E02421"/>
<path d="M67.1199 775.87C69.5399 776.64 73.3099 778.52 74.3299 782.87C70.3299 782.09 67.0499 780.28 65.6699 777.61C65.2599 776.85 66.2699 775.6 67.1199 775.87Z" fill="#E02421"/>
<path d="M95.0601 809.07C94.3801 811.53 92.6501 815.36 88.3101 816.55C88.9301 812.47 90.6001 809.18 93.2301 807.7C94.0001 807.26 95.3001 808.21 95.0601 809.07Z" fill="#E02421"/>
<path d="M84.2802 817.9C86.3702 819.34 89.4202 822.24 89.1102 826.74C85.4602 824.81 82.9102 822.14 82.3702 819.17C82.3683 818.942 82.4233 818.718 82.53 818.517C82.6368 818.316 82.792 818.144 82.9816 818.018C83.1711 817.892 83.3892 817.815 83.6159 817.795C83.8426 817.774 84.0709 817.81 84.2802 817.9Z" fill="#E02421"/>
<path d="M101.77 838.61C103.13 840.76 104.77 844.61 102.77 848.61C100.17 845.4 98.8701 841.94 99.5401 839.01C99.6292 838.804 99.7679 838.624 99.9437 838.484C100.12 838.345 100.327 838.252 100.548 838.212C100.769 838.172 100.996 838.188 101.209 838.257C101.422 838.327 101.615 838.448 101.77 838.61Z" fill="#E02421"/>
<path d="M0 880.74C0 880.74 102.9 877.74 126.43 859.88C130.591 856.639 135.195 854.009 140.1 852.07C154.79 846.48 181.82 847.29 209.1 850.32C252.54 855.14 296.43 851.84 338.97 841.78C365.67 835.46 404.91 862.83 445.6 893.99C447.14 895.17 448.6 896.43 450.09 897.7C455.067 901.722 460.477 905.177 466.22 908C480.718 915.413 496.595 919.741 512.85 920.71C528.72 921.78 554.19 927.78 577.17 952.19C585.95 961.37 604.9 965.97 621.06 968.28C654.06 972.99 702.36 1006.57 734.06 1016.97C761.06 1025.83 775.8 1010.97 801.64 1024.19C864.44 1056.36 896.64 1079.96 896.64 1079.96H0V880.74Z" fill="#333333"/>
<path d="M1847.15 1013.42C1847.15 1013.42 1832.28 997.96 1823.75 1008.9C1825.58 1018.19 1837.29 1016.8 1847.15 1013.42Z" fill="#D62222"/>
<path d="M1849.21 983.82C1849.21 983.82 1819.45 987.89 1824.8 1006.57C1836.82 1012.16 1844.9 997.77 1849.21 983.82Z" fill="#D62222"/>
<path d="M1787.68 1001.15C1787.68 1001.15 1809.57 1027.88 1824.68 1011.4C1822.91 996.26 1803.94 997 1787.68 1001.15Z" fill="#CE2525"/>
<path d="M1798.08 987.15C1798.08 987.15 1829.67 990.66 1824.52 1010.57C1811.94 1016.8 1803 1001.78 1798.08 987.15Z" fill="#D62222"/>
<path d="M1819.74 978C1819.74 978 1839.13 999.58 1823.53 1010C1811.17 1006.66 1814.21 991 1819.74 978Z" fill="#CE2525"/>
<path d="M1660.07 940.05H1653.89V990.98H1660.07V940.05Z" fill="#A38360"/>
<path d="M1696.12 904.51H1618.25V946.84H1696.12V904.51Z" fill="#A38360"/>
<path d="M1643.24 916.36L1657.29 932.11L1673.12 916.28" stroke="#333333" stroke-width="4" stroke-miterlimit="10"/>
</g>
<defs>
<clipPath id="clip0">
<rect width="1920" height="1080" fill="white"/>
</clipPath>
</defs>
</svg>
