<svg width="1920" height="553" viewBox="0 0 1920 553" fill="none" xmlns="http://www.w3.org/2000/svg">
<g clip-path="url(#clip0)">
<path d="M1013.36 0C1013.36 0 1163 14.74 1188.94 16.73C1207.63 18.17 1285.42 13.19 1327.39 10.29C1341.73 9.31 1356.04 8.03 1370.32 6.45C1410.8 2 1520.36 -6.81 1594 17C1640.45 32 1668.5 51.69 1684.88 67.47C1708.84 90.5924 1736.07 110.067 1765.69 125.27C1784.89 135.058 1804.86 143.236 1825.41 149.72C1847.53 156.72 1884.72 185.86 1883.31 302.32C1889.31 361.92 1920.03 525.57 1920.03 525.57V0H1013.36Z" fill="#282828"/>
<path d="M358.23 0C358.23 0 209.74 16.66 167.7 57.25L166.7 58.25C163.655 61.4117 160.161 64.1073 156.33 66.25C120.2 86.09 80 55.45 48.51 48C14.77 40 0 137.11 0 137.11V0H358.23Z" fill="#333333"/>
</g>
<defs>
<clipPath id="clip0">
<rect width="1920" height="552.4" fill="white"/>
</clipPath>
</defs>
</svg>
