<svg width="175" height="131" viewBox="0 0 175 131" fill="none" xmlns="http://www.w3.org/2000/svg">
<g clip-path="url(#clip0)">
<path d="M41.6909 54.7115L61.5071 79.1135C64.0806 82.1958 65.8821 85.2782 66.6542 87.8468C67.4262 90.4154 67.6836 92.7272 67.1689 95.0389C66.9115 97.3507 66.1394 99.1488 65.11 100.69C64.0806 102.231 63.0512 103.515 62.0218 104.286C60.2203 105.827 57.9042 106.855 55.588 107.368C53.2718 107.882 50.6983 108.139 48.3821 107.882L43.4924 130.743C47.8674 131.513 52.7571 131.513 58.6762 130.743C64.5953 130.229 70.5145 127.404 76.1762 122.78C81.0659 118.67 84.6689 114.304 87.2424 109.68C89.5586 105.057 91.1027 100.176 91.36 95.0389C92.1321 84.7644 89.0439 75.5174 81.838 66.784L59.963 40.0703L41.6909 54.7115Z" fill="#429ABF"/>
<path d="M16.4706 56.5095C25.567 56.5095 32.9412 49.1495 32.9412 40.0703C32.9412 30.9912 25.567 23.6311 16.4706 23.6311C7.37413 23.6311 0 30.9912 0 40.0703C0 49.1495 7.37413 56.5095 16.4706 56.5095Z" fill="#EB7263"/>
<path d="M114.007 68.8391L122.5 38.5293C123.529 34.6763 125.074 31.594 126.618 29.2822C128.419 27.2273 130.221 25.6861 132.022 24.6587C134.081 23.6312 135.882 23.1175 137.941 23.1175C139.743 23.1175 141.544 23.3744 142.831 23.6312C145.147 24.4018 147.206 25.4293 149.007 27.2273C150.809 29.0253 152.353 30.8234 153.382 32.8783L175 23.8881C173.199 20.0351 170.11 15.9253 166.25 11.3018C162.39 6.93514 156.728 3.59592 149.522 1.54102C143.346 -0.257019 137.684 -0.513881 132.537 -0.000155866C127.39 0.770432 122.5 2.31161 118.125 5.1371C109.375 10.5312 103.456 18.494 100.625 29.0253L91.3604 62.1606L114.007 68.8391Z" fill="#B1DDEB"/>
<path d="M142.316 88.3607C151.128 88.3607 158.272 81.2307 158.272 72.4353C158.272 63.6399 151.128 56.5098 142.316 56.5098C133.504 56.5098 126.36 63.6399 126.36 72.4353C126.36 81.2307 133.504 88.3607 142.316 88.3607Z" fill="#EB7263"/>
</g>
<defs>
<clipPath id="clip0">
<rect width="175" height="131" fill="white"/>
</clipPath>
</defs>
</svg>
