<svg width="456" height="207" viewBox="0 0 456 207" fill="none" xmlns="http://www.w3.org/2000/svg">
<g clip-path="url(#clip0)">
<path d="M41.6909 54.7115L61.5071 79.1135C64.0806 82.1958 65.8821 85.2782 66.6542 87.8468C67.4262 90.4154 67.6836 92.7272 67.1689 95.0389C66.9115 97.3507 66.1394 99.1488 65.11 100.69C64.0806 102.231 63.0512 103.515 62.0218 104.286C60.2203 105.827 57.9042 106.855 55.588 107.368C53.2718 107.882 50.6983 108.139 48.3821 107.882L43.4924 130.743C47.8674 131.513 52.7571 131.513 58.6762 130.743C64.5953 130.229 70.5145 127.404 76.1762 122.78C81.0659 118.67 84.6689 114.304 87.2424 109.68C89.5586 105.057 91.1027 100.176 91.36 95.0389C92.1321 84.7644 89.0439 75.5174 81.838 66.784L59.963 40.0703L41.6909 54.7115Z" fill="#429ABF"/>
<path d="M16.4706 56.5095C25.567 56.5095 32.9412 49.1495 32.9412 40.0703C32.9412 30.9912 25.567 23.6311 16.4706 23.6311C7.37413 23.6311 0 30.9912 0 40.0703C0 49.1495 7.37413 56.5095 16.4706 56.5095Z" fill="#EB7263"/>
<path d="M114.007 68.8391L122.5 38.5293C123.529 34.6763 125.074 31.594 126.618 29.2822C128.419 27.2273 130.221 25.6861 132.022 24.6587C134.081 23.6312 135.882 23.1175 137.941 23.1175C139.743 23.1175 141.544 23.3744 142.831 23.6312C145.147 24.4018 147.206 25.4293 149.007 27.2273C150.809 29.0253 152.353 30.8234 153.382 32.8783L175 23.8881C173.199 20.0351 170.11 15.9253 166.25 11.3018C162.39 6.93514 156.728 3.59592 149.522 1.54102C143.346 -0.257019 137.684 -0.513881 132.537 -0.000155866C127.39 0.770432 122.5 2.31161 118.125 5.1371C109.375 10.5312 103.456 18.494 100.625 29.0253L91.3604 62.1606L114.007 68.8391Z" fill="#B1DDEB"/>
<path d="M142.316 88.3607C151.128 88.3607 158.272 81.2307 158.272 72.4353C158.272 63.6399 151.128 56.5098 142.316 56.5098C133.504 56.5098 126.36 63.6399 126.36 72.4353C126.36 81.2307 133.504 88.3607 142.316 88.3607Z" fill="#EB7263"/>
</g>
<path d="M133.247 142.412C133.778 142.676 134.574 142.941 135.37 142.941C136.166 142.941 136.697 142.676 137.494 142.147C138.024 141.618 138.555 140.559 138.555 139.235V105.618H144.129V139.765C144.129 141.088 143.864 142.147 143.598 143.206C143.067 144.265 142.537 145.059 141.74 145.588C140.944 146.118 140.148 146.647 139.086 146.912C138.024 147.176 136.963 147.441 135.636 147.441C134.574 147.441 133.778 147.441 132.981 147.176C132.185 146.912 131.389 146.647 130.593 146.382C130.062 146.118 129.531 145.588 129 145.324L131.92 141.353C132.185 141.618 132.716 142.147 133.247 142.412Z" fill="#429ABF"/>
<path d="M153.95 136.323C152.357 135.529 151.03 134.206 150.234 132.618C149.438 131.029 148.907 129.176 148.907 127.059C148.907 124.676 149.438 122.823 150.234 121.235C151.03 119.647 152.357 118.323 153.95 117.529C155.542 116.735 157.4 116.206 159.789 116.206C162.178 116.206 163.77 116.735 165.363 117.529C166.955 118.323 168.017 119.647 168.813 121.235C169.61 122.823 170.141 124.676 170.141 127.059C170.141 127.323 170.141 127.588 170.141 127.853C170.141 128.118 170.141 128.382 170.141 128.382H151.826V124.676H165.894L164.301 126.794C164.301 126.529 164.567 126.265 164.567 126C164.567 125.735 164.832 125.471 164.832 125.206C164.832 124.147 164.567 123.088 164.301 122.294C163.77 121.5 163.24 120.971 162.443 120.441C161.647 119.912 160.851 119.647 159.789 119.647C158.462 119.647 157.4 119.912 156.604 120.441C155.808 121.235 155.011 122.029 154.481 122.823C153.95 123.882 153.684 125.206 153.684 126.529C153.684 128.118 153.95 129.176 154.481 130.235C155.011 131.294 155.542 132.088 156.604 132.618C157.4 133.147 158.462 133.412 159.789 133.412C161.116 133.412 162.178 133.147 163.24 132.618C164.301 132.088 165.097 131.294 165.628 130.235L169.875 131.823C168.813 133.676 167.486 135 165.628 136.059C164.036 137.118 161.912 137.382 159.524 137.382C157.4 137.647 155.542 137.382 153.95 136.323Z" fill="#429ABF"/>
<path d="M178.368 132.618C178.634 133.147 179.165 133.412 179.696 133.676C180.226 133.941 181.023 133.941 181.819 133.941C182.881 133.941 183.677 133.676 184.473 133.412C185.269 133.147 185.8 132.353 186.331 131.559C186.862 130.765 187.127 129.971 187.127 128.912L187.924 131.559C187.924 132.882 187.658 133.941 186.862 134.735C186.066 135.529 185.004 136.323 183.942 136.588C182.881 137.118 181.554 137.118 180.492 137.118C179.165 137.118 178.103 136.853 176.776 136.323C175.714 135.794 174.653 135 174.122 134.206C173.591 133.147 173.06 132.088 173.06 130.5C173.06 128.382 173.856 126.794 175.183 125.735C176.511 124.676 178.634 123.882 181.288 123.882C182.615 123.882 183.942 124.147 185.004 124.412C186.066 124.676 186.862 124.941 187.393 125.471C187.924 126 188.455 126.265 188.72 126.529V128.912C187.658 128.382 186.862 127.853 185.8 127.588C184.739 127.323 183.677 127.059 182.35 127.059C181.288 127.059 180.492 127.059 179.961 127.323C179.43 127.588 178.899 127.853 178.634 128.382C178.368 128.912 178.103 129.441 178.103 129.971C177.838 131.559 178.103 132.088 178.368 132.618ZM174.387 118.588C175.449 118.059 176.511 117.529 178.103 117C179.696 116.471 181.288 116.206 183.146 116.206C184.739 116.206 186.331 116.471 187.658 117C188.985 117.529 190.047 118.323 190.843 119.118C191.64 119.912 191.905 121.235 191.905 122.559V137.382H187.127V123.353C187.127 122.823 187.127 122.029 186.862 121.765C186.597 121.235 186.331 120.971 186.066 120.706C185.8 120.441 185.269 120.176 184.739 120.176C184.208 120.176 183.677 119.912 182.881 119.912C181.819 119.912 181.023 119.912 180.226 120.176C179.43 120.441 178.634 120.706 178.103 120.971C177.572 121.235 177.041 121.5 176.776 121.765L174.387 118.588Z" fill="#429ABF"/>
<path d="M209.954 121.235C209.423 120.441 208.361 120.176 207.034 120.176C206.238 120.176 205.442 120.441 204.645 120.706C203.849 120.971 203.318 121.5 203.053 122.294C202.787 123.088 202.522 123.882 202.522 124.676V137.382H197.744V116.471H202.522V119.647C203.053 118.323 204.115 117.529 205.176 117C205.972 116.471 207.3 116.206 208.627 116.206C211.015 116.206 212.873 117 213.935 118.323C214.997 119.647 215.793 121.765 215.793 124.147V137.382H210.75V124.676C211.015 123.088 210.485 122.029 209.954 121.235Z" fill="#429ABF"/>
<path d="M234.638 121.235C234.107 120.441 233.045 120.176 231.718 120.176C230.922 120.176 230.126 120.441 229.329 120.706C228.533 120.971 228.002 121.5 227.737 122.294C227.206 122.823 226.941 123.618 226.941 124.676V137.382H222.163V116.471H226.941V119.647C227.472 118.323 228.533 117.529 229.595 117C230.657 116.471 231.984 116.206 233.311 116.206C235.7 116.206 237.558 117 238.619 118.323C239.681 119.647 240.477 121.5 240.477 124.147V137.382H235.434V124.676C235.434 123.088 235.169 122.029 234.638 121.235Z" fill="#429ABF"/>
<path d="M250.298 136.323C248.705 135.529 247.378 134.206 246.582 132.618C245.786 131.029 245.255 129.176 245.255 127.059C245.255 124.941 245.786 123.088 246.582 121.235C247.378 119.647 248.705 118.323 250.298 117.529C251.89 116.735 253.748 116.206 256.137 116.206C258.526 116.206 260.119 116.735 261.711 117.529C263.304 118.323 264.365 119.647 265.162 121.235C265.958 122.823 266.489 124.676 266.489 127.059C266.489 127.323 266.489 127.588 266.489 127.853C266.489 128.118 266.489 128.382 266.489 128.382H248.175V124.676H262.242L260.649 126.794C260.649 126.529 260.915 126.265 260.915 126C260.915 125.735 261.18 125.471 261.18 125.206C261.18 124.147 260.915 123.088 260.649 122.294C260.119 121.5 259.588 120.971 258.791 120.441C257.995 119.912 257.199 119.647 256.137 119.647C254.81 119.647 253.748 119.912 252.952 120.441C252.156 120.971 251.36 121.765 251.094 122.823C250.563 123.882 250.298 125.206 250.298 126.529C250.298 128.118 250.563 129.176 251.094 130.235C251.625 131.294 252.156 132.088 253.218 132.618C254.014 133.147 255.076 133.412 256.403 133.412C257.73 133.412 258.791 133.147 259.853 132.618C260.915 132.088 261.711 131.294 262.242 130.235L266.489 131.823C265.427 133.676 264.1 135 262.242 136.059C260.649 137.118 258.526 137.382 256.137 137.382C253.748 137.647 251.89 137.382 250.298 136.323Z" fill="#429ABF"/>
<g opacity="0.6">
<path opacity="0.6" d="M155.011 159.618H161.116L145.722 192.971L130.327 159.618H136.432L145.722 181.853L155.011 159.618Z" fill="#429ABF"/>
<path opacity="0.6" d="M168.017 186.618C168.282 187.147 168.813 187.412 169.344 187.677C169.875 187.942 170.671 187.942 171.467 187.942C172.529 187.942 173.325 187.677 174.122 187.412C174.918 187.147 175.449 186.353 175.98 185.559C176.51 184.765 176.776 183.971 176.776 182.912L177.572 185.559C177.572 186.883 177.307 187.942 176.51 188.736C175.714 189.53 174.652 190.324 173.591 190.589C172.529 191.118 171.202 191.118 170.14 191.118C168.813 191.118 167.752 190.853 166.424 190.324C165.363 189.795 164.301 189 163.77 188.206C163.239 187.147 162.708 186.089 162.708 184.5C162.708 182.383 163.505 180.795 164.832 179.736C166.159 178.677 168.282 177.883 170.937 177.883C172.264 177.883 173.591 178.147 174.652 178.412C175.714 178.677 176.51 178.942 177.041 179.471C177.572 180 178.103 180.265 178.368 180.53V183.706C177.307 183.177 176.51 182.647 175.449 182.383C174.387 182.118 173.325 181.853 171.998 181.853C170.937 181.853 170.14 181.853 169.609 182.118C169.079 182.383 168.548 182.647 168.282 183.177C168.017 183.706 167.752 184.236 167.752 184.765C167.486 185.559 167.486 186.089 168.017 186.618ZM163.77 172.589C164.832 172.059 165.894 171.53 167.486 171C169.079 170.471 170.671 170.206 172.529 170.206C174.122 170.206 175.714 170.471 177.041 171C178.368 171.53 179.43 172.324 180.226 173.118C181.023 173.912 181.288 175.236 181.288 176.559V191.383H176.51V177.618C176.51 177.089 176.51 176.295 176.245 176.03C175.98 175.5 175.714 175.236 175.449 174.971C175.183 174.706 174.652 174.442 174.122 174.442C173.591 174.442 173.06 174.177 172.264 174.177C171.202 174.177 170.406 174.177 169.609 174.442C168.813 174.706 168.017 174.971 167.486 175.236C166.955 175.5 166.424 175.765 166.159 176.03L163.77 172.589Z" fill="#429ABF"/>
<path opacity="0.6" d="M199.602 175.236C199.071 174.442 198.01 174.177 196.683 174.177C195.886 174.177 195.09 174.442 194.294 174.706C193.498 174.971 192.967 175.5 192.701 176.295C192.436 177.089 192.17 177.883 192.17 178.677V191.383H187.393V170.471H192.17V173.647C192.701 172.324 193.763 171.53 194.825 171C195.886 170.471 197.213 170.206 198.541 170.206C200.929 170.206 202.787 171 203.849 172.324C204.911 173.647 205.707 175.765 205.707 178.147V191.383H200.664V178.677C200.399 177.089 200.133 176.03 199.602 175.236Z" fill="#429ABF"/>
<path opacity="0.6" d="M211.546 174.971C212.608 173.383 213.669 172.059 215.262 171.265C216.855 170.471 218.447 169.941 220.305 169.941C222.163 169.941 223.49 170.471 224.817 171.265C226.144 172.059 227.206 173.383 228.002 174.971C228.799 176.559 229.064 178.412 229.064 180.794C229.064 182.912 228.799 185.03 228.002 186.618C227.206 188.206 226.144 189.53 224.817 190.324C223.49 191.118 221.898 191.647 220.305 191.647C218.447 191.647 216.855 191.118 215.262 190.324C213.669 189.53 212.342 188.206 211.546 186.618C210.484 185.03 210.219 183.177 210.219 180.794C209.954 178.677 210.484 176.559 211.546 174.971ZM216.058 184.5C216.589 185.559 217.385 186.353 218.447 186.883C219.509 187.412 220.305 187.677 221.632 187.677C222.694 187.677 223.49 187.412 224.286 186.883C225.083 186.353 225.879 185.559 226.675 184.765C227.471 183.971 227.471 182.647 227.471 181.059C227.471 179.736 227.206 178.412 226.675 177.353C226.144 176.294 225.348 175.765 224.286 175.236C223.49 174.706 222.428 174.441 221.632 174.441C220.57 174.441 219.509 174.706 218.447 175.236C217.385 175.765 216.855 176.559 216.058 177.353C215.527 178.412 215.262 179.471 215.262 180.794C215.262 182.118 215.527 183.441 216.058 184.5ZM232.249 156.177V191.383H227.206V156.177H232.249Z" fill="#429ABF"/>
<path opacity="0.6" d="M241.804 190.324C240.212 189.53 238.885 188.206 238.088 186.618C237.292 185.03 236.761 183.177 236.761 181.059C236.761 178.942 237.292 177.089 238.088 175.236C238.885 173.647 240.212 172.324 241.804 171.53C243.397 170.736 245.255 170.206 247.644 170.206C250.032 170.206 251.625 170.736 253.217 171.53C254.81 172.324 255.872 173.647 256.668 175.236C257.464 176.824 257.995 178.677 257.995 181.059C257.995 181.324 257.995 181.589 257.995 181.853C257.995 182.118 257.995 182.383 257.995 182.383H239.681V178.942H253.748L252.156 181.059C252.156 180.795 252.421 180.53 252.421 180.265C252.421 180 252.687 179.736 252.687 179.471C252.687 178.412 252.421 177.353 252.156 176.559C251.625 175.765 251.094 175.236 250.298 174.706C249.501 174.177 248.705 173.912 247.644 173.912C246.316 173.912 245.255 174.177 244.458 174.706C243.662 175.236 242.866 176.03 242.601 177.089C242.07 178.147 241.804 179.471 241.804 180.795C241.804 182.383 242.07 183.442 242.601 184.5C243.131 185.559 243.662 186.353 244.724 186.883C245.52 187.412 246.582 187.677 247.909 187.677C249.236 187.677 250.298 187.412 251.359 186.883C252.421 186.353 253.217 185.559 253.748 184.5L257.995 186.089C256.933 187.942 255.606 189.265 253.748 190.324C252.156 191.383 250.032 191.647 247.644 191.647C245.255 191.647 243.397 191.118 241.804 190.324Z" fill="#429ABF"/>
<path opacity="0.6" d="M262.242 201.177V170.471H267.285V201.177H262.242ZM282.945 186.618C281.883 188.206 280.821 189.53 279.229 190.324C277.636 191.118 276.044 191.647 274.451 191.647C272.593 191.647 271.266 191.118 269.939 190.324C268.612 189.53 267.55 188.206 267.019 186.618C266.223 185.03 265.958 183.177 265.958 180.794C265.958 178.677 266.223 176.559 267.019 174.971C267.816 173.383 268.612 172.059 269.939 171.265C271.266 170.471 272.859 169.941 274.451 169.941C276.309 169.941 277.902 170.471 279.494 171.265C281.087 172.059 282.148 173.383 283.21 174.971C284.272 176.559 284.537 178.677 284.537 180.794C284.537 183.177 284.006 185.03 282.945 186.618ZM278.432 177.353C277.902 176.294 277.105 175.765 276.044 175.236C274.982 174.706 273.92 174.441 272.859 174.441C271.797 174.441 271.001 174.706 270.204 175.236C269.408 175.765 268.612 176.559 268.081 177.353C267.55 178.412 267.285 179.471 267.285 180.794C267.285 182.118 267.55 183.441 268.081 184.236C268.612 185.294 269.408 185.824 270.204 186.353C271.001 186.883 272.062 187.147 272.859 187.147C273.92 187.147 274.982 186.883 276.044 186.353C277.105 185.824 277.636 185.03 278.432 184.236C278.963 183.177 279.229 182.118 279.229 180.794C279.229 179.471 279.229 178.412 278.432 177.353Z" fill="#429ABF"/>
<path opacity="0.6" d="M289.05 175.236C290.111 173.647 291.438 172.324 293.031 171.53C294.623 170.736 296.747 170.206 298.87 170.206C300.994 170.206 302.852 170.736 304.71 171.53C306.567 172.324 307.629 173.647 308.691 175.236C309.753 176.824 310.283 178.677 310.283 180.795C310.283 182.912 309.753 184.765 308.691 186.353C307.629 187.942 306.302 189.265 304.71 190.059C303.117 190.853 300.728 191.647 298.605 191.647C296.481 191.647 294.623 191.118 292.766 190.324C290.908 189.53 289.846 188.206 288.784 186.618C287.723 185.03 287.192 183.177 287.192 181.059C287.457 178.677 287.988 176.824 289.05 175.236ZM293.296 184.236C293.827 185.295 294.623 186.089 295.42 186.618C296.481 187.147 297.278 187.412 298.605 187.412C299.667 187.412 300.728 187.147 301.79 186.618C302.852 186.089 303.382 185.295 303.913 184.236C304.444 183.177 304.71 182.118 304.71 180.795C304.71 179.471 304.71 178.412 304.179 177.353C303.648 176.295 302.852 175.5 302.055 174.971C300.994 174.442 299.932 174.177 298.87 174.177C297.809 174.177 296.747 174.442 295.685 174.971C294.623 175.5 294.093 176.295 293.562 177.353C293.031 178.412 292.766 179.471 292.766 180.795C292.766 182.118 292.766 183.177 293.296 184.236Z" fill="#429ABF"/>
<path opacity="0.6" d="M314.265 175.236C315.326 173.647 316.653 172.324 318.246 171.53C319.839 170.736 321.962 170.206 324.085 170.206C326.209 170.206 328.067 170.736 329.925 171.53C331.783 172.324 332.844 173.647 333.906 175.236C334.968 176.824 335.498 178.677 335.498 180.795C335.498 182.912 334.968 184.765 333.906 186.353C332.844 187.942 331.517 189.265 329.925 190.059C328.332 190.853 326.209 191.647 324.085 191.647C321.962 191.647 320.104 191.118 318.246 190.324C316.388 189.53 315.326 188.206 314.265 186.618C313.203 185.03 312.672 183.177 312.672 181.059C312.938 178.677 313.468 176.824 314.265 175.236ZM318.777 184.236C319.308 185.295 320.104 186.089 320.9 186.618C321.962 187.147 322.758 187.412 324.085 187.412C325.147 187.412 326.209 187.147 327.27 186.618C328.332 186.089 328.863 185.295 329.394 184.236C329.925 183.177 330.19 182.118 330.19 180.795C330.19 179.471 329.925 178.412 329.394 177.353C328.863 176.295 328.067 175.765 327.27 175.236C326.209 174.706 325.147 174.442 324.085 174.442C323.024 174.442 321.962 174.706 320.9 175.236C319.839 175.765 319.308 176.559 318.777 177.618C318.246 178.677 317.981 179.736 317.981 181.059C317.981 182.383 318.246 183.177 318.777 184.236Z" fill="#429ABF"/>
<path opacity="0.6" d="M344.788 191.118H340.01V170.471H344.788V191.118ZM349.566 174.971C349.3 174.706 348.769 174.706 347.973 174.706C347.177 174.706 346.381 174.971 346.115 175.236C345.584 175.765 345.319 176.295 345.054 177.089C344.788 177.883 344.788 178.677 344.788 179.736L343.196 178.677C343.196 177.089 343.461 175.5 343.992 174.177C344.523 172.853 345.319 171.795 346.381 171.265C347.442 170.471 348.504 170.206 349.3 170.206C350.097 170.206 350.627 170.206 351.424 170.471C351.954 170.736 352.751 171 353.016 171.795L350.893 175.765C350.362 175.236 350.097 174.971 349.566 174.971Z" fill="#429ABF"/>
<path opacity="0.6" d="M365.491 170.471V174.706H353.812V170.471H365.491ZM362.041 163.324V191.118H357.263V163.324H362.041Z" fill="#429ABF"/>
<path opacity="0.6" d="M372.392 186.618C372.657 187.147 373.188 187.412 373.719 187.677C374.25 187.942 375.046 187.942 375.842 187.942C376.904 187.942 377.7 187.677 378.497 187.412C379.293 187.147 379.824 186.353 380.355 185.559C380.885 184.765 381.151 183.971 381.151 182.912L381.947 185.559C381.947 186.883 381.682 187.942 380.885 188.736C380.089 189.53 379.027 190.324 377.966 190.589C376.904 191.118 375.577 191.118 374.515 191.118C373.188 191.118 372.127 190.853 370.799 190.324C369.738 189.795 368.676 189 368.145 188.206C367.614 187.147 367.083 186.089 367.083 184.5C367.083 182.383 367.88 180.795 369.207 179.736C370.534 178.677 372.657 177.883 375.312 177.883C376.639 177.883 377.966 178.147 379.027 178.412C380.089 178.677 380.885 178.942 381.416 179.471C381.947 180 382.478 180.265 382.743 180.53V183.706C381.682 183.177 380.885 182.647 379.824 182.383C378.762 182.118 377.7 181.853 376.373 181.853C375.312 181.853 374.515 181.853 373.984 182.118C373.454 182.383 372.923 182.647 372.657 183.177C372.392 183.706 372.127 184.236 372.127 184.765C371.861 185.559 372.127 186.089 372.392 186.618ZM368.411 172.589C369.472 172.059 370.534 171.53 372.127 171C373.719 170.471 375.312 170.206 377.17 170.206C378.762 170.206 380.355 170.471 381.682 171C383.009 171.53 384.071 172.324 384.867 173.118C385.663 173.912 385.928 175.236 385.928 176.559V191.383H381.151V177.618C381.151 177.089 381.151 176.295 380.885 176.03C380.62 175.5 380.355 175.236 380.089 174.971C379.824 174.706 379.293 174.442 378.762 174.442C378.231 174.442 377.7 174.177 376.904 174.177C375.842 174.177 375.046 174.177 374.25 174.442C373.454 174.706 372.657 174.971 372.127 175.236C371.596 175.5 371.065 175.765 370.799 176.03L368.411 172.589Z" fill="#429ABF"/>
<path opacity="0.6" d="M394.953 190.324C393.361 189.53 392.034 188.206 391.237 186.618C390.441 185.03 389.91 183.177 389.91 181.059C389.91 178.942 390.441 177.089 391.237 175.236C392.034 173.647 393.361 172.324 394.953 171.53C396.546 170.736 398.404 170.206 400.792 170.206C403.181 170.206 404.774 170.736 406.366 171.53C407.959 172.324 409.021 173.647 409.817 175.236C410.613 176.824 411.144 178.677 411.144 181.059C411.144 181.324 411.144 181.589 411.144 181.853C411.144 182.118 411.144 182.383 411.144 182.383H392.83V178.942H406.897L405.305 181.059C405.305 180.795 405.57 180.53 405.57 180.265C405.57 180 405.835 179.736 405.835 179.471C405.835 178.412 405.57 177.353 405.305 176.559C404.774 175.765 404.243 175.236 403.447 174.706C402.65 174.177 401.854 173.912 400.792 173.912C399.465 173.912 398.404 174.177 397.607 174.706C396.811 175.236 396.015 176.03 395.749 177.089C395.219 178.147 394.953 179.471 394.953 180.795C394.953 182.383 395.219 183.442 395.749 184.5C396.28 185.559 396.811 186.353 397.873 186.883C398.669 187.412 399.731 187.677 401.058 187.677C402.385 187.677 403.447 187.412 404.508 186.883C405.57 186.353 406.366 185.559 406.897 184.5L411.144 186.089C410.082 187.942 408.755 189.265 406.897 190.324C405.305 191.383 403.181 191.647 400.792 191.647C398.404 191.647 396.546 191.118 394.953 190.324Z" fill="#429ABF"/>
<path opacity="0.6" d="M420.699 156.177V191.383H415.921V156.177H420.699Z" fill="#429ABF"/>
<path opacity="0.6" d="M430.254 190.324C428.662 189.53 427.334 188.206 426.538 186.618C425.742 185.03 425.211 183.177 425.211 181.059C425.211 178.942 425.742 177.089 426.538 175.236C427.334 173.647 428.662 172.324 430.254 171.53C431.847 170.736 433.705 170.206 436.093 170.206C438.482 170.206 440.075 170.736 441.667 171.53C443.26 172.324 444.321 173.647 445.118 175.236C445.914 176.824 446.445 178.677 446.445 181.059C446.445 181.324 446.445 181.589 446.445 181.853C446.445 182.118 446.445 182.383 446.445 182.383H428.131V178.942H442.198L440.606 181.059C440.606 180.795 440.871 180.53 440.871 180.265C440.871 180 441.136 179.736 441.136 179.471C441.136 178.412 440.871 177.353 440.606 176.559C440.075 175.765 439.544 175.236 438.748 174.706C437.951 174.177 437.155 173.912 436.093 173.912C434.766 173.912 433.705 174.177 432.908 174.706C432.112 175.236 431.316 176.03 431.05 177.089C430.52 178.147 430.254 179.471 430.254 180.795C430.254 182.383 430.52 183.442 431.05 184.5C431.581 185.559 432.112 186.353 433.174 186.883C433.97 187.412 435.032 187.677 436.359 187.677C437.686 187.677 438.748 187.412 439.809 186.883C440.871 186.353 441.667 185.559 442.198 184.5L446.445 186.089C445.383 187.942 444.056 189.265 442.198 190.324C440.606 191.383 438.482 191.647 436.093 191.647C433.97 191.647 432.112 191.118 430.254 190.324Z" fill="#429ABF"/>
</g>
<path d="M452.019 191.118C454.071 191.118 455.735 189.459 455.735 187.412C455.735 185.365 454.071 183.706 452.019 183.706C449.967 183.706 448.303 185.365 448.303 187.412C448.303 189.459 449.967 191.118 452.019 191.118Z" fill="#EB7263"/>
<defs>
<clipPath id="clip0">
<rect width="175" height="131" fill="white"/>
</clipPath>
</defs>
</svg>
