<svg width="99" height="99" viewBox="0 0 99 99" fill="none" xmlns="http://www.w3.org/2000/svg">
<circle cx="49.5" cy="49.5" r="49.5" fill="#B1DDEB"/>
<ellipse cx="49.8722" cy="48.3836" rx="30.5188" ry="29.7744" fill="white"/>
<path d="M13.6945 78.4103L23.8541 58.5185L33.91 68.911L13.6945 78.4103Z" fill="white"/>
<path d="M40.2395 52.8889C39.4129 52.8889 38.7195 52.6089 38.1595 52.0489C37.5995 51.4889 37.3195 50.7956 37.3195 49.9689C37.3195 49.1422 37.5995 48.4489 38.1595 47.8889C38.7195 47.3289 39.4129 47.0489 40.2395 47.0489C41.0395 47.0489 41.7195 47.3289 42.2795 47.8889C42.8395 48.4489 43.1195 49.1422 43.1195 49.9689C43.1195 50.7956 42.8395 51.4889 42.2795 52.0489C41.7195 52.6089 41.0395 52.8889 40.2395 52.8889ZM49.888 52.8889C49.0613 52.8889 48.368 52.6089 47.808 52.0489C47.248 51.4889 46.968 50.7956 46.968 49.9689C46.968 49.1422 47.248 48.4489 47.808 47.8889C48.368 47.3289 49.0613 47.0489 49.888 47.0489C50.688 47.0489 51.368 47.3289 51.928 47.8889C52.488 48.4489 52.768 49.1422 52.768 49.9689C52.768 50.7956 52.488 51.4889 51.928 52.0489C51.368 52.6089 50.688 52.8889 49.888 52.8889ZM59.5364 52.8889C58.7097 52.8889 58.0164 52.6089 57.4564 52.0489C56.8964 51.4889 56.6164 50.7956 56.6164 49.9689C56.6164 49.1422 56.8964 48.4489 57.4564 47.8889C58.0164 47.3289 58.7097 47.0489 59.5364 47.0489C60.3364 47.0489 61.0164 47.3289 61.5764 47.8889C62.1364 48.4489 62.4164 49.1422 62.4164 49.9689C62.4164 50.7956 62.1364 51.4889 61.5764 52.0489C61.0164 52.6089 60.3364 52.8889 59.5364 52.8889Z" fill="#B1DDEB"/>
</svg>
